<svg id="Grupo_87612" data-name="Grupo 87612" xmlns="http://www.w3.org/2000/svg" xmlns:xlink="http://www.w3.org/1999/xlink" width="108.528" height="288.829" viewBox="0 0 108.528 288.829">
  <defs>
    <linearGradient id="linear-gradient" x1="0.5" x2="0.5" y2="1" gradientUnits="objectBoundingBox">
      <stop offset="0" stop-color="#7e57c2"/>
      <stop offset="1" stop-color="#451991"/>
    </linearGradient>
  </defs>
  <g id="Grupo_87605" data-name="Grupo 87605">
    <rect id="Rectángulo_32801" data-name="Rectángulo 32801" width="108.528" height="288.829" rx="10" fill="url(#linear-gradient)"/>
  </g>
  <g id="Grupo_87608" data-name="Grupo 87608" transform="translate(24.744 115.444)">
    <g id="Grupo_87606" data-name="Grupo 87606">
      <path id="Trazado_139403" data-name="Trazado 139403" d="M117.717-45.693H73.735a6.425,6.425,0,0,1-5.623-3.247,6.426,6.426,0,0,1,0-6.492L90.1-93.523a6.429,6.429,0,0,1,5.623-3.246h0a6.428,6.428,0,0,1,5.622,3.246L123.34-55.432a6.426,6.426,0,0,1,0,6.492A6.426,6.426,0,0,1,117.717-45.693Zm-24.7-46.146L71.028-53.749a3.092,3.092,0,0,0,0,3.126,3.1,3.1,0,0,0,2.708,1.563h43.982a3.1,3.1,0,0,0,2.708-1.563,3.1,3.1,0,0,0,0-3.126L98.433-91.839A3.094,3.094,0,0,0,95.727-93.4a3.1,3.1,0,0,0-2.709,1.563Z" transform="translate(-67.232 96.769)" fill="#fff"/>
    </g>
    <g id="Grupo_87607" data-name="Grupo 87607" transform="translate(24.44 13.788)">
      <path id="Trazado_139404" data-name="Trazado 139404" d="M95.625-83.045h0A4.065,4.065,0,0,1,99.66-78.5L97.875-63.564a2.279,2.279,0,0,1-2.262,2.007h0a2.279,2.279,0,0,1-2.262-2.011L91.588-78.5A4.065,4.065,0,0,1,95.625-83.045Z" transform="translate(-91.56 83.045)" fill="#fff"/>
      <path id="Trazado_139405" data-name="Trazado 139405" d="M93.318-54.408a3.128,3.128,0,0,1-.94-2.3,3.134,3.134,0,0,1,.94-2.3,3.131,3.131,0,0,1,2.3-.939,3.135,3.135,0,0,1,2.3.939,3.133,3.133,0,0,1,.939,2.3,3.127,3.127,0,0,1-.939,2.3,3.132,3.132,0,0,1-2.3.94A3.128,3.128,0,0,1,93.318-54.408Z" transform="translate(-91.556 83.152)" fill="#fff"/>
    </g>
  </g>
</svg>
