<svg id="Group_87331" data-name="Group 87331" xmlns="http://www.w3.org/2000/svg" xmlns:xlink="http://www.w3.org/1999/xlink" width="110.493" height="110.491" viewBox="0 0 110.493 110.491">
  <defs>
    <radialGradient id="radial-gradient" cx="0.077" cy="0.019" r="1.465" gradientTransform="matrix(1, 0, 0, -1, 0, 9.666)" gradientUnits="objectBoundingBox">
      <stop offset="0" stop-color="#f4f4f5"/>
      <stop offset="0.477" stop-color="#f7f8fa"/>
      <stop offset="0.715" stop-color="#fff"/>
    </radialGradient>
  </defs>
  <g id="Group_18531" data-name="Group 18531">
    <g id="Group_18423" data-name="Group 18423">
      <g id="Group_18421" data-name="Group 18421">
        <g id="Group_18420" data-name="Group 18420">
          <g id="Group_18419" data-name="Group 18419">
            <path id="Path_40936" data-name="Path 40936" d="M233.291,570.076a55.246,55.246,0,1,1-55.248-55.244h0A55.244,55.244,0,0,1,233.291,570.076Z" transform="translate(-122.8 -514.832)" fill="#fff"/>
          </g>
        </g>
      </g>
      <path id="Path_40937" data-name="Path 40937" d="M233.289,570.076a55.026,55.026,0,1,0,0,.436Z" transform="translate(-122.798 -514.832)" fill="url(#radial-gradient)"/>
      <path id="Path_40938" data-name="Path 40938" d="M213.949,563.818a42.169,42.169,0,1,0-42.168,42.169h0a42.013,42.013,0,0,0,42.168-41.855Z" transform="translate(-116.365 -508.39)" fill="none" stroke="#451991" stroke-miterlimit="10" stroke-width="4"/>
      <g id="Group_18422" data-name="Group 18422" transform="translate(9.788 31.017)">
        <path id="Path_40939" data-name="Path 40939" d="M222.95,530.78a55.252,55.252,0,0,1-95.117,55.014A55.077,55.077,0,0,0,222.95,530.78Z" transform="translate(-127.833 -530.78)" fill="#e7e9eb"/>
      </g>
    </g>
  </g>
  <g id="CMXml2.tif" transform="translate(-4565.437 -487.716)">
    <g id="Grupo_103725" data-name="Grupo 103725" transform="translate(4600.8 519.089)">
      <path id="Trazado_157825" data-name="Trazado 157825" d="M4605.066,519.089h34.224a1.308,1.308,0,0,0,.211.083,4.952,4.952,0,0,1,4.077,4.968c.007,1.212,0,2.424,0,3.637,0,.915-.35,1.263-1.269,1.264q-3.054,0-6.108,0h-.548c-.012.145-.024.22-.024.3q0,6.644-.008,13.288c0,.332.127.4.425.443a9.967,9.967,0,0,1,1.962,19.234c-.751.271-1.549.416-2.347.626a.08.08,0,0,0-.021.051q-.009,1.258-.013,2.517c0,1.011-.329,1.339-1.336,1.339h-27.136c-1.756,0-3.513,0-5.269,0a1,1,0,0,1-1.082-1.028c-.007-.124,0-.249,0-.373V541.885q0-8.836,0-17.671a4.986,4.986,0,0,1,3.512-4.906C4604.564,519.231,4604.815,519.162,4605.066,519.089Zm28.56,23.892c0-.272,0-.519,0-.766,0-5.718-.024-11.437,0-17.155,0-1.341-.044-2.726.894-3.866.011-.014-.011-.054-.025-.119h-28.461a2.989,2.989,0,0,0-3.227,3.227q0,20,0,40v.515H4633.6v-1.925a9.984,9.984,0,0,1,.029-19.91Zm8.951,9.935a7.949,7.949,0,1,0-7.945,7.95A7.959,7.959,0,0,0,4642.576,552.916Zm-6.93-25.9h5.867a28.826,28.826,0,0,0-.031-3.632,2.869,2.869,0,0,0-3.02-2.306,2.936,2.936,0,0,0-2.8,2.631C4635.594,524.791,4635.646,525.879,4635.646,527.017Z" transform="translate(-4600.8 -519.089)" fill="#12263f"/>
      <path id="Trazado_157826" data-name="Trazado 157826" d="M4749.988,623.664a4.169,4.169,0,0,1,.113-.4q1.434-3.836,2.873-7.671a1.089,1.089,0,0,1,.747-.761.959.959,0,0,1,1.162.618q1.51,3.982,2.99,7.974a.989.989,0,0,1-1.843.72,10.177,10.177,0,0,1-.393-1.045.408.408,0,0,0-.457-.346c-.822.019-1.646-.006-2.469.019a.553.553,0,0,0-.392.272c-.182.376-.286.788-.465,1.166a.951.951,0,0,1-1.134.507A1,1,0,0,1,4749.988,623.664Zm4.768-2.911c-.268-.709-.511-1.358-.794-2.11-.285.754-.533,1.414-.8,2.11Z" transform="translate(-4736.049 -605.854)" fill="#12263f"/>
      <path id="Trazado_157827" data-name="Trazado 157827" d="M4849.188,618.218c.359-.715.676-1.351,1-1.985a1,1,0,1,1,1.765.9c-.488.987-.969,1.978-1.477,2.954a.7.7,0,0,0,.006.731c.507.977.992,1.966,1.48,2.953a1.005,1.005,0,1,1-1.781.884c-.319-.634-.637-1.269-.99-1.974l-.993,1.967a1,1,0,1,1-1.783-.868c.488-.987.974-1.976,1.483-2.952a.745.745,0,0,0-.01-.773c-.507-.977-.991-1.967-1.478-2.955a1,1,0,1,1,1.775-.883C4848.508,616.856,4848.825,617.5,4849.188,618.218Z" transform="translate(-4823.319 -606.525)" fill="#12263f"/>
      <path id="Trazado_157828" data-name="Trazado 157828" d="M4662.095,893.625q-3.311,0-6.621,0a2.339,2.339,0,0,1-.6-.058.982.982,0,0,1,.022-1.892,2.082,2.082,0,0,1,.507-.048q6.714,0,13.427,0c.695,0,1.109.272,1.215.781a1,1,0,0,1-1.053,1.216c-1.01.016-2.02.005-3.03.005Z" transform="translate(-4649.181 -856.814)" fill="#12263f"/>
      <path id="Trazado_157829" data-name="Trazado 157829" d="M4667.718,616.877c-.659,0-1.247,0-1.834,0-.705-.006-1.157-.407-1.145-1.006a1.02,1.02,0,0,1,1.134-.975q2.844,0,5.688,0a1.02,1.02,0,0,1,1.138.97c.016.6-.437,1-1.14,1.01-.588.005-1.176,0-1.813,0-.01.217-.024.4-.025.576q0,3.03,0,6.06a2.633,2.633,0,0,1-.039.556.981.981,0,0,1-1.917.006,2.6,2.6,0,0,1-.042-.555q0-3.03,0-6.06Z" transform="translate(-4658.764 -605.941)" fill="#12263f"/>
      <path id="Trazado_157830" data-name="Trazado 157830" d="M4662.132,944.957c2.3,0,4.6,0,6.9,0a.982.982,0,0,1,1.02.72.947.947,0,0,1-.428,1.089,1.335,1.335,0,0,1-.617.165q-6.876.012-13.753,0a.994.994,0,1,1,.024-1.98c2.285-.006,4.569,0,6.854,0Z" transform="translate(-4649.194 -905.162)" fill="#12263f"/>
      <path id="Trazado_157831" data-name="Trazado 157831" d="M4662.2,838.439q3.4,0,6.807,0a1,1,0,0,1,1.083.821.963.963,0,0,1-.605,1.087,2.047,2.047,0,0,1-.642.073q-6.457.006-12.914,0c-.233,0-.467.009-.7,0a.991.991,0,1,1,.026-1.979c2.315-.007,4.631,0,6.946,0Z" transform="translate(-4649.218 -808.6)" fill="#12263f"/>
      <path id="Trazado_157832" data-name="Trazado 157832" d="M4659.169,787.273c-1.274,0-2.549,0-3.822,0-.708,0-1.145-.4-1.137-1.008.007-.6.428-.97,1.122-.971q3.845-.006,7.691,0a1,1,0,1,1,.015,1.98C4661.749,787.279,4660.458,787.274,4659.169,787.273Z" transform="translate(-4649.219 -760.416)" fill="#12263f"/>
      <path id="Trazado_157833" data-name="Trazado 157833" d="M4925.527,826.514a4.744,4.744,0,0,1,.853.649.839.839,0,0,1,0,1.006,7.256,7.256,0,0,1-.479.629q-2.64,3.313-5.284,6.622a10.7,10.7,0,0,1-.771.871.894.894,0,0,1-1.22.105.978.978,0,0,1-.321-1.239,2.2,2.2,0,0,1,.264-.381c2.016-2.521,4.026-5.045,6.058-7.553A5.472,5.472,0,0,1,4925.527,826.514Z" transform="translate(-4888.548 -797.789)" fill="#12263f"/>
      <path id="Trazado_157834" data-name="Trazado 157834" d="M4913.638,829.786a1.981,1.981,0,1,1-1.984-1.987A1.984,1.984,0,0,1,4913.638,829.786Z" transform="translate(-4880.815 -798.954)" fill="#12263f"/>
      <path id="Trazado_157835" data-name="Trazado 157835" d="M4977.51,893.679a1.981,1.981,0,1,1-1.966-2A1.98,1.98,0,0,1,4977.51,893.679Z" transform="translate(-4938.72 -856.861)" fill="#12263f"/>
    </g>
  </g>
</svg>
