<svg xmlns="http://www.w3.org/2000/svg" xmlns:xlink="http://www.w3.org/1999/xlink" width="795.543" height="507.5" viewBox="0 0 795.543 507.5">
  <defs>
    <linearGradient id="linear-gradient" x1="0.5" x2="0.5" y2="1" gradientUnits="objectBoundingBox">
      <stop offset="0" stop-color="#fff"/>
      <stop offset="1" stop-color="#f8f8f8"/>
    </linearGradient>
    <filter id="Rectángulo_34301" x="0" y="0" width="795.543" height="507.5" filterUnits="userSpaceOnUse">
      <feOffset dy="3" input="SourceAlpha"/>
      <feGaussianBlur stdDeviation="3" result="blur"/>
      <feFlood flood-opacity="0.161"/>
      <feComposite operator="in" in2="blur"/>
      <feComposite in="SourceGraphic"/>
    </filter>
  </defs>
  <g id="Grupo_118232" data-name="Grupo 118232" transform="translate(-491.808 -5411.516)">
    <g transform="matrix(1, 0, 0, 1, 491.81, 5411.52)" filter="url(#Rectángulo_34301)">
      <rect id="Rectángulo_34301-2" data-name="Rectángulo 34301" width="777.543" height="489.5" rx="10" transform="translate(9 6)" fill="url(#linear-gradient)"/>
    </g>
    <rect id="Rectángulo_34302" data-name="Rectángulo 34302" width="190.384" height="6.681" transform="translate(794.388 5417.516)" fill="#6737bb"/>
    <g id="Grupo_113445" data-name="Grupo 113445" transform="translate(-4714.529 4191.216)">
      <rect id="Rectángulo_34291" data-name="Rectángulo 34291" width="48" height="83.368" transform="translate(5258.24 1361.193)" fill="#e8e8e8"/>
      <rect id="Rectángulo_34292" data-name="Rectángulo 34292" width="48" height="83.368" transform="translate(5315.188 1361.193)" fill="#e8e8e8"/>
      <rect id="Rectángulo_34293" data-name="Rectángulo 34293" width="48" height="83.368" transform="translate(5393.292 1361.193)" fill="#36a3f7" opacity="0.5"/>
      <rect id="Rectángulo_34294" data-name="Rectángulo 34294" width="48" height="83.368" transform="translate(5450.24 1361.193)" fill="#36a3f7" opacity="0.5"/>
      <rect id="Rectángulo_34295" data-name="Rectángulo 34295" width="48" height="83.368" transform="translate(5603.082 1361.193)" fill="#dc9ce8" opacity="0.566"/>
      <rect id="Rectángulo_34296" data-name="Rectángulo 34296" width="48" height="83.368" transform="translate(5524.766 1361.193)" fill="#dc9ce8" opacity="0.566"/>
      <rect id="Rectángulo_34297" data-name="Rectángulo 34297" width="48" height="83.368" transform="translate(5758.45 1361.193)" fill="#451991" opacity="0.485"/>
      <rect id="Rectángulo_34298" data-name="Rectángulo 34298" width="48" height="83.368" transform="translate(5680.134 1361.193)" fill="#451991" opacity="0.485"/>
      <rect id="Rectángulo_34299" data-name="Rectángulo 34299" width="48" height="83.368" transform="translate(5913.818 1361.193)" fill="#2cffe2" opacity="0.489"/>
      <rect id="Rectángulo_34300" data-name="Rectángulo 34300" width="48" height="83.368" transform="translate(5835.502 1361.193)" fill="#96fef0"/>
      <path id="Trazado_173659" data-name="Trazado 173659" d="M15.3-8.535q0,4.282-1.772,6.55A6.186,6.186,0,0,1,8.337.284,6.229,6.229,0,0,1,3.176-1.942a10.151,10.151,0,0,1-1.829-6.38v-3.8q0-4.324,1.793-6.564a6.232,6.232,0,0,1,5.168-2.24,6.238,6.238,0,0,1,5.161,2.219A10.12,10.12,0,0,1,15.3-12.335Zm-4.1-4.178a7.559,7.559,0,0,0-.7-3.74,2.372,2.372,0,0,0-2.19-1.171,2.33,2.33,0,0,0-2.134,1.114,7.074,7.074,0,0,0-.73,3.484V-8a7.935,7.935,0,0,0,.688,3.754,2.34,2.34,0,0,0,2.2,1.228A2.3,2.3,0,0,0,10.506-4.2,7.745,7.745,0,0,0,11.2-7.8Z" transform="translate(5282.24 1414.589)" fill="#12263f"/>
      <path id="Trazado_173649" data-name="Trazado 173649" d="M7.431,0H4.75V-10.349l-3.2.988v-2.162l5.594-2h.288Z" transform="translate(5288.212 1351.846)" fill="#12263f"/>
      <path id="Trazado_173650" data-name="Trazado 173650" d="M10.177,0H.918V-1.837l4.37-4.657A10.78,10.78,0,0,0,6.619-8.21,2.757,2.757,0,0,0,7.051-9.6,2.063,2.063,0,0,0,6.6-11.017a1.641,1.641,0,0,0-1.3-.515,1.77,1.77,0,0,0-1.433.626A2.481,2.481,0,0,0,3.34-9.259H.649a4.428,4.428,0,0,1,.589-2.254,4.152,4.152,0,0,1,1.665-1.6,5.062,5.062,0,0,1,2.44-.58,4.793,4.793,0,0,1,3.242,1,3.545,3.545,0,0,1,1.155,2.83,4.542,4.542,0,0,1-.52,2.041A11.342,11.342,0,0,1,7.44-5.4L4.37-2.162h5.808Z" transform="translate(5343.176 1351.846)" fill="#12263f"/>
      <path id="Trazado_173651" data-name="Trazado 173651" d="M3.646-7.941H5.075a2.013,2.013,0,0,0,1.512-.51,1.87,1.87,0,0,0,.492-1.354,1.653,1.653,0,0,0-.487-1.271,1.888,1.888,0,0,0-1.341-.455,1.979,1.979,0,0,0-1.29.422,1.35,1.35,0,0,0-.52,1.1H.761a3.3,3.3,0,0,1,.571-1.9,3.8,3.8,0,0,1,1.6-1.313,5.326,5.326,0,0,1,2.259-.473,5.051,5.051,0,0,1,3.358,1.025A3.5,3.5,0,0,1,9.76-9.843a2.842,2.842,0,0,1-.566,1.707,3.677,3.677,0,0,1-1.484,1.2,3.356,3.356,0,0,1,1.7,1.225,3.322,3.322,0,0,1,.561,1.93A3.556,3.556,0,0,1,8.66-.9,5.278,5.278,0,0,1,5.186.186,5,5,0,0,1,1.879-.881,3.484,3.484,0,0,1,.594-3.7H3.275a1.553,1.553,0,0,0,.571,1.243,2.1,2.1,0,0,0,1.406.482,2.112,2.112,0,0,0,1.5-.506,1.745,1.745,0,0,0,.543-1.341q0-2.022-2.227-2.022H3.646Z" transform="translate(5421.146 1351.846)" fill="#12263f"/>
      <path id="Trazado_173652" data-name="Trazado 173652" d="M8.851-5.084h1.531v2.162H8.851V0H6.169V-2.922H.631L.51-4.611l5.631-8.9H8.851Zm-5.668,0H6.169V-9.853l-.176.306Z" transform="translate(5477.397 1351.846)" fill="#12263f"/>
      <path id="Trazado_173653" data-name="Trazado 173653" d="M1.317-6.643,2.1-13.508h7.57v2.236H4.3l-.334,2.9a4.251,4.251,0,0,1,2.032-.51,3.893,3.893,0,0,1,3.024,1.2,4.78,4.78,0,0,1,1.095,3.349A4.9,4.9,0,0,1,9.56-1.99a3.9,3.9,0,0,1-1.582,1.6A4.938,4.938,0,0,1,5.548.186a5.244,5.244,0,0,1-2.273-.5,4.032,4.032,0,0,1-1.656-1.4,3.805,3.805,0,0,1-.645-2.05H3.627a1.982,1.982,0,0,0,.589,1.313,1.868,1.868,0,0,0,1.322.469,1.648,1.648,0,0,0,1.4-.654,3.03,3.03,0,0,0,.492-1.851,2.505,2.505,0,0,0-.566-1.763,2.077,2.077,0,0,0-1.6-.612,2.321,2.321,0,0,0-1.549.5l-.26.241Z" transform="translate(5552.71 1351.846)" fill="#12263f"/>
      <path id="Trazado_173654" data-name="Trazado 173654" d="M8.192-13.647v2.208h-.26a4.555,4.555,0,0,0-2.927.946A3.845,3.845,0,0,0,3.674-7.941,3.652,3.652,0,0,1,6.392-9.036a3.441,3.441,0,0,1,2.8,1.262,5.058,5.058,0,0,1,1.039,3.321,4.975,4.975,0,0,1-.571,2.384A4.092,4.092,0,0,1,8.048-.408,4.69,4.69,0,0,1,5.687.186,4.38,4.38,0,0,1,2.24-1.3,5.762,5.762,0,0,1,.928-5.26v-.965a8.671,8.671,0,0,1,.83-3.883,6.088,6.088,0,0,1,2.384-2.607,6.987,6.987,0,0,1,3.6-.932ZM5.576-6.875A2.142,2.142,0,0,0,4.4-6.537a2.036,2.036,0,0,0-.779.894v.815a3.61,3.61,0,0,0,.529,2.1,1.709,1.709,0,0,0,1.484.755,1.69,1.69,0,0,0,1.4-.681,2.776,2.776,0,0,0,.533-1.764A2.77,2.77,0,0,0,7.023-6.2,1.754,1.754,0,0,0,5.576-6.875Z" transform="translate(5631.168 1351.846)" fill="#12263f"/>
      <path id="Trazado_173655" data-name="Trazado 173655" d="M10.1-12.011,4.88,0H2.05L7.283-11.346H.566v-2.162H10.1Z" transform="translate(5709.71 1351.846)" fill="#12263f"/>
      <path id="Trazado_173656" data-name="Trazado 173656" d="M9.723-9.917a3.142,3.142,0,0,1-.492,1.744A3.539,3.539,0,0,1,7.876-6.958a3.917,3.917,0,0,1,1.559,1.3A3.344,3.344,0,0,1,10.01-3.7,3.541,3.541,0,0,1,8.786-.858,4.967,4.967,0,0,1,5.455.186,4.99,4.99,0,0,1,2.115-.863,3.532,3.532,0,0,1,.881-3.7a3.365,3.365,0,0,1,.575-1.958,3.846,3.846,0,0,1,1.549-1.3,3.5,3.5,0,0,1-1.35-1.215,3.164,3.164,0,0,1-.487-1.744,3.5,3.5,0,0,1,1.15-2.751,4.529,4.529,0,0,1,3.126-1.025,4.559,4.559,0,0,1,3.122,1.016A3.488,3.488,0,0,1,9.723-9.917ZM7.32-3.9a1.945,1.945,0,0,0-.51-1.41,1.819,1.819,0,0,0-1.373-.529,1.816,1.816,0,0,0-1.364.524A1.941,1.941,0,0,0,3.563-3.9a1.94,1.94,0,0,0,.5,1.392,1.825,1.825,0,0,0,1.392.529,1.821,1.821,0,0,0,1.368-.51A1.937,1.937,0,0,0,7.32-3.9ZM7.042-9.788a1.856,1.856,0,0,0-.417-1.266,1.481,1.481,0,0,0-1.178-.478,1.492,1.492,0,0,0-1.169.464,1.845,1.845,0,0,0-.417,1.28,1.939,1.939,0,0,0,.417,1.3A1.461,1.461,0,0,0,5.455-8a1.447,1.447,0,0,0,1.174-.492A1.953,1.953,0,0,0,7.042-9.788Z" transform="translate(5788.266 1351.846)" fill="#12263f"/>
      <path id="Trazado_173657" data-name="Trazado 173657" d="M7.19-5.4A3.385,3.385,0,0,1,4.741-4.37,3.621,3.621,0,0,1,1.874-5.6,4.858,4.858,0,0,1,.8-8.916a5.174,5.174,0,0,1,.58-2.435A4.253,4.253,0,0,1,3-13.076a4.492,4.492,0,0,1,2.338-.617,4.3,4.3,0,0,1,2.375.668A4.392,4.392,0,0,1,9.324-11.1a6.9,6.9,0,0,1,.584,2.867v.993A7.813,7.813,0,0,1,8.229-1.939,6.349,6.349,0,0,1,3.47.121L2.811.13V-2.106L3.4-2.115Q6.9-2.273,7.19-5.4ZM5.4-6.42a1.875,1.875,0,0,0,1.118-.334,2.231,2.231,0,0,0,.71-.807v-1.1a3.687,3.687,0,0,0-.52-2.115,1.612,1.612,0,0,0-1.392-.751,1.565,1.565,0,0,0-1.327.738,3.136,3.136,0,0,0-.52,1.851A3.052,3.052,0,0,0,3.975-7.13,1.647,1.647,0,0,0,5.4-6.42Z" transform="translate(5852.649 1351.846)" fill="#12263f"/>
      <path id="Trazado_173658" data-name="Trazado 173658" d="M7.431,0H4.75V-10.349l-3.2.988v-2.162l5.594-2h.288Zm13.48-5.585A6.843,6.843,0,0,1,19.751-1.3a4.048,4.048,0,0,1-3.4,1.484,4.076,4.076,0,0,1-3.377-1.457,6.643,6.643,0,0,1-1.2-4.175V-7.932a6.753,6.753,0,0,1,1.174-4.3,4.078,4.078,0,0,1,3.382-1.466,4.082,4.082,0,0,1,3.377,1.452,6.622,6.622,0,0,1,1.2,4.17ZM18.23-8.319a4.946,4.946,0,0,0-.459-2.447,1.552,1.552,0,0,0-1.433-.766,1.524,1.524,0,0,0-1.4.729,4.629,4.629,0,0,0-.478,2.28v3.287a5.192,5.192,0,0,0,.45,2.456,1.531,1.531,0,0,0,1.443.8,1.506,1.506,0,0,0,1.419-.771,5.068,5.068,0,0,0,.455-2.359Z" transform="translate(5925.049 1351.846)" fill="#12263f"/>
      <path id="Trazado_173660" data-name="Trazado 173660" d="M15.553,0H1.4V-2.807L8.081-9.924a16.474,16.474,0,0,0,2.035-2.623,4.214,4.214,0,0,0,.659-2.127,3.153,3.153,0,0,0-.695-2.162A2.508,2.508,0,0,0,8.1-17.623a2.7,2.7,0,0,0-2.19.957,3.791,3.791,0,0,0-.8,2.517H.992a6.767,6.767,0,0,1,.9-3.445A6.345,6.345,0,0,1,4.438-20.04a7.735,7.735,0,0,1,3.729-.886A7.324,7.324,0,0,1,13.121-19.4a5.417,5.417,0,0,1,1.765,4.324,6.941,6.941,0,0,1-.794,3.119,17.333,17.333,0,0,1-2.722,3.7L6.678-3.3h8.875Z" transform="translate(5339.945 1414.589)" fill="#12263f"/>
      <path id="Trazado_173662" data-name="Trazado 173662" d="M11.356,0h-4.1V-15.816l-4.891,1.51v-3.3l8.549-3.062h.44Z" transform="translate(5476.502 1414.589)" fill="#12263f"/>
      <path id="Trazado_173663" data-name="Trazado 173663" d="M5.572-12.136H7.755a3.077,3.077,0,0,0,2.311-.78,2.857,2.857,0,0,0,.751-2.07,2.526,2.526,0,0,0-.744-1.942,2.885,2.885,0,0,0-2.049-.695,3.024,3.024,0,0,0-1.971.645A2.063,2.063,0,0,0,5.26-15.3h-4.1a5.039,5.039,0,0,1,.872-2.9A5.81,5.81,0,0,1,4.473-20.2a8.139,8.139,0,0,1,3.452-.723,7.718,7.718,0,0,1,5.132,1.567,5.345,5.345,0,0,1,1.857,4.317,4.344,4.344,0,0,1-.865,2.609A5.619,5.619,0,0,1,11.782-10.6a5.129,5.129,0,0,1,2.6,1.871,5.077,5.077,0,0,1,.858,2.949,5.434,5.434,0,0,1-2.006,4.409A8.066,8.066,0,0,1,7.925.284a7.648,7.648,0,0,1-5.054-1.63A5.325,5.325,0,0,1,.907-5.657H5a2.374,2.374,0,0,0,.872,1.9,3.213,3.213,0,0,0,2.148.737,3.228,3.228,0,0,0,2.29-.773,2.667,2.667,0,0,0,.829-2.049q0-3.091-3.4-3.091H5.572Z" transform="translate(5549.45 1414.589)" fill="#12263f"/>
      <path id="Trazado_173661" data-name="Trazado 173661" d="M15.3-8.535q0,4.282-1.772,6.55A6.186,6.186,0,0,1,8.337.284,6.229,6.229,0,0,1,3.176-1.942a10.151,10.151,0,0,1-1.829-6.38v-3.8q0-4.324,1.793-6.564a6.232,6.232,0,0,1,5.168-2.24,6.238,6.238,0,0,1,5.161,2.219A10.12,10.12,0,0,1,15.3-12.335Zm-4.1-4.178a7.559,7.559,0,0,0-.7-3.74,2.372,2.372,0,0,0-2.19-1.171,2.33,2.33,0,0,0-2.134,1.114,7.074,7.074,0,0,0-.73,3.484V-8a7.935,7.935,0,0,0,.688,3.754,2.34,2.34,0,0,0,2.2,1.228A2.3,2.3,0,0,0,10.506-4.2,7.745,7.745,0,0,0,11.2-7.8Z" transform="translate(5417.827 1414.589)" fill="#12263f"/>
      <path id="Trazado_173664" data-name="Trazado 173664" d="M15.3-8.535q0,4.282-1.772,6.55A6.186,6.186,0,0,1,8.337.284,6.229,6.229,0,0,1,3.176-1.942a10.151,10.151,0,0,1-1.829-6.38v-3.8q0-4.324,1.793-6.564a6.232,6.232,0,0,1,5.168-2.24,6.238,6.238,0,0,1,5.161,2.219A10.12,10.12,0,0,1,15.3-12.335Zm-4.1-4.178a7.559,7.559,0,0,0-.7-3.74,2.372,2.372,0,0,0-2.19-1.171,2.33,2.33,0,0,0-2.134,1.114,7.074,7.074,0,0,0-.73,3.484V-8a7.935,7.935,0,0,0,.688,3.754,2.34,2.34,0,0,0,2.2,1.228A2.3,2.3,0,0,0,10.506-4.2,7.745,7.745,0,0,0,11.2-7.8Z" transform="translate(5627.85 1414.589)" fill="#12263f"/>
      <path id="Trazado_173665" data-name="Trazado 173665" d="M10.988-8.251A5.174,5.174,0,0,1,7.245-6.678,5.533,5.533,0,0,1,2.864-8.556a7.424,7.424,0,0,1-1.645-5.069,7.907,7.907,0,0,1,.886-3.722,6.5,6.5,0,0,1,2.474-2.637,6.864,6.864,0,0,1,3.573-.943,6.565,6.565,0,0,1,3.63,1.021,6.711,6.711,0,0,1,2.467,2.935,10.537,10.537,0,0,1,.893,4.381v1.517q0,5.161-2.566,8.11A9.7,9.7,0,0,1,5.3.184L4.3.2V-3.218L5.2-3.233Q10.548-3.474,10.988-8.251ZM8.251-9.811a2.866,2.866,0,0,0,1.708-.51,3.41,3.41,0,0,0,1.085-1.233v-1.687a5.634,5.634,0,0,0-.794-3.233,2.464,2.464,0,0,0-2.127-1.148A2.392,2.392,0,0,0,6.1-16.5,4.793,4.793,0,0,0,5.3-13.667,4.664,4.664,0,0,0,6.075-10.9,2.517,2.517,0,0,0,8.251-9.811Z" transform="translate(5706.547 1414.589)" fill="#12263f"/>
      <path id="Trazado_173666" data-name="Trazado 173666" d="M15.3-8.535q0,4.282-1.772,6.55A6.186,6.186,0,0,1,8.337.284,6.229,6.229,0,0,1,3.176-1.942a10.151,10.151,0,0,1-1.829-6.38v-3.8q0-4.324,1.793-6.564a6.232,6.232,0,0,1,5.168-2.24,6.238,6.238,0,0,1,5.161,2.219A10.12,10.12,0,0,1,15.3-12.335Zm-4.1-4.178a7.559,7.559,0,0,0-.7-3.74,2.372,2.372,0,0,0-2.19-1.171,2.33,2.33,0,0,0-2.134,1.114,7.074,7.074,0,0,0-.73,3.484V-8a7.935,7.935,0,0,0,.688,3.754,2.34,2.34,0,0,0,2.2,1.228A2.3,2.3,0,0,0,10.506-4.2,7.745,7.745,0,0,0,11.2-7.8Z" transform="translate(5775.867 1414.589)" fill="#12263f"/>
      <path id="Trazado_173667" data-name="Trazado 173667" d="M15.3-8.535q0,4.282-1.772,6.55A6.186,6.186,0,0,1,8.337.284,6.229,6.229,0,0,1,3.176-1.942a10.151,10.151,0,0,1-1.829-6.38v-3.8q0-4.324,1.793-6.564a6.232,6.232,0,0,1,5.168-2.24,6.238,6.238,0,0,1,5.161,2.219A10.12,10.12,0,0,1,15.3-12.335Zm-4.1-4.178a7.559,7.559,0,0,0-.7-3.74,2.372,2.372,0,0,0-2.19-1.171,2.33,2.33,0,0,0-2.134,1.114,7.074,7.074,0,0,0-.73,3.484V-8a7.935,7.935,0,0,0,.688,3.754,2.34,2.34,0,0,0,2.2,1.228A2.3,2.3,0,0,0,10.506-4.2,7.745,7.745,0,0,0,11.2-7.8Z" transform="translate(5851.302 1414.589)" fill="#12263f"/>
      <path id="Trazado_173668" data-name="Trazado 173668" d="M15.3-8.535q0,4.282-1.772,6.55A6.186,6.186,0,0,1,8.337.284,6.229,6.229,0,0,1,3.176-1.942a10.151,10.151,0,0,1-1.829-6.38v-3.8q0-4.324,1.793-6.564a6.232,6.232,0,0,1,5.168-2.24,6.238,6.238,0,0,1,5.161,2.219A10.12,10.12,0,0,1,15.3-12.335Zm-4.1-4.178a7.559,7.559,0,0,0-.7-3.74,2.372,2.372,0,0,0-2.19-1.171,2.33,2.33,0,0,0-2.134,1.114,7.074,7.074,0,0,0-.73,3.484V-8a7.935,7.935,0,0,0,.688,3.754,2.34,2.34,0,0,0,2.2,1.228A2.3,2.3,0,0,0,10.506-4.2,7.745,7.745,0,0,0,11.2-7.8Z" transform="translate(5931.702 1414.589)" fill="#12263f"/>
      <path id="Trazado_173669" data-name="Trazado 173669" d="M7.219,2.469V8.088A2.877,2.877,0,0,1,6.343,10.3a3.377,3.377,0,0,1-2.394.814,3.415,3.415,0,0,1-2.373-.791,2.828,2.828,0,0,1-.9-2.174V2.469H2.438V8.1a1.626,1.626,0,0,0,.4,1.222,1.541,1.541,0,0,0,1.11.384q1.482,0,1.506-1.559V2.469Zm7.043,5.42a3.839,3.839,0,0,1-.65,2.376,2.154,2.154,0,0,1-1.816.853,1.979,1.979,0,0,1-1.646-.791L10.072,11H8.549V2h1.693V5.229a1.929,1.929,0,0,1,1.541-.686A2.172,2.172,0,0,1,13.6,5.4a3.845,3.845,0,0,1,.659,2.4ZM12.568,7.76a2.536,2.536,0,0,0-.3-1.408,1.029,1.029,0,0,0-.908-.444,1.117,1.117,0,0,0-1.113.664v2.51a1.132,1.132,0,0,0,1.125.67,1.046,1.046,0,0,0,1.078-.811A4.2,4.2,0,0,0,12.568,7.76ZM17.092,11h-1.7V4.66h1.7Zm-1.8-7.98a.834.834,0,0,1,.255-.627,1.1,1.1,0,0,1,1.386,0,.829.829,0,0,1,.258.627.831.831,0,0,1-.261.633,1.086,1.086,0,0,1-1.377,0A.831.831,0,0,1,15.293,3.02Zm5.83,6.732a1.111,1.111,0,0,0,.762-.258.9.9,0,0,0,.3-.686h1.588a2.172,2.172,0,0,1-.352,1.181,2.32,2.32,0,0,1-.946.832,2.962,2.962,0,0,1-1.327.3,2.752,2.752,0,0,1-2.145-.864,3.42,3.42,0,0,1-.785-2.388V7.754A3.381,3.381,0,0,1,19,5.416a2.72,2.72,0,0,1,2.139-.873,2.667,2.667,0,0,1,1.907.677,2.4,2.4,0,0,1,.729,1.8H22.189a1.164,1.164,0,0,0-.3-.8,1.132,1.132,0,0,0-1.667.122,2.5,2.5,0,0,0-.3,1.4v.176a2.531,2.531,0,0,0,.3,1.408A1.033,1.033,0,0,0,21.123,9.752ZM28.418,11a1.88,1.88,0,0,1-.17-.568,2.049,2.049,0,0,1-1.6.686,2.251,2.251,0,0,1-1.544-.539,1.734,1.734,0,0,1-.612-1.359,1.792,1.792,0,0,1,.747-1.547A3.686,3.686,0,0,1,27.4,7.127h.779V6.764a1.045,1.045,0,0,0-.226-.7A.887.887,0,0,0,27.24,5.8,1.009,1.009,0,0,0,26.569,6a.7.7,0,0,0-.243.563H24.633a1.7,1.7,0,0,1,.34-1.02,2.246,2.246,0,0,1,.961-.735,3.5,3.5,0,0,1,1.395-.267,2.767,2.767,0,0,1,1.86.589,2.06,2.06,0,0,1,.688,1.655V9.535a3.031,3.031,0,0,0,.252,1.365V11Zm-1.4-1.178a1.458,1.458,0,0,0,.691-.167,1.1,1.1,0,0,0,.469-.448V8.117h-.633q-1.271,0-1.354.879l-.006.1a.678.678,0,0,0,.223.521A.865.865,0,0,0,27.018,9.822Zm6.8-.07a1.111,1.111,0,0,0,.762-.258.9.9,0,0,0,.3-.686h1.588a2.172,2.172,0,0,1-.352,1.181,2.32,2.32,0,0,1-.946.832,2.962,2.962,0,0,1-1.327.3,2.752,2.752,0,0,1-2.145-.864,3.42,3.42,0,0,1-.785-2.388V7.754a3.381,3.381,0,0,1,.779-2.338,2.72,2.72,0,0,1,2.139-.873,2.667,2.667,0,0,1,1.907.677,2.4,2.4,0,0,1,.729,1.8H34.881a1.164,1.164,0,0,0-.3-.8,1.132,1.132,0,0,0-1.667.122,2.5,2.5,0,0,0-.3,1.4v.176a2.531,2.531,0,0,0,.3,1.408A1.033,1.033,0,0,0,33.814,9.752ZM39.223,11h-1.7V4.66h1.7Zm-1.8-7.98a.834.834,0,0,1,.255-.627,1.1,1.1,0,0,1,1.386,0,.829.829,0,0,1,.258.627.831.831,0,0,1-.261.633,1.086,1.086,0,0,1-1.377,0A.831.831,0,0,1,37.424,3.02Zm2.93,4.752a3.76,3.76,0,0,1,.363-1.682,2.659,2.659,0,0,1,1.046-1.143,3.051,3.051,0,0,1,1.585-.4,2.887,2.887,0,0,1,2.095.785,3.151,3.151,0,0,1,.905,2.133l.012.434a3.314,3.314,0,0,1-.814,2.341,3.157,3.157,0,0,1-4.374,0,3.372,3.372,0,0,1-.817-2.391Zm1.693.12a2.37,2.37,0,0,0,.34,1.382,1.221,1.221,0,0,0,1.934.006,2.593,2.593,0,0,0,.346-1.511A2.346,2.346,0,0,0,44.32,6.4a1.124,1.124,0,0,0-.973-.487,1.105,1.105,0,0,0-.961.484A2.637,2.637,0,0,0,42.047,7.892ZM43.682,2h1.846L43.9,3.816H42.527Zm5.279,2.66.053.732a2.213,2.213,0,0,1,1.822-.85,1.84,1.84,0,0,1,1.5.592,2.761,2.761,0,0,1,.5,1.77V11H51.146V6.936a1.1,1.1,0,0,0-.234-.784,1.048,1.048,0,0,0-.779-.244,1.164,1.164,0,0,0-1.072.611V11H47.367V4.66Zm7.887,3.123a3.821,3.821,0,0,1,.665-2.361,2.158,2.158,0,0,1,1.819-.879,1.942,1.942,0,0,1,1.529.691V2h1.7v9H61.031l-.082-.674a1.993,1.993,0,0,1-1.629.791,2.152,2.152,0,0,1-1.8-.882A3.944,3.944,0,0,1,56.848,7.783Zm1.693.12a2.516,2.516,0,0,0,.311,1.371,1.011,1.011,0,0,0,.9.477,1.133,1.133,0,0,0,1.107-.665V6.573a1.116,1.116,0,0,0-1.1-.665Q58.541,5.908,58.541,7.9Zm8.25,3.214a3.112,3.112,0,0,1-2.271-.855,3.041,3.041,0,0,1-.876-2.279V7.818a3.83,3.83,0,0,1,.369-1.708A2.709,2.709,0,0,1,65.06,4.95,2.936,2.936,0,0,1,66.6,4.543a2.631,2.631,0,0,1,2.048.82A3.333,3.333,0,0,1,69.4,7.689v.691H65.361a1.573,1.573,0,0,0,.5,1,1.5,1.5,0,0,0,1.046.375,1.828,1.828,0,0,0,1.529-.709l.832.932a2.542,2.542,0,0,1-1.031.841A3.383,3.383,0,0,1,66.791,11.117ZM66.6,5.908a1.058,1.058,0,0,0-.817.341,1.768,1.768,0,0,0-.4.977h2.355V7.091a1.261,1.261,0,0,0-.3-.874A1.092,1.092,0,0,0,66.6,5.908ZM75.135,11h-1.7V2h1.7ZM80.2,11a1.88,1.88,0,0,1-.17-.568,2.049,2.049,0,0,1-1.6.686,2.251,2.251,0,0,1-1.544-.539,1.734,1.734,0,0,1-.612-1.359,1.792,1.792,0,0,1,.747-1.547,3.686,3.686,0,0,1,2.159-.545h.779V6.764a1.045,1.045,0,0,0-.226-.7.887.887,0,0,0-.712-.264A1.009,1.009,0,0,0,78.354,6a.7.7,0,0,0-.243.563H76.418a1.7,1.7,0,0,1,.34-1.02,2.246,2.246,0,0,1,.961-.735,3.5,3.5,0,0,1,1.395-.267,2.767,2.767,0,0,1,1.86.589,2.06,2.06,0,0,1,.688,1.655V9.535a3.031,3.031,0,0,0,.252,1.365V11ZM78.8,9.822a1.458,1.458,0,0,0,.691-.167,1.1,1.1,0,0,0,.469-.448V8.117H79.33q-1.271,0-1.354.879l-.006.1a.678.678,0,0,0,.223.521A.865.865,0,0,0,78.8,9.822ZM6.357,22.289a3.8,3.8,0,0,1-.665,2.347,2.132,2.132,0,0,1-1.8.882,1.975,1.975,0,0,1-1.553-.668v2.988H.65V19.06h1.57l.059.621a1.99,1.99,0,0,1,1.605-.738,2.147,2.147,0,0,1,1.822.867,3.905,3.905,0,0,1,.65,2.391ZM4.664,22.16a2.509,2.509,0,0,0-.313-1.369,1.02,1.02,0,0,0-.911-.482,1.108,1.108,0,0,0-1.1.611v2.6a1.127,1.127,0,0,0,1.107.629Q4.664,24.152,4.664,22.16ZM11.08,25.4a1.88,1.88,0,0,1-.17-.568,2.049,2.049,0,0,1-1.6.686,2.251,2.251,0,0,1-1.544-.539,1.734,1.734,0,0,1-.612-1.359A1.792,1.792,0,0,1,7.9,22.072a3.686,3.686,0,0,1,2.159-.545h.779v-.363a1.045,1.045,0,0,0-.226-.7A.887.887,0,0,0,9.9,20.2a1.009,1.009,0,0,0-.671.205.7.7,0,0,0-.243.563H7.295a1.7,1.7,0,0,1,.34-1.02A2.246,2.246,0,0,1,8.6,19.21a3.5,3.5,0,0,1,1.395-.267,2.767,2.767,0,0,1,1.86.589,2.06,2.06,0,0,1,.688,1.655v2.748a3.031,3.031,0,0,0,.252,1.365v.1Zm-1.4-1.178a1.458,1.458,0,0,0,.691-.167,1.1,1.1,0,0,0,.469-.448v-1.09h-.633q-1.271,0-1.354.879l-.006.1a.678.678,0,0,0,.223.521A.865.865,0,0,0,9.68,24.222ZM17.4,20.648a4.6,4.6,0,0,0-.609-.047,1.24,1.24,0,0,0-1.26.65V25.4H13.84V19.06h1.6l.047.756a1.569,1.569,0,0,1,1.412-.873,1.774,1.774,0,0,1,.527.076ZM20.537,17.5V19.06h1.084V20.3H20.537v3.164a.756.756,0,0,0,.135.5.677.677,0,0,0,.516.152,2.7,2.7,0,0,0,.5-.041v1.283a3.486,3.486,0,0,1-1.025.152,1.617,1.617,0,0,1-1.816-1.8V20.3h-.926V19.06h.926V17.5Zm3.814,7.9h-1.7V19.06h1.7Zm-1.8-7.98a.834.834,0,0,1,.255-.627,1.1,1.1,0,0,1,1.386,0,.895.895,0,0,1,0,1.26,1.086,1.086,0,0,1-1.377,0A.831.831,0,0,1,22.553,17.42Zm2.93,4.764a3.821,3.821,0,0,1,.665-2.361,2.158,2.158,0,0,1,1.819-.879,1.942,1.942,0,0,1,1.529.691V16.4h1.7v9H29.666l-.082-.674a1.993,1.993,0,0,1-1.629.791,2.152,2.152,0,0,1-1.8-.882A3.944,3.944,0,0,1,25.482,22.183Zm1.693.12a2.516,2.516,0,0,0,.311,1.371,1.011,1.011,0,0,0,.9.477,1.133,1.133,0,0,0,1.107-.665V20.973a1.116,1.116,0,0,0-1.1-.665Q27.176,20.308,27.176,22.3Zm9.006,3.1a1.88,1.88,0,0,1-.17-.568,2.049,2.049,0,0,1-1.6.686,2.251,2.251,0,0,1-1.544-.539,1.734,1.734,0,0,1-.612-1.359A1.792,1.792,0,0,1,33,22.072a3.686,3.686,0,0,1,2.159-.545h.779v-.363a1.045,1.045,0,0,0-.226-.7A.887.887,0,0,0,35,20.2a1.009,1.009,0,0,0-.671.205.7.7,0,0,0-.243.563H32.4a1.7,1.7,0,0,1,.34-1.02,2.246,2.246,0,0,1,.961-.735,3.5,3.5,0,0,1,1.395-.267,2.767,2.767,0,0,1,1.86.589,2.06,2.06,0,0,1,.688,1.655v2.748a3.031,3.031,0,0,0,.252,1.365v.1Zm-1.4-1.178a1.458,1.458,0,0,0,.691-.167,1.1,1.1,0,0,0,.469-.448v-1.09h-.633q-1.271,0-1.354.879l-.006.1a.678.678,0,0,0,.223.521A.865.865,0,0,0,34.781,24.222Zm10.066,1.295a3.112,3.112,0,0,1-2.271-.855,3.041,3.041,0,0,1-.876-2.279v-.164a3.83,3.83,0,0,1,.369-1.708,2.709,2.709,0,0,1,1.046-1.16,2.936,2.936,0,0,1,1.544-.407,2.631,2.631,0,0,1,2.048.82,3.333,3.333,0,0,1,.747,2.326v.691H43.418a1.573,1.573,0,0,0,.5,1,1.5,1.5,0,0,0,1.046.375,1.828,1.828,0,0,0,1.529-.709l.832.932a2.542,2.542,0,0,1-1.031.841A3.383,3.383,0,0,1,44.848,25.517Zm-.193-5.209a1.058,1.058,0,0,0-.817.341,1.768,1.768,0,0,0-.4.977h2.355v-.135a1.261,1.261,0,0,0-.3-.874A1.092,1.092,0,0,0,44.654,20.308Zm5.32-1.248.053.732a2.213,2.213,0,0,1,1.822-.85,1.84,1.84,0,0,1,1.5.592,2.761,2.761,0,0,1,.5,1.77v4.1H52.16V21.336a1.1,1.1,0,0,0-.234-.784,1.048,1.048,0,0,0-.779-.244,1.164,1.164,0,0,0-1.072.611V25.4H48.381V19.06Zm11.068,6.457a3.112,3.112,0,0,1-2.271-.855,3.041,3.041,0,0,1-.876-2.279v-.164a3.83,3.83,0,0,1,.369-1.708,2.709,2.709,0,0,1,1.046-1.16,2.936,2.936,0,0,1,1.544-.407,2.631,2.631,0,0,1,2.048.82,3.333,3.333,0,0,1,.747,2.326v.691H59.613a1.573,1.573,0,0,0,.5,1,1.5,1.5,0,0,0,1.046.375,1.828,1.828,0,0,0,1.529-.709l.832.932a2.542,2.542,0,0,1-1.031.841A3.383,3.383,0,0,1,61.043,25.517Zm-.193-5.209a1.058,1.058,0,0,0-.817.341,1.768,1.768,0,0,0-.4.977h2.355v-.135a1.261,1.261,0,0,0-.3-.874A1.092,1.092,0,0,0,60.85,20.308ZM66.4,25.4H64.7v-9h1.7ZM3.287,38.552a1.111,1.111,0,0,0,.762-.258.9.9,0,0,0,.3-.686H5.941a2.172,2.172,0,0,1-.352,1.181,2.32,2.32,0,0,1-.946.832,2.962,2.962,0,0,1-1.327.3,2.752,2.752,0,0,1-2.145-.864,3.42,3.42,0,0,1-.785-2.388v-.111a3.381,3.381,0,0,1,.779-2.338A2.72,2.72,0,0,1,3.3,33.343a2.667,2.667,0,0,1,1.907.677,2.4,2.4,0,0,1,.729,1.8H4.354a1.164,1.164,0,0,0-.3-.8,1.016,1.016,0,0,0-.773-.309,1.02,1.02,0,0,0-.894.431,2.5,2.5,0,0,0-.3,1.4v.176a2.531,2.531,0,0,0,.3,1.408A1.033,1.033,0,0,0,3.287,38.552ZM10.582,39.8a1.88,1.88,0,0,1-.17-.568,2.049,2.049,0,0,1-1.6.686,2.251,2.251,0,0,1-1.544-.539,1.734,1.734,0,0,1-.612-1.359A1.792,1.792,0,0,1,7.4,36.472a3.686,3.686,0,0,1,2.159-.545h.779v-.363a1.045,1.045,0,0,0-.226-.7A.887.887,0,0,0,9.4,34.6a1.009,1.009,0,0,0-.671.205.7.7,0,0,0-.243.563H6.8a1.7,1.7,0,0,1,.34-1.02A2.246,2.246,0,0,1,8.1,33.61a3.5,3.5,0,0,1,1.395-.267,2.767,2.767,0,0,1,1.86.589,2.06,2.06,0,0,1,.688,1.655v2.748a3.031,3.031,0,0,0,.252,1.365v.1Zm-1.4-1.178a1.458,1.458,0,0,0,.691-.167,1.1,1.1,0,0,0,.469-.448v-1.09H9.709q-1.271,0-1.354.879l-.006.1a.678.678,0,0,0,.223.521A.865.865,0,0,0,9.182,38.622Zm9.867-1.934a3.8,3.8,0,0,1-.665,2.347,2.132,2.132,0,0,1-1.8.882,1.975,1.975,0,0,1-1.553-.668v2.988H13.342V33.46h1.57l.059.621a1.99,1.99,0,0,1,1.605-.738,2.147,2.147,0,0,1,1.822.867,3.905,3.905,0,0,1,.65,2.391Zm-1.693-.129a2.509,2.509,0,0,0-.313-1.369,1.02,1.02,0,0,0-.911-.482,1.108,1.108,0,0,0-1.1.611v2.6a1.127,1.127,0,0,0,1.107.629Q17.355,38.552,17.355,36.56Zm4.57,3.24H20.232V33.46h1.693Zm-.5-8.912h1.846L21.65,32.7H20.273ZM25.412,31.9V33.46H26.5V34.7H25.412v3.164a.756.756,0,0,0,.135.5.677.677,0,0,0,.516.152,2.7,2.7,0,0,0,.5-.041v1.283a3.486,3.486,0,0,1-1.025.152,1.617,1.617,0,0,1-1.816-1.8V34.7h-.926V33.46h.926V31.9Zm5.824,7.254a2.124,2.124,0,0,1-1.734.762,2,2,0,0,1-1.556-.586,2.5,2.5,0,0,1-.548-1.717V33.46h1.693v4.1q0,.991.9.991a1.223,1.223,0,0,0,1.184-.6V33.46h1.7V39.8H31.283Zm4.705.645h-1.7v-9h1.7Zm1.131-3.229a3.76,3.76,0,0,1,.363-1.682,2.659,2.659,0,0,1,1.046-1.143,3.051,3.051,0,0,1,1.585-.4,2.887,2.887,0,0,1,2.095.785,3.151,3.151,0,0,1,.905,2.133l.012.434a3.314,3.314,0,0,1-.814,2.341,3.157,3.157,0,0,1-4.374,0,3.372,3.372,0,0,1-.817-2.391Zm1.693.12a2.37,2.37,0,0,0,.34,1.382,1.221,1.221,0,0,0,1.934.006,2.593,2.593,0,0,0,.346-1.511,2.346,2.346,0,0,0-.346-1.373,1.124,1.124,0,0,0-.973-.487,1.105,1.105,0,0,0-.961.484A2.637,2.637,0,0,0,38.766,36.692Z" transform="translate(5394.345 1448.386)" fill="#12263f"/>
      <line id="Línea_1542" data-name="Línea 1542" y2="218.842" transform="translate(5258.24 1450.245)" stroke="#12263f" stroke-width="2" stroke-dasharray="4"/>
      <line id="Línea_1543" data-name="Línea 1543" y2="27.474" transform="translate(5363.187 1450.245)" stroke="#12263f" stroke-width="2" stroke-dasharray="4"/>
      <line id="Línea_1544" data-name="Línea 1544" y2="71.564" transform="translate(5498.24 1450.245)" stroke="#12263f" stroke-width="2" stroke-dasharray="4"/>
      <line id="Línea_1545" data-name="Línea 1545" y2="136.634" transform="translate(5651.082 1450.245)" stroke="#12263f" stroke-width="2" stroke-dasharray="4"/>
      <line id="Línea_1546" data-name="Línea 1546" y2="184.281" transform="translate(5806.45 1450.245)" stroke="#12263f" stroke-width="2" stroke-dasharray="4"/>
      <line id="Línea_1547" data-name="Línea 1547" y2="218.842" transform="translate(5961.817 1450.245)" stroke="#12263f" stroke-width="2" stroke-dasharray="4"/>
      <line id="Línea_1548" data-name="Línea 1548" x2="83.033" transform="translate(5268.345 1475.943)" stroke="#12263f" stroke-miterlimit="10" stroke-width="2"/>
      <path id="Trazado_169001" data-name="Trazado 169001" d="M5351.254,1467.9l8.039,8.039-8.039,8.039" fill="#12263f"/>
      <path id="Trazado_169002" data-name="Trazado 169002" d="M5269.292,1467.9l-8.039,8.039,8.039,8.039" fill="#12263f"/>
      <line id="Línea_1549" data-name="Línea 1549" x2="83.033" transform="translate(5268.345 1521.81)" stroke="#12263f" stroke-miterlimit="10" stroke-width="2"/>
      <path id="Trazado_169003" data-name="Trazado 169003" d="M5269.292,1513.771l-8.039,8.039,8.039,8.039" fill="#12263f"/>
      <line id="Línea_1550" data-name="Línea 1550" x1="83.033" transform="translate(5405.254 1521.81)" stroke="#12263f" stroke-miterlimit="10" stroke-width="2"/>
      <path id="Trazado_169004" data-name="Trazado 169004" d="M5487.34,1513.771l8.039,8.039-8.039,8.039" fill="#12263f"/>
      <path id="Trazado_173671" data-name="Trazado 173671" d="M2.52-3.006V0H.762V-8.531H4.09a3.85,3.85,0,0,1,1.69.352,2.591,2.591,0,0,1,1.122,1,2.786,2.786,0,0,1,.393,1.474,2.45,2.45,0,0,1-.858,1.978,3.575,3.575,0,0,1-2.376.724Zm0-1.424H4.09a1.544,1.544,0,0,0,1.063-.328A1.193,1.193,0,0,0,5.52-5.7,1.407,1.407,0,0,0,5.15-6.709a1.379,1.379,0,0,0-1.02-.4H2.52Zm9.756,2.672H9.193L8.607,0H6.738L9.914-8.531h1.629L14.736,0H12.867ZM9.668-3.182H11.8L10.729-6.375Zm9.023.059h-1.4V0H15.533V-8.531H18.7a3.583,3.583,0,0,1,2.332.674,2.326,2.326,0,0,1,.82,1.9A2.625,2.625,0,0,1,21.478-4.5a2.578,2.578,0,0,1-1.146.929L22.178-.082V0H20.291Zm-1.4-1.424h1.418a1.452,1.452,0,0,0,1.025-.337,1.2,1.2,0,0,0,.363-.929,1.289,1.289,0,0,0-.343-.949A1.424,1.424,0,0,0,18.7-7.107H17.291ZM29.32-7.107H26.707V0H24.949V-7.107H22.371V-8.531H29.32ZM32.191,0H30.434V-8.531h1.758ZM33.82,0V-8.531h2.625a3.986,3.986,0,0,1,2.013.507,3.534,3.534,0,0,1,1.386,1.441,4.446,4.446,0,0,1,.5,2.124v.393a4.458,4.458,0,0,1-.489,2.115,3.5,3.5,0,0,1-1.38,1.436A4.016,4.016,0,0,1,36.463,0Zm1.758-7.107v5.7h.85A1.909,1.909,0,0,0,38-2.086a3.045,3.045,0,0,0,.557-1.928v-.451a3.093,3.093,0,0,0-.539-1.972,1.9,1.9,0,0,0-1.576-.671Zm10.734,5.35H43.23L42.645,0H40.775l3.176-8.531H45.58L48.773,0H46.9ZM43.705-3.182h2.133L44.766-6.375Z" transform="translate(5355.273 1535.563)" fill="#12263f"/>
      <line id="Línea_1551" data-name="Línea 1551" x2="141.748" transform="translate(5268.345 1558.087)" stroke="#12263f" stroke-miterlimit="10" stroke-width="2"/>
      <path id="Trazado_169005" data-name="Trazado 169005" d="M5269.292,1550.048l-8.039,8.039,8.039,8.039"/>
      <line id="Línea_1552" data-name="Línea 1552" x1="172.626" transform="translate(5466.345 1558.089)" stroke="#12263f" stroke-miterlimit="10" stroke-width="2"/>
      <path id="Trazado_169006" data-name="Trazado 169006" d="M5638.023,1550.048l8.039,8.039-8.039,8.039" fill="#12263f"/>
      <path id="Trazado_173672" data-name="Trazado 173672" d="M5.186-2.238A.9.9,0,0,0,4.834-3a4.611,4.611,0,0,0-1.266-.562,8.972,8.972,0,0,1-1.447-.583A2.365,2.365,0,0,1,.668-6.264,2.06,2.06,0,0,1,1.058-7.5a2.542,2.542,0,0,1,1.119-.847,4.212,4.212,0,0,1,1.638-.3,3.834,3.834,0,0,1,1.629.331,2.594,2.594,0,0,1,1.11.935,2.445,2.445,0,0,1,.4,1.371H5.191a1.15,1.15,0,0,0-.369-.911,1.517,1.517,0,0,0-1.037-.325,1.621,1.621,0,0,0-1,.272.859.859,0,0,0-.357.718.823.823,0,0,0,.419.7,4.733,4.733,0,0,0,1.233.527A5.329,5.329,0,0,1,6.264-3.914,2.229,2.229,0,0,1,6.949-2.25,2.053,2.053,0,0,1,6.111-.513a3.668,3.668,0,0,1-2.256.63,4.356,4.356,0,0,1-1.793-.36A2.837,2.837,0,0,1,.829-1.23,2.528,2.528,0,0,1,.4-2.684H2.168q0,1.412,1.688,1.412a1.642,1.642,0,0,0,.979-.255A.829.829,0,0,0,5.186-2.238ZM14.6-8.531v5.619A2.877,2.877,0,0,1,13.72-.7a3.377,3.377,0,0,1-2.394.814A3.415,3.415,0,0,1,8.953-.674a2.828,2.828,0,0,1-.9-2.174V-8.531H9.814V-2.9a1.626,1.626,0,0,0,.4,1.222,1.541,1.541,0,0,0,1.11.384q1.482,0,1.506-1.559V-8.531ZM16.037,0V-8.531h2.988a3.924,3.924,0,0,1,2.355.595,2.034,2.034,0,0,1,.8,1.743,1.927,1.927,0,0,1-.322,1.1,1.861,1.861,0,0,1-.9.7A1.8,1.8,0,0,1,22-3.727a1.957,1.957,0,0,1,.378,1.219,2.251,2.251,0,0,1-.785,1.863A3.535,3.535,0,0,1,19.354,0Zm1.758-3.715v2.3H19.3a1.453,1.453,0,0,0,.97-.3,1.015,1.015,0,0,0,.349-.817,1.071,1.071,0,0,0-1.213-1.189Zm0-1.242h1.3q1.33-.023,1.33-1.061a.98.98,0,0,0-.337-.835,1.772,1.772,0,0,0-1.063-.255h-1.23Zm7.658,1.951V0H23.7V-8.531h3.328a3.85,3.85,0,0,1,1.69.352,2.591,2.591,0,0,1,1.122,1,2.786,2.786,0,0,1,.393,1.474,2.45,2.45,0,0,1-.858,1.978,3.575,3.575,0,0,1-2.376.724Zm0-1.424h1.57a1.544,1.544,0,0,0,1.063-.328,1.193,1.193,0,0,0,.366-.937,1.407,1.407,0,0,0-.369-1.014,1.379,1.379,0,0,0-1.02-.4H25.453Zm9.756,2.672H32.127L31.541,0H29.672l3.176-8.531h1.629L37.67,0H35.8ZM32.6-3.182h2.133L33.662-6.375Zm9.023.059h-1.4V0H38.467V-8.531h3.17a3.583,3.583,0,0,1,2.332.674,2.326,2.326,0,0,1,.82,1.9A2.625,2.625,0,0,1,44.411-4.5a2.578,2.578,0,0,1-1.146.929L45.111-.082V0H43.225Zm-1.4-1.424h1.418a1.452,1.452,0,0,0,1.025-.337,1.2,1.2,0,0,0,.363-.929,1.289,1.289,0,0,0-.343-.949,1.424,1.424,0,0,0-1.052-.346H40.225ZM52.254-7.107H49.641V0H47.883V-7.107H45.3V-8.531h6.949ZM55.125,0H53.367V-8.531h1.758Zm1.629,0V-8.531h2.625a3.986,3.986,0,0,1,2.013.507,3.534,3.534,0,0,1,1.386,1.441,4.446,4.446,0,0,1,.5,2.124v.393a4.458,4.458,0,0,1-.489,2.115,3.5,3.5,0,0,1-1.38,1.436A4.016,4.016,0,0,1,59.4,0Zm1.758-7.107v5.7h.85a1.909,1.909,0,0,0,1.576-.674,3.045,3.045,0,0,0,.557-1.928v-.451a3.093,3.093,0,0,0-.539-1.972,1.9,1.9,0,0,0-1.576-.671Zm10.734,5.35H66.164L65.578,0H63.709l3.176-8.531h1.629L71.707,0H69.838ZM66.639-3.182h2.133L67.7-6.375Z" transform="translate(5403.273 1554.841)" fill="#12263f"/>
      <line id="Línea_1553" data-name="Línea 1553" x2="46.842" transform="translate(5268.345 1586.876)" stroke="#12263f" stroke-miterlimit="10" stroke-width="2"/>
      <path id="Trazado_169007" data-name="Trazado 169007" d="M5311.254,1578.838l8.039,8.039-8.039,8.039" fill="#12263f"/>
      <line id="Línea_1554" data-name="Línea 1554" x1="194.358" transform="translate(5444.613 1586.879)" stroke="#12263f" stroke-miterlimit="10" stroke-width="2"/>
      <path id="Trazado_169008" data-name="Trazado 169008" d="M5638.023,1578.838l8.039,8.039-8.039,8.039" fill="#12263f"/>
      <path id="Trazado_173673" data-name="Trazado 173673" d="M5.186-2.238A.9.9,0,0,0,4.834-3a4.611,4.611,0,0,0-1.266-.562,8.972,8.972,0,0,1-1.447-.583A2.365,2.365,0,0,1,.668-6.264,2.06,2.06,0,0,1,1.058-7.5a2.542,2.542,0,0,1,1.119-.847,4.212,4.212,0,0,1,1.638-.3,3.834,3.834,0,0,1,1.629.331,2.594,2.594,0,0,1,1.11.935,2.445,2.445,0,0,1,.4,1.371H5.191a1.15,1.15,0,0,0-.369-.911,1.517,1.517,0,0,0-1.037-.325,1.621,1.621,0,0,0-1,.272.859.859,0,0,0-.357.718.823.823,0,0,0,.419.7,4.733,4.733,0,0,0,1.233.527A5.329,5.329,0,0,1,6.264-3.914,2.229,2.229,0,0,1,6.949-2.25,2.053,2.053,0,0,1,6.111-.513a3.668,3.668,0,0,1-2.256.63,4.356,4.356,0,0,1-1.793-.36A2.837,2.837,0,0,1,.829-1.23,2.528,2.528,0,0,1,.4-2.684H2.168q0,1.412,1.688,1.412a1.642,1.642,0,0,0,.979-.255A.829.829,0,0,0,5.186-2.238ZM10.008,0H8.25V-8.531h1.758Zm6.053-2.238A.9.9,0,0,0,15.709-3a4.611,4.611,0,0,0-1.266-.562A8.972,8.972,0,0,1,13-4.148a2.365,2.365,0,0,1-1.453-2.115,2.06,2.06,0,0,1,.39-1.233,2.542,2.542,0,0,1,1.119-.847,4.212,4.212,0,0,1,1.638-.3,3.834,3.834,0,0,1,1.629.331,2.594,2.594,0,0,1,1.11.935,2.445,2.445,0,0,1,.4,1.371H16.066a1.15,1.15,0,0,0-.369-.911,1.517,1.517,0,0,0-1.037-.325,1.621,1.621,0,0,0-1,.272.859.859,0,0,0-.357.718.823.823,0,0,0,.419.7,4.733,4.733,0,0,0,1.233.527,5.329,5.329,0,0,1,2.186,1.119,2.229,2.229,0,0,1,.686,1.664,2.053,2.053,0,0,1-.838,1.737,3.668,3.668,0,0,1-2.256.63,4.356,4.356,0,0,1-1.793-.36A2.837,2.837,0,0,1,11.7-1.23a2.528,2.528,0,0,1-.425-1.453h1.764q0,1.412,1.688,1.412a1.642,1.642,0,0,0,.979-.255A.829.829,0,0,0,16.061-2.238Zm9.375-4.869H22.822V0H21.064V-7.107H18.486V-8.531h6.949Zm6.135,3.4H28.2v2.3h3.961V0H26.438V-8.531h5.707v1.424H28.2v2.033H31.57Zm3.914-4.822,2.191,6.188,2.18-6.187h2.309V0H40.4V-2.332l.176-4.025L38.273,0H37.066l-2.3-6.352.176,4.02V0H33.188V-8.531ZM48.621-1.758H45.539L44.953,0H43.084L46.26-8.531h1.629L51.082,0H49.213ZM46.014-3.182h2.133L47.074-6.375Zm13.67,1.424H56.6L56.016,0H54.146l3.176-8.531h1.629L62.145,0H60.275ZM57.076-3.182h2.133L58.137-6.375Zm9.023.059H64.7V0H62.941V-8.531h3.17a3.583,3.583,0,0,1,2.332.674,2.326,2.326,0,0,1,.82,1.9A2.625,2.625,0,0,1,68.886-4.5a2.578,2.578,0,0,1-1.146.929L69.586-.082V0H67.7ZM64.7-4.547h1.418a1.452,1.452,0,0,0,1.025-.337,1.2,1.2,0,0,0,.363-.929,1.289,1.289,0,0,0-.343-.949,1.424,1.424,0,0,0-1.052-.346H64.7Zm8.2-3.984,2.191,6.188,2.18-6.187h2.309V0H77.813V-2.332l.176-4.025L75.686,0H74.479l-2.3-6.352.176,4.02V0H70.6V-8.531ZM88.119-4.072a5.15,5.15,0,0,1-.445,2.209A3.354,3.354,0,0,1,86.4-.4a3.525,3.525,0,0,1-1.9.516,3.549,3.549,0,0,1-1.893-.51,3.387,3.387,0,0,1-1.289-1.456,5,5,0,0,1-.463-2.177v-.422a5.123,5.123,0,0,1,.454-2.218,3.381,3.381,0,0,1,1.283-1.471,3.53,3.53,0,0,1,1.9-.513,3.53,3.53,0,0,1,1.9.513,3.381,3.381,0,0,1,1.283,1.471,5.109,5.109,0,0,1,.454,2.212Zm-1.781-.387a3.59,3.59,0,0,0-.48-2.039,1.566,1.566,0,0,0-1.371-.7,1.566,1.566,0,0,0-1.365.688,3.549,3.549,0,0,0-.486,2.019v.416a3.635,3.635,0,0,0,.48,2.027,1.562,1.562,0,0,0,1.383.721,1.548,1.548,0,0,0,1.359-.694,3.614,3.614,0,0,0,.48-2.024ZM96.334,0H94.576L91.154-5.613V0H89.4V-8.531h1.758l3.428,5.625V-8.531h1.752Zm3.4,0H97.98V-8.531h1.758Zm3.492-1.412h4.3V0h-6.5V-1.031l4.219-6.076h-4.213V-8.531h6.4v1.008Zm10.3-.346h-3.082L109.863,0h-1.869l3.176-8.531H112.8L115.992,0h-1.869Zm-2.607-1.424h2.133l-1.072-3.193ZM116.789,0V-8.531h2.625a3.986,3.986,0,0,1,2.013.507,3.534,3.534,0,0,1,1.386,1.441,4.446,4.446,0,0,1,.5,2.124v.393a4.458,4.458,0,0,1-.489,2.115,3.5,3.5,0,0,1-1.38,1.436,4.016,4.016,0,0,1-2.01.516Zm1.758-7.107v5.7h.85a1.909,1.909,0,0,0,1.576-.674,3.045,3.045,0,0,0,.557-1.928v-.451a3.093,3.093,0,0,0-.539-1.972,1.9,1.9,0,0,0-1.576-.671ZM131.6-4.072a5.15,5.15,0,0,1-.445,2.209A3.354,3.354,0,0,1,129.876-.4a3.525,3.525,0,0,1-1.9.516,3.549,3.549,0,0,1-1.893-.51,3.387,3.387,0,0,1-1.289-1.456,5,5,0,0,1-.463-2.177v-.422a5.123,5.123,0,0,1,.454-2.218,3.381,3.381,0,0,1,1.283-1.471,3.53,3.53,0,0,1,1.9-.513,3.53,3.53,0,0,1,1.9.513,3.381,3.381,0,0,1,1.283,1.471,5.109,5.109,0,0,1,.454,2.212Zm-1.781-.387a3.59,3.59,0,0,0-.48-2.039,1.566,1.566,0,0,0-1.371-.7,1.566,1.566,0,0,0-1.365.688,3.549,3.549,0,0,0-.486,2.019v.416a3.635,3.635,0,0,0,.48,2.027,1.562,1.562,0,0,0,1.383.721,1.548,1.548,0,0,0,1.359-.694,3.614,3.614,0,0,0,.48-2.024Z" transform="translate(5323.273 1583.63)" fill="#12263f"/>
      <line id="Línea_1555" data-name="Línea 1555" x2="90.947" transform="translate(5268.345 1634.522)" stroke="#12263f" stroke-miterlimit="10" stroke-width="2"/>
      <path id="Trazado_169009" data-name="Trazado 169009" d="M5351.254,1626.483l8.039,8.039-8.039,8.039" fill="#12263f"/>
      <line id="Línea_1556" data-name="Línea 1556" x1="367.842" transform="translate(5429.398 1634.526)" stroke="#12263f" stroke-miterlimit="10" stroke-width="2"/>
      <path id="Trazado_169010" data-name="Trazado 169010" d="M5793.22,1626.483l8.039,8.039-8.039,8.039" fill="#12263f"/>
      <path id="Trazado_173674" data-name="Trazado 173674" d="M7.7,0H5.941L2.52-5.613V0H.762V-8.531H2.52L5.947-2.906V-8.531H7.7Zm6.457-1.758H11.074L10.488,0H8.619l3.176-8.531h1.629L16.617,0H14.748ZM11.549-3.182h2.133L12.609-6.375ZM24.352,0H22.594L19.172-5.613V0H17.414V-8.531h1.758L22.6-2.906V-8.531h1.752Zm1.535,0V-8.531h2.625a3.986,3.986,0,0,1,2.013.507A3.534,3.534,0,0,1,31.91-6.583a4.446,4.446,0,0,1,.5,2.124v.393a4.458,4.458,0,0,1-.489,2.115,3.5,3.5,0,0,1-1.38,1.436A4.016,4.016,0,0,1,28.529,0Zm1.758-7.107v5.7h.85a1.909,1.909,0,0,0,1.576-.674,3.045,3.045,0,0,0,.557-1.928v-.451a3.093,3.093,0,0,0-.539-1.972,1.9,1.9,0,0,0-1.576-.671ZM35.555,0H33.8V-8.531h1.758Zm8.566,0H42.363L38.941-5.613V0H37.184V-8.531h1.758l3.428,5.625V-8.531h1.752Zm6.457-1.758H47.5L46.91,0H45.041l3.176-8.531h1.629L53.039,0H51.17ZM47.971-3.182H50.1L49.031-6.375Z" transform="translate(5373.273 1631.276)" fill="#12263f"/>
      <path id="Trazado_173670" data-name="Trazado 173670" d="M7.7,0H5.941L2.52-5.613V0H.762V-8.531H2.52L5.947-2.906V-8.531H7.7Zm1.16-3.229A3.76,3.76,0,0,1,9.223-4.91a2.659,2.659,0,0,1,1.046-1.143,3.051,3.051,0,0,1,1.585-.4,2.887,2.887,0,0,1,2.095.785,3.151,3.151,0,0,1,.905,2.133l.012.434a3.314,3.314,0,0,1-.814,2.341,2.831,2.831,0,0,1-2.186.882A2.845,2.845,0,0,1,9.677-.762a3.372,3.372,0,0,1-.817-2.391Zm1.693.12a2.37,2.37,0,0,0,.34,1.382,1.121,1.121,0,0,0,.973.478,1.124,1.124,0,0,0,.961-.472,2.593,2.593,0,0,0,.346-1.511A2.346,2.346,0,0,0,12.826-4.6a1.124,1.124,0,0,0-.973-.487,1.105,1.105,0,0,0-.961.484A2.637,2.637,0,0,0,10.553-3.108ZM16-.832a.852.852,0,0,1,.272-.656.967.967,0,0,1,.683-.252.975.975,0,0,1,.688.252.852.852,0,0,1,.272.656.841.841,0,0,1-.27.647.979.979,0,0,1-.691.249.971.971,0,0,1-.686-.249A.841.841,0,0,1,16-.832Zm13.2-2.01A3.019,3.019,0,0,1,28.175-.674a3.57,3.57,0,0,1-2.417.791,3.21,3.21,0,0,1-2.581-1.1,4.529,4.529,0,0,1-.94-3.032v-.521a5.114,5.114,0,0,1,.434-2.168,3.249,3.249,0,0,1,1.239-1.438,3.471,3.471,0,0,1,1.872-.5,3.478,3.478,0,0,1,2.379.791A3.244,3.244,0,0,1,29.2-5.637H27.445a1.782,1.782,0,0,0-.46-1.2,1.7,1.7,0,0,0-1.2-.372,1.494,1.494,0,0,0-1.315.63,3.53,3.53,0,0,0-.448,1.954v.645a3.778,3.778,0,0,0,.419,2.021,1.466,1.466,0,0,0,1.321.639,1.735,1.735,0,0,0,1.216-.372,1.681,1.681,0,0,0,.46-1.151ZM33.908,0a1.88,1.88,0,0,1-.17-.568,2.049,2.049,0,0,1-1.6.686,2.251,2.251,0,0,1-1.544-.539,1.734,1.734,0,0,1-.612-1.359,1.792,1.792,0,0,1,.747-1.547,3.686,3.686,0,0,1,2.159-.545h.779v-.363a1.045,1.045,0,0,0-.226-.7A.887.887,0,0,0,32.73-5.2,1.009,1.009,0,0,0,32.06-5a.7.7,0,0,0-.243.563H30.123a1.7,1.7,0,0,1,.34-1.02,2.246,2.246,0,0,1,.961-.735,3.5,3.5,0,0,1,1.395-.267,2.767,2.767,0,0,1,1.86.589,2.06,2.06,0,0,1,.688,1.655v2.748A3.031,3.031,0,0,0,35.619-.1V0Zm-1.4-1.178a1.458,1.458,0,0,0,.691-.167,1.1,1.1,0,0,0,.469-.448v-1.09h-.633q-1.271,0-1.354.879l-.006.1a.678.678,0,0,0,.223.521A.865.865,0,0,0,32.508-1.178Zm9.867-1.934A3.8,3.8,0,0,1,41.71-.765a2.132,2.132,0,0,1-1.8.882,1.975,1.975,0,0,1-1.553-.668V2.438H36.668V-6.34h1.57l.059.621A1.99,1.99,0,0,1,39.9-6.457a2.147,2.147,0,0,1,1.822.867,3.905,3.905,0,0,1,.65,2.391ZM40.682-3.24a2.509,2.509,0,0,0-.313-1.369,1.02,1.02,0,0,0-.911-.482,1.108,1.108,0,0,0-1.1.611v2.6a1.127,1.127,0,0,0,1.107.629Q40.682-1.248,40.682-3.24ZM45.211,0h-1.7V-6.34h1.7Zm-1.8-7.98a.834.834,0,0,1,.255-.627.958.958,0,0,1,.694-.246.96.96,0,0,1,.691.246.829.829,0,0,1,.258.627.831.831,0,0,1-.261.633.962.962,0,0,1-.688.246.962.962,0,0,1-.688-.246A.831.831,0,0,1,43.412-7.98Zm5.221.082V-6.34h1.084V-5.1H48.633v3.164a.756.756,0,0,0,.135.5.677.677,0,0,0,.516.152,2.7,2.7,0,0,0,.5-.041V-.035a3.486,3.486,0,0,1-1.025.152,1.617,1.617,0,0,1-1.816-1.8V-5.1h-.926V-6.34h.926V-7.9ZM54.457-.645a2.124,2.124,0,0,1-1.734.762,2,2,0,0,1-1.556-.586,2.5,2.5,0,0,1-.548-1.717V-6.34h1.693v4.1q0,.991.9.991a1.223,1.223,0,0,0,1.184-.6V-6.34h1.7V0H54.5ZM59.162,0h-1.7V-9h1.7Zm1.131-3.229a3.76,3.76,0,0,1,.363-1.682A2.659,2.659,0,0,1,61.7-6.053a3.051,3.051,0,0,1,1.585-.4,2.887,2.887,0,0,1,2.095.785,3.151,3.151,0,0,1,.905,2.133l.012.434a3.314,3.314,0,0,1-.814,2.341A2.831,2.831,0,0,1,63.3.117,2.845,2.845,0,0,1,61.11-.762a3.372,3.372,0,0,1-.817-2.391Zm1.693.12a2.37,2.37,0,0,0,.34,1.382,1.121,1.121,0,0,0,.973.478,1.124,1.124,0,0,0,.961-.472,2.593,2.593,0,0,0,.346-1.511A2.346,2.346,0,0,0,64.26-4.6a1.124,1.124,0,0,0-.973-.487,1.105,1.105,0,0,0-.961.484A2.637,2.637,0,0,0,61.986-3.108Z" transform="translate(5274.24 1503.297)" fill="#12263f"/>
      <path id="Trazado_173648" data-name="Trazado 173648" d="M.762,0V-8.531H3.387A3.986,3.986,0,0,1,5.4-8.024,3.534,3.534,0,0,1,6.785-6.583a4.446,4.446,0,0,1,.5,2.124v.393a4.458,4.458,0,0,1-.489,2.115A3.5,3.5,0,0,1,5.414-.516,4.016,4.016,0,0,1,3.4,0ZM2.52-7.107v5.7h.85a1.909,1.909,0,0,0,1.576-.674A3.045,3.045,0,0,0,5.5-4.014v-.451a3.093,3.093,0,0,0-.539-1.972,1.9,1.9,0,0,0-1.576-.671ZM10.43,0H8.672V-8.531H10.43Zm8.379-1.078A3.051,3.051,0,0,1,17.467-.2a5.619,5.619,0,0,1-1.922.313A3.807,3.807,0,0,1,13.6-.366a3.224,3.224,0,0,1-1.289-1.4,4.939,4.939,0,0,1-.466-2.162v-.58a5.245,5.245,0,0,1,.431-2.212,3.186,3.186,0,0,1,1.242-1.43,3.578,3.578,0,0,1,1.9-.5,3.563,3.563,0,0,1,2.373.724,3.092,3.092,0,0,1,1.014,2.106H17.1a1.7,1.7,0,0,0-.519-1.072,1.656,1.656,0,0,0-1.1-.34,1.559,1.559,0,0,0-1.365.674,3.543,3.543,0,0,0-.475,2v.545a3.373,3.373,0,0,0,.51,2.027,1.746,1.746,0,0,0,1.494.686,1.95,1.95,0,0,0,1.412-.422V-3.187h-1.6V-4.482h3.357ZM22.1,0H20.344V-8.531H22.1Zm7.881-7.107H27.369V0H25.611V-7.107H23.033V-8.531h6.949Zm7.846,3.035a5.15,5.15,0,0,1-.445,2.209A3.354,3.354,0,0,1,36.108-.4a3.525,3.525,0,0,1-1.9.516,3.549,3.549,0,0,1-1.893-.51,3.387,3.387,0,0,1-1.289-1.456,5,5,0,0,1-.463-2.177v-.422a5.123,5.123,0,0,1,.454-2.218A3.381,3.381,0,0,1,32.3-8.136a3.53,3.53,0,0,1,1.9-.513,3.53,3.53,0,0,1,1.9.513,3.381,3.381,0,0,1,1.283,1.471,5.109,5.109,0,0,1,.454,2.212Zm-1.781-.387a3.59,3.59,0,0,0-.48-2.039A1.566,1.566,0,0,0,34.2-7.2a1.566,1.566,0,0,0-1.365.688,3.549,3.549,0,0,0-.486,2.019v.416a3.635,3.635,0,0,0,.48,2.027,1.562,1.562,0,0,0,1.383.721,1.548,1.548,0,0,0,1.359-.694,3.614,3.614,0,0,0,.48-2.024Zm7.482,2.221A.9.9,0,0,0,43.178-3a4.611,4.611,0,0,0-1.266-.562,8.972,8.972,0,0,1-1.447-.583,2.365,2.365,0,0,1-1.453-2.115A2.06,2.06,0,0,1,39.4-7.5a2.542,2.542,0,0,1,1.119-.847,4.212,4.212,0,0,1,1.638-.3,3.834,3.834,0,0,1,1.629.331,2.594,2.594,0,0,1,1.11.935,2.445,2.445,0,0,1,.4,1.371H43.535a1.15,1.15,0,0,0-.369-.911,1.517,1.517,0,0,0-1.037-.325,1.621,1.621,0,0,0-1,.272.859.859,0,0,0-.357.718.823.823,0,0,0,.419.7,4.733,4.733,0,0,0,1.233.527,5.329,5.329,0,0,1,2.186,1.119,2.229,2.229,0,0,1,.686,1.664,2.053,2.053,0,0,1-.838,1.737A3.668,3.668,0,0,1,42.2.117a4.356,4.356,0,0,1-1.793-.36,2.837,2.837,0,0,1-1.233-.987,2.528,2.528,0,0,1-.425-1.453h1.764q0,1.412,1.688,1.412a1.642,1.642,0,0,0,.979-.255A.829.829,0,0,0,43.529-2.238ZM49.471,0V-8.531H52.1a3.986,3.986,0,0,1,2.013.507,3.534,3.534,0,0,1,1.386,1.441,4.446,4.446,0,0,1,.5,2.124v.393A4.458,4.458,0,0,1,55.5-1.951a3.5,3.5,0,0,1-1.38,1.436A4.016,4.016,0,0,1,52.113,0Zm1.758-7.107v5.7h.85a1.909,1.909,0,0,0,1.576-.674,3.045,3.045,0,0,0,.557-1.928v-.451a3.093,3.093,0,0,0-.539-1.972A1.9,1.9,0,0,0,52.1-7.107ZM62.4-3.709H59.027v2.3h3.961V0H57.27V-8.531h5.707v1.424H59.027v2.033H62.4Zm11.3.867A3.019,3.019,0,0,1,72.688-.674a3.57,3.57,0,0,1-2.417.791,3.21,3.21,0,0,1-2.581-1.1,4.529,4.529,0,0,1-.94-3.032v-.521a5.114,5.114,0,0,1,.434-2.168,3.249,3.249,0,0,1,1.239-1.438,3.471,3.471,0,0,1,1.872-.5,3.478,3.478,0,0,1,2.379.791,3.244,3.244,0,0,1,1.043,2.221H71.959a1.782,1.782,0,0,0-.46-1.2,1.7,1.7,0,0,0-1.2-.372,1.494,1.494,0,0,0-1.315.63,3.53,3.53,0,0,0-.448,1.954v.645a3.778,3.778,0,0,0,.419,2.021,1.466,1.466,0,0,0,1.321.639,1.735,1.735,0,0,0,1.216-.372,1.681,1.681,0,0,0,.46-1.151Zm5.971,1.084H76.594L76.008,0H74.139l3.176-8.531h1.629L82.137,0H80.268ZM77.068-3.182H79.2L78.129-6.375ZM82.934,0V-8.531h2.625a3.986,3.986,0,0,1,2.013.507,3.534,3.534,0,0,1,1.386,1.441,4.446,4.446,0,0,1,.5,2.124v.393a4.458,4.458,0,0,1-.489,2.115,3.5,3.5,0,0,1-1.38,1.436A4.016,4.016,0,0,1,85.576,0Zm1.758-7.107v5.7h.85a1.909,1.909,0,0,0,1.576-.674,3.045,3.045,0,0,0,.557-1.928v-.451a3.093,3.093,0,0,0-.539-1.972,1.9,1.9,0,0,0-1.576-.671Zm10.734,5.35H92.344L91.758,0H89.889l3.176-8.531h1.629L97.887,0H96.018ZM92.818-3.182h2.133L93.879-6.375Zm10.611.176V0h-1.758V-8.531H105a3.85,3.85,0,0,1,1.69.352,2.591,2.591,0,0,1,1.122,1,2.786,2.786,0,0,1,.393,1.474,2.45,2.45,0,0,1-.858,1.978,3.575,3.575,0,0,1-2.376.724Zm0-1.424H105a1.544,1.544,0,0,0,1.063-.328,1.193,1.193,0,0,0,.366-.937,1.407,1.407,0,0,0-.369-1.014,1.379,1.379,0,0,0-1.02-.4H103.43Zm9.756,2.672H110.1L109.518,0h-1.869l3.176-8.531h1.629L115.646,0h-1.869Zm-2.607-1.424h2.133l-1.072-3.193Zm9.023.059h-1.4V0h-1.758V-8.531h3.17a3.583,3.583,0,0,1,2.332.674,2.326,2.326,0,0,1,.82,1.9,2.625,2.625,0,0,1-.378,1.456,2.578,2.578,0,0,1-1.146.929l1.846,3.486V0H121.2Zm-1.4-1.424h1.418a1.452,1.452,0,0,0,1.025-.337,1.2,1.2,0,0,0,.363-.929,1.289,1.289,0,0,0-.343-.949,1.424,1.424,0,0,0-1.052-.346H118.2ZM130.23-7.107h-2.613V0h-1.758V-7.107h-2.578V-8.531h6.949ZM133.1,0h-1.758V-8.531H133.1Zm1.629,0V-8.531h2.625a3.986,3.986,0,0,1,2.013.507,3.534,3.534,0,0,1,1.386,1.441,4.446,4.446,0,0,1,.5,2.124v.393a4.458,4.458,0,0,1-.489,2.115,3.5,3.5,0,0,1-1.38,1.436,4.016,4.016,0,0,1-2.01.516Zm1.758-7.107v5.7h.85a1.909,1.909,0,0,0,1.576-.674,3.045,3.045,0,0,0,.557-1.928v-.451a3.093,3.093,0,0,0-.539-1.972,1.9,1.9,0,0,0-1.576-.671Zm10.734,5.35h-3.082L143.555,0h-1.869l3.176-8.531h1.629L149.684,0h-1.869Zm-2.607-1.424h2.133l-1.072-3.193Z" transform="translate(5269.292 1308.48)" fill="#12263f"/>
      <path id="Trazado_173647" data-name="Trazado 173647" d="M7.459-2.842A3.019,3.019,0,0,1,6.442-.674,3.57,3.57,0,0,1,4.025.117a3.21,3.21,0,0,1-2.581-1.1A4.529,4.529,0,0,1,.5-4.02v-.521A5.114,5.114,0,0,1,.938-6.709,3.249,3.249,0,0,1,2.177-8.147a3.471,3.471,0,0,1,1.872-.5,3.478,3.478,0,0,1,2.379.791A3.244,3.244,0,0,1,7.471-5.637H5.713a1.782,1.782,0,0,0-.46-1.2,1.7,1.7,0,0,0-1.2-.372,1.494,1.494,0,0,0-1.315.63,3.53,3.53,0,0,0-.448,1.954v.645A3.778,3.778,0,0,0,2.7-1.957a1.466,1.466,0,0,0,1.321.639A1.735,1.735,0,0,0,5.241-1.69,1.681,1.681,0,0,0,5.7-2.842Zm.779-.387A3.76,3.76,0,0,1,8.6-4.91,2.659,2.659,0,0,1,9.647-6.053a3.051,3.051,0,0,1,1.585-.4,2.887,2.887,0,0,1,2.095.785,3.151,3.151,0,0,1,.905,2.133l.012.434A3.314,3.314,0,0,1,13.43-.765a2.831,2.831,0,0,1-2.186.882A2.845,2.845,0,0,1,9.056-.762a3.372,3.372,0,0,1-.817-2.391Zm1.693.12a2.37,2.37,0,0,0,.34,1.382,1.121,1.121,0,0,0,.973.478,1.124,1.124,0,0,0,.961-.472,2.593,2.593,0,0,0,.346-1.511A2.346,2.346,0,0,0,12.205-4.6a1.124,1.124,0,0,0-.973-.487,1.105,1.105,0,0,0-.961.484A2.637,2.637,0,0,0,9.932-3.108Zm5.092-.108a3.821,3.821,0,0,1,.665-2.361,2.158,2.158,0,0,1,1.819-.879,1.942,1.942,0,0,1,1.529.691V-9h1.7V0H19.207l-.082-.674A1.993,1.993,0,0,1,17.5.117a2.152,2.152,0,0,1-1.8-.882A3.944,3.944,0,0,1,15.023-3.217Zm1.693.12a2.516,2.516,0,0,0,.311,1.371,1.011,1.011,0,0,0,.9.477,1.133,1.133,0,0,0,1.107-.665V-4.427a1.116,1.116,0,0,0-1.1-.665Q16.717-5.092,16.717-3.1ZM23.836,0h-1.7V-6.34h1.7Zm-1.8-7.98a.834.834,0,0,1,.255-.627.958.958,0,0,1,.694-.246.96.96,0,0,1,.691.246.829.829,0,0,1,.258.627.831.831,0,0,1-.261.633.962.962,0,0,1-.688.246.962.962,0,0,1-.688-.246A.831.831,0,0,1,22.037-7.98ZM25.641,0V-5.1H24.7V-6.34h.943v-.293a2.378,2.378,0,0,1,.735-1.843,2.959,2.959,0,0,1,2.042-.647,6.773,6.773,0,0,1,1.922.346l-.246,1.4A7.5,7.5,0,0,0,29.2-7.6a4.376,4.376,0,0,0-.68-.05q-1.184,0-1.184,1.049v.258h1.248V-5.1H27.34V0Zm5.49,0h-1.7V-6.34h1.7Zm4.037-1.248a1.111,1.111,0,0,0,.762-.258.9.9,0,0,0,.3-.686h1.588a2.172,2.172,0,0,1-.352,1.181,2.32,2.32,0,0,1-.946.832,2.962,2.962,0,0,1-1.327.3,2.752,2.752,0,0,1-2.145-.864,3.42,3.42,0,0,1-.785-2.388v-.111a3.381,3.381,0,0,1,.779-2.338,2.72,2.72,0,0,1,2.139-.873,2.667,2.667,0,0,1,1.907.677,2.4,2.4,0,0,1,.729,1.8H36.234a1.164,1.164,0,0,0-.3-.8,1.016,1.016,0,0,0-.773-.309,1.02,1.02,0,0,0-.894.431,2.5,2.5,0,0,0-.3,1.4v.176a2.531,2.531,0,0,0,.3,1.408A1.033,1.033,0,0,0,35.168-1.248ZM42.463,0a1.88,1.88,0,0,1-.17-.568,2.049,2.049,0,0,1-1.6.686,2.251,2.251,0,0,1-1.544-.539,1.734,1.734,0,0,1-.612-1.359,1.792,1.792,0,0,1,.747-1.547,3.686,3.686,0,0,1,2.159-.545h.779v-.363a1.045,1.045,0,0,0-.226-.7.887.887,0,0,0-.712-.264A1.009,1.009,0,0,0,40.614-5a.7.7,0,0,0-.243.563H38.678a1.7,1.7,0,0,1,.34-1.02,2.246,2.246,0,0,1,.961-.735,3.5,3.5,0,0,1,1.395-.267,2.767,2.767,0,0,1,1.86.589,2.06,2.06,0,0,1,.688,1.655v2.748A3.031,3.031,0,0,0,44.174-.1V0Zm-1.4-1.178a1.458,1.458,0,0,0,.691-.167,1.1,1.1,0,0,0,.469-.448v-1.09H41.59q-1.271,0-1.354.879l-.006.1a.678.678,0,0,0,.223.521A.865.865,0,0,0,41.063-1.178Zm6.8-.07a1.111,1.111,0,0,0,.762-.258.9.9,0,0,0,.3-.686h1.588a2.172,2.172,0,0,1-.352,1.181,2.32,2.32,0,0,1-.946.832,2.962,2.962,0,0,1-1.327.3,2.752,2.752,0,0,1-2.145-.864,3.42,3.42,0,0,1-.785-2.388v-.111a3.381,3.381,0,0,1,.779-2.338,2.72,2.72,0,0,1,2.139-.873,2.667,2.667,0,0,1,1.907.677,2.4,2.4,0,0,1,.729,1.8H48.926a1.164,1.164,0,0,0-.3-.8,1.016,1.016,0,0,0-.773-.309,1.02,1.02,0,0,0-.894.431,2.5,2.5,0,0,0-.3,1.4v.176a2.531,2.531,0,0,0,.3,1.408A1.033,1.033,0,0,0,47.859-1.248ZM53.268,0h-1.7V-6.34h1.7Zm-1.8-7.98a.834.834,0,0,1,.255-.627.958.958,0,0,1,.694-.246.96.96,0,0,1,.691.246.829.829,0,0,1,.258.627.831.831,0,0,1-.261.633.962.962,0,0,1-.688.246.962.962,0,0,1-.688-.246A.831.831,0,0,1,51.469-7.98ZM54.4-3.229a3.76,3.76,0,0,1,.363-1.682,2.659,2.659,0,0,1,1.046-1.143,3.051,3.051,0,0,1,1.585-.4,2.887,2.887,0,0,1,2.095.785,3.151,3.151,0,0,1,.905,2.133l.012.434A3.314,3.314,0,0,1,59.59-.765,2.831,2.831,0,0,1,57.4.117a2.845,2.845,0,0,1-2.188-.879A3.372,3.372,0,0,1,54.4-3.152Zm1.693.12a2.37,2.37,0,0,0,.34,1.382,1.121,1.121,0,0,0,.973.478,1.124,1.124,0,0,0,.961-.472,2.593,2.593,0,0,0,.346-1.511A2.346,2.346,0,0,0,58.365-4.6a1.124,1.124,0,0,0-.973-.487,1.105,1.105,0,0,0-.961.484A2.637,2.637,0,0,0,56.092-3.108ZM57.727-9h1.846L57.949-7.184H56.572Zm5.279,2.66.053.732a2.213,2.213,0,0,1,1.822-.85,1.84,1.84,0,0,1,1.5.592,2.761,2.761,0,0,1,.5,1.77V0H65.191V-4.064a1.1,1.1,0,0,0-.234-.784,1.048,1.048,0,0,0-.779-.244,1.164,1.164,0,0,0-1.072.611V0H61.412V-6.34ZM74.449-2.971h-3.3V-4.336h3.3Zm9.592-.738H80.666v2.3h3.961V0H78.908V-8.531h5.707v1.424H80.666v2.033h3.375Zm3.3-2.631V.346a2.268,2.268,0,0,1-.557,1.632,2.116,2.116,0,0,1-1.605.583,3.443,3.443,0,0,1-.838-.1V1.119a3.179,3.179,0,0,0,.533.053q.768,0,.768-.814v-6.7ZM85.506-7.98a.834.834,0,0,1,.255-.627.958.958,0,0,1,.694-.246.958.958,0,0,1,.694.246.834.834,0,0,1,.255.627.831.831,0,0,1-.261.633.962.962,0,0,1-.688.246.962.962,0,0,1-.688-.246A.831.831,0,0,1,85.506-7.98Zm6.076,8.1a3.112,3.112,0,0,1-2.271-.855,3.041,3.041,0,0,1-.876-2.279v-.164A3.83,3.83,0,0,1,88.8-4.89a2.709,2.709,0,0,1,1.046-1.16,2.936,2.936,0,0,1,1.544-.407,2.631,2.631,0,0,1,2.048.82,3.333,3.333,0,0,1,.747,2.326v.691H90.152a1.573,1.573,0,0,0,.5,1,1.5,1.5,0,0,0,1.046.375,1.828,1.828,0,0,0,1.529-.709l.832.932a2.542,2.542,0,0,1-1.031.841A3.383,3.383,0,0,1,91.582.117Zm-.193-5.209a1.058,1.058,0,0,0-.817.341,1.768,1.768,0,0,0-.4.977h2.355v-.135a1.261,1.261,0,0,0-.3-.874A1.092,1.092,0,0,0,91.389-5.092Zm5.35-1.248.053.709a2.228,2.228,0,0,1,1.822-.826,1.691,1.691,0,0,1,1.682.967,2.177,2.177,0,0,1,1.9-.967,1.891,1.891,0,0,1,1.535.6,2.761,2.761,0,0,1,.5,1.808V0h-1.7V-4.052a1.212,1.212,0,0,0-.211-.79.933.933,0,0,0-.744-.25,1.057,1.057,0,0,0-1.055.728L100.535,0H98.842V-4.046a1.2,1.2,0,0,0-.217-.8.943.943,0,0,0-.738-.247,1.1,1.1,0,0,0-1.043.6V0H95.15V-6.34Zm14.508,3.229a3.8,3.8,0,0,1-.665,2.347,2.132,2.132,0,0,1-1.8.882,1.975,1.975,0,0,1-1.553-.668V2.438h-1.693V-6.34h1.57l.059.621a1.99,1.99,0,0,1,1.605-.738,2.147,2.147,0,0,1,1.822.867,3.905,3.905,0,0,1,.65,2.391Zm-1.693-.129a2.509,2.509,0,0,0-.313-1.369,1.02,1.02,0,0,0-.911-.482,1.108,1.108,0,0,0-1.1.611v2.6a1.127,1.127,0,0,0,1.107.629Q109.553-1.248,109.553-3.24ZM114.082,0h-1.7V-9h1.7Zm1.131-3.229a3.76,3.76,0,0,1,.363-1.682,2.659,2.659,0,0,1,1.046-1.143,3.051,3.051,0,0,1,1.585-.4,2.887,2.887,0,0,1,2.095.785,3.151,3.151,0,0,1,.905,2.133l.012.434A3.314,3.314,0,0,1,120.4-.765a2.831,2.831,0,0,1-2.186.882,2.845,2.845,0,0,1-2.188-.879,3.372,3.372,0,0,1-.817-2.391Zm1.693.12a2.37,2.37,0,0,0,.34,1.382,1.121,1.121,0,0,0,.973.478,1.124,1.124,0,0,0,.961-.472,2.593,2.593,0,0,0,.346-1.511A2.346,2.346,0,0,0,119.18-4.6a1.124,1.124,0,0,0-.973-.487,1.105,1.105,0,0,0-.961.484A2.637,2.637,0,0,0,116.906-3.108Zm11.777,1.356a.546.546,0,0,0-.308-.489,3.494,3.494,0,0,0-.987-.319q-2.262-.475-2.262-1.922a1.742,1.742,0,0,1,.7-1.409,2.825,2.825,0,0,1,1.831-.565,3.04,3.04,0,0,1,1.931.568,1.791,1.791,0,0,1,.724,1.477h-1.693a.819.819,0,0,0-.234-.6.992.992,0,0,0-.732-.237,1.013,1.013,0,0,0-.662.193.61.61,0,0,0-.234.492.522.522,0,0,0,.267.454,2.743,2.743,0,0,0,.9.3,7.346,7.346,0,0,1,1.066.284,1.752,1.752,0,0,1,1.342,1.705,1.654,1.654,0,0,1-.744,1.4,3.21,3.21,0,0,1-1.922.536,3.353,3.353,0,0,1-1.415-.284,2.374,2.374,0,0,1-.97-.779,1.811,1.811,0,0,1-.352-1.069h1.605a.884.884,0,0,0,.334.691,1.325,1.325,0,0,0,.832.24,1.226,1.226,0,0,0,.735-.185A.574.574,0,0,0,128.684-1.752Zm6.533,1.107a2.124,2.124,0,0,1-1.734.762,2,2,0,0,1-1.556-.586,2.5,2.5,0,0,1-.548-1.717V-6.34h1.693v4.1q0,.991.9.991a1.223,1.223,0,0,0,1.184-.6V-6.34h1.7V0h-1.594Zm8.631-2.467a3.839,3.839,0,0,1-.65,2.376,2.154,2.154,0,0,1-1.816.853,1.979,1.979,0,0,1-1.646-.791L139.658,0h-1.523V-9h1.693v3.229a1.929,1.929,0,0,1,1.541-.686,2.172,2.172,0,0,1,1.819.853,3.845,3.845,0,0,1,.659,2.4Zm-1.693-.129a2.536,2.536,0,0,0-.3-1.408,1.029,1.029,0,0,0-.908-.444,1.117,1.117,0,0,0-1.113.664v2.51a1.132,1.132,0,0,0,1.125.67,1.046,1.046,0,0,0,1.078-.811A4.2,4.2,0,0,0,142.154-3.24Zm8.443.129a3.8,3.8,0,0,1-.665,2.347,2.132,2.132,0,0,1-1.8.882,1.975,1.975,0,0,1-1.553-.668V2.438h-1.693V-6.34h1.57l.059.621a1.99,1.99,0,0,1,1.605-.738,2.147,2.147,0,0,1,1.822.867A3.905,3.905,0,0,1,150.6-3.2ZM148.9-3.24a2.509,2.509,0,0,0-.313-1.369,1.02,1.02,0,0,0-.911-.482,1.108,1.108,0,0,0-1.1.611v2.6a1.127,1.127,0,0,0,1.107.629Q148.9-1.248,148.9-3.24ZM155.32,0a1.88,1.88,0,0,1-.17-.568,2.049,2.049,0,0,1-1.6.686,2.251,2.251,0,0,1-1.544-.539,1.734,1.734,0,0,1-.612-1.359,1.792,1.792,0,0,1,.747-1.547,3.686,3.686,0,0,1,2.159-.545h.779v-.363a1.045,1.045,0,0,0-.226-.7.887.887,0,0,0-.712-.264,1.009,1.009,0,0,0-.671.205.7.7,0,0,0-.243.563h-1.693a1.7,1.7,0,0,1,.34-1.02,2.246,2.246,0,0,1,.961-.735,3.5,3.5,0,0,1,1.395-.267,2.767,2.767,0,0,1,1.86.589,2.06,2.06,0,0,1,.688,1.655v2.748A3.031,3.031,0,0,0,157.031-.1V0Zm-1.4-1.178a1.458,1.458,0,0,0,.691-.167,1.1,1.1,0,0,0,.469-.448v-1.09h-.633q-1.271,0-1.354.879l-.006.1a.678.678,0,0,0,.223.521A.865.865,0,0,0,153.92-1.178Zm7.723-3.574a4.6,4.6,0,0,0-.609-.047,1.24,1.24,0,0,0-1.26.65V0H158.08V-6.34h1.6l.047.756a1.569,1.569,0,0,1,1.412-.873,1.774,1.774,0,0,1,.527.076ZM164.777-7.9V-6.34h1.084V-5.1h-1.084v3.164a.756.756,0,0,0,.135.5.677.677,0,0,0,.516.152,2.7,2.7,0,0,0,.5-.041V-.035A3.486,3.486,0,0,1,164.9.117a1.617,1.617,0,0,1-1.816-1.8V-5.1h-.926V-6.34h.926V-7.9ZM168.592,0h-1.7V-6.34h1.7Zm-1.8-7.98a.834.834,0,0,1,.255-.627.958.958,0,0,1,.694-.246.96.96,0,0,1,.691.246.829.829,0,0,1,.258.627.831.831,0,0,1-.261.633.962.962,0,0,1-.688.246.962.962,0,0,1-.688-.246A.831.831,0,0,1,166.793-7.98Zm2.93,4.764a3.821,3.821,0,0,1,.665-2.361,2.158,2.158,0,0,1,1.819-.879,1.942,1.942,0,0,1,1.529.691V-9h1.7V0h-1.529l-.082-.674A1.993,1.993,0,0,1,172.2.117a2.152,2.152,0,0,1-1.8-.882A3.944,3.944,0,0,1,169.723-3.217Zm1.693.12a2.516,2.516,0,0,0,.311,1.371,1.011,1.011,0,0,0,.9.477,1.133,1.133,0,0,0,1.107-.665V-4.427a1.116,1.116,0,0,0-1.1-.665Q171.416-5.092,171.416-3.1ZM180.422,0a1.88,1.88,0,0,1-.17-.568,2.049,2.049,0,0,1-1.6.686,2.251,2.251,0,0,1-1.544-.539,1.734,1.734,0,0,1-.612-1.359,1.792,1.792,0,0,1,.747-1.547,3.686,3.686,0,0,1,2.159-.545h.779v-.363a1.045,1.045,0,0,0-.226-.7.887.887,0,0,0-.712-.264,1.009,1.009,0,0,0-.671.205.7.7,0,0,0-.243.563h-1.693a1.7,1.7,0,0,1,.34-1.02,2.246,2.246,0,0,1,.961-.735,3.5,3.5,0,0,1,1.395-.267,2.767,2.767,0,0,1,1.86.589,2.06,2.06,0,0,1,.688,1.655v2.748A3.031,3.031,0,0,0,182.133-.1V0Zm-1.4-1.178a1.458,1.458,0,0,0,.691-.167,1.1,1.1,0,0,0,.469-.448v-1.09h-.633q-1.271,0-1.354.879l-.006.1a.678.678,0,0,0,.223.521A.865.865,0,0,0,179.021-1.178Zm4.242.346a.852.852,0,0,1,.272-.656.967.967,0,0,1,.683-.252.975.975,0,0,1,.688.252.852.852,0,0,1,.272.656.841.841,0,0,1-.27.647.979.979,0,0,1-.691.249.971.971,0,0,1-.686-.249A.841.841,0,0,1,183.264-.832Zm0-4.8a.852.852,0,0,1,.272-.656.967.967,0,0,1,.683-.252.975.975,0,0,1,.688.252.852.852,0,0,1,.272.656.841.841,0,0,1-.27.647.979.979,0,0,1-.691.249.971.971,0,0,1-.686-.249A.841.841,0,0,1,183.264-5.631Zm11.965,2.1A4.322,4.322,0,0,1,194.5-.82a2.557,2.557,0,0,1-2.145.938,2.574,2.574,0,0,1-2.133-.92,4.2,4.2,0,0,1-.756-2.637V-5.01a4.265,4.265,0,0,1,.741-2.713,2.576,2.576,0,0,1,2.136-.926,2.578,2.578,0,0,1,2.133.917,4.182,4.182,0,0,1,.756,2.634Zm-1.693-1.727a3.124,3.124,0,0,0-.29-1.546.98.98,0,0,0-.905-.484.963.963,0,0,0-.882.46,2.924,2.924,0,0,0-.3,1.44v2.076a3.279,3.279,0,0,0,.284,1.551.967.967,0,0,0,.911.507.951.951,0,0,0,.9-.487,3.2,3.2,0,0,0,.287-1.49ZM202.219,0h-5.848V-1.16l2.76-2.941a6.808,6.808,0,0,0,.841-1.084,1.742,1.742,0,0,0,.272-.879,1.3,1.3,0,0,0-.287-.894,1.036,1.036,0,0,0-.82-.325,1.118,1.118,0,0,0-.905.4,1.567,1.567,0,0,0-.331,1.04h-1.7a2.8,2.8,0,0,1,.372-1.424,2.622,2.622,0,0,1,1.052-1.011,3.2,3.2,0,0,1,1.541-.366,3.027,3.027,0,0,1,2.048.633,2.239,2.239,0,0,1,.729,1.787,2.868,2.868,0,0,1-.328,1.289A7.164,7.164,0,0,1,200.49-3.41l-1.939,2.045h3.668Zm1.2-.832a.852.852,0,0,1,.272-.656.967.967,0,0,1,.683-.252.975.975,0,0,1,.688.252.852.852,0,0,1,.272.656.841.841,0,0,1-.27.647.979.979,0,0,1-.691.249.971.971,0,0,1-.686-.249A.841.841,0,0,1,203.414-.832Zm9.07-2.7a4.322,4.322,0,0,1-.732,2.707,2.557,2.557,0,0,1-2.145.938,2.574,2.574,0,0,1-2.133-.92,4.2,4.2,0,0,1-.756-2.637V-5.01a4.265,4.265,0,0,1,.741-2.713,2.576,2.576,0,0,1,2.136-.926,2.578,2.578,0,0,1,2.133.917,4.182,4.182,0,0,1,.756,2.634Zm-1.693-1.727A3.124,3.124,0,0,0,210.5-6.8a.98.98,0,0,0-.905-.484.963.963,0,0,0-.882.46,2.924,2.924,0,0,0-.3,1.44v2.076a3.279,3.279,0,0,0,.284,1.551.967.967,0,0,0,.911.507.951.951,0,0,0,.9-.487,3.2,3.2,0,0,0,.287-1.49ZM217.74,0h-1.693V-6.536l-2.021.624V-7.277l3.533-1.266h.182Zm2.93-.832a.852.852,0,0,1,.272-.656.967.967,0,0,1,.683-.252.975.975,0,0,1,.688.252.852.852,0,0,1,.272.656.841.841,0,0,1-.27.647.979.979,0,0,1-.691.249.971.971,0,0,1-.686-.249A.841.841,0,0,1,220.67-.832Zm5.051-4.184h.9a1.271,1.271,0,0,0,.955-.322,1.181,1.181,0,0,0,.311-.855,1.044,1.044,0,0,0-.308-.8,1.192,1.192,0,0,0-.847-.287,1.25,1.25,0,0,0-.814.267.852.852,0,0,0-.328.694H223.9a2.083,2.083,0,0,1,.36-1.2,2.4,2.4,0,0,1,1.008-.829,3.364,3.364,0,0,1,1.427-.3A3.19,3.19,0,0,1,228.814-8a2.209,2.209,0,0,1,.768,1.784,1.8,1.8,0,0,1-.357,1.078,2.322,2.322,0,0,1-.937.756,2.12,2.12,0,0,1,1.075.773,2.1,2.1,0,0,1,.354,1.219,2.246,2.246,0,0,1-.829,1.822,3.334,3.334,0,0,1-2.194.686A3.161,3.161,0,0,1,224.6-.557a2.2,2.2,0,0,1-.812-1.781h1.693a.981.981,0,0,0,.36.785,1.328,1.328,0,0,0,.888.3,1.334,1.334,0,0,0,.946-.319,1.1,1.1,0,0,0,.343-.847q0-1.277-1.406-1.277h-.9Zm10.9,1.488a4.322,4.322,0,0,1-.732,2.707,2.557,2.557,0,0,1-2.145.938,2.574,2.574,0,0,1-2.133-.92,4.2,4.2,0,0,1-.756-2.637V-5.01a4.265,4.265,0,0,1,.741-2.713,2.576,2.576,0,0,1,2.136-.926,2.578,2.578,0,0,1,2.133.917,4.182,4.182,0,0,1,.756,2.634Zm-1.693-1.727a3.124,3.124,0,0,0-.29-1.546.98.98,0,0,0-.905-.484.963.963,0,0,0-.882.46,2.924,2.924,0,0,0-.3,1.44v2.076a3.279,3.279,0,0,0,.284,1.551.967.967,0,0,0,.911.507.951.951,0,0,0,.9-.487,3.2,3.2,0,0,0,.287-1.49Zm2.994,4.422a.852.852,0,0,1,.272-.656.967.967,0,0,1,.683-.252.975.975,0,0,1,.688.252.852.852,0,0,1,.272.656.841.841,0,0,1-.27.647.979.979,0,0,1-.691.249.971.971,0,0,1-.686-.249A.841.841,0,0,1,237.926-.832Zm7.289-2.578a2.138,2.138,0,0,1-1.547.65,2.287,2.287,0,0,1-1.811-.776,3.068,3.068,0,0,1-.68-2.095,3.268,3.268,0,0,1,.366-1.538,2.686,2.686,0,0,1,1.022-1.09,2.837,2.837,0,0,1,1.477-.39,2.713,2.713,0,0,1,1.5.422,2.774,2.774,0,0,1,1.02,1.213,4.355,4.355,0,0,1,.369,1.811v.627a4.935,4.935,0,0,1-1.061,3.352,4.01,4.01,0,0,1-3.006,1.3l-.416.006V-1.33l.375-.006A2.165,2.165,0,0,0,245.215-3.41Zm-1.131-.645a1.184,1.184,0,0,0,.706-.211,1.409,1.409,0,0,0,.448-.51v-.7a2.328,2.328,0,0,0-.328-1.336,1.018,1.018,0,0,0-.879-.475.989.989,0,0,0-.838.466,1.981,1.981,0,0,0-.328,1.169,1.927,1.927,0,0,0,.319,1.146A1.04,1.04,0,0,0,244.084-4.055Zm9.8.527a4.322,4.322,0,0,1-.732,2.707A2.557,2.557,0,0,1,251,.117a2.574,2.574,0,0,1-2.133-.92,4.2,4.2,0,0,1-.756-2.637V-5.01a4.265,4.265,0,0,1,.741-2.713,2.576,2.576,0,0,1,2.136-.926,2.578,2.578,0,0,1,2.133.917,4.182,4.182,0,0,1,.756,2.634Zm-1.693-1.727A3.124,3.124,0,0,0,251.9-6.8a.98.98,0,0,0-.905-.484.963.963,0,0,0-.882.46,2.924,2.924,0,0,0-.3,1.44v2.076a3.279,3.279,0,0,0,.284,1.551.967.967,0,0,0,.911.507.951.951,0,0,0,.9-.487,3.2,3.2,0,0,0,.287-1.49Zm2.994,4.422a.852.852,0,0,1,.272-.656.967.967,0,0,1,.683-.252.975.975,0,0,1,.688.252.852.852,0,0,1,.272.656.841.841,0,0,1-.27.647.979.979,0,0,1-.691.249.971.971,0,0,1-.686-.249A.841.841,0,0,1,255.182-.832Zm9.07-2.7A4.322,4.322,0,0,1,263.52-.82a2.557,2.557,0,0,1-2.145.938,2.574,2.574,0,0,1-2.133-.92,4.2,4.2,0,0,1-.756-2.637V-5.01a4.265,4.265,0,0,1,.741-2.713,2.576,2.576,0,0,1,2.136-.926,2.578,2.578,0,0,1,2.133.917,4.182,4.182,0,0,1,.756,2.634Zm-1.693-1.727a3.124,3.124,0,0,0-.29-1.546.98.98,0,0,0-.905-.484.963.963,0,0,0-.882.46,2.924,2.924,0,0,0-.3,1.44v2.076a3.279,3.279,0,0,0,.284,1.551.967.967,0,0,0,.911.507.951.951,0,0,0,.9-.487,3.2,3.2,0,0,0,.287-1.49Zm8.578,1.727A4.322,4.322,0,0,1,270.4-.82a2.557,2.557,0,0,1-2.145.938,2.574,2.574,0,0,1-2.133-.92,4.2,4.2,0,0,1-.756-2.637V-5.01a4.265,4.265,0,0,1,.741-2.713,2.576,2.576,0,0,1,2.136-.926,2.578,2.578,0,0,1,2.133.917,4.182,4.182,0,0,1,.756,2.634Zm-1.693-1.727a3.124,3.124,0,0,0-.29-1.546.98.98,0,0,0-.905-.484.963.963,0,0,0-.882.46,2.924,2.924,0,0,0-.3,1.44v2.076a3.279,3.279,0,0,0,.284,1.551.967.967,0,0,0,.911.507.951.951,0,0,0,.9-.487,3.2,3.2,0,0,0,.287-1.49Z" transform="translate(5269.292 1280.415)" fill="#12263f"/>
      <line id="Línea_1557" data-name="Línea 1557" x2="98.039" transform="translate(5261.254 1677.125)" stroke="#12263f" stroke-miterlimit="10" stroke-width="2"/>
      <path id="Trazado_169011" data-name="Trazado 169011" d="M5266.292,1669.087l-8.039,8.039,8.039,8.039" fill="#12263f"/>
      <line id="Línea_1558" data-name="Línea 1558" x1="367.842" transform="translate(5589.398 1677.13)" stroke="#12263f" stroke-miterlimit="10" stroke-width="2"/>
      <path id="Trazado_169012" data-name="Trazado 169012" d="M5953.22,1669.087l8.039,8.039-8.039,8.039" fill="#12263f"/>
      <path id="Trazado_173675" data-name="Trazado 173675" d="M7.7,0H5.941L2.52-5.613V0H.762V-8.531H2.52L5.947-2.906V-8.531H7.7Zm6.457-1.758H11.074L10.488,0H8.619l3.176-8.531h1.629L16.617,0H14.748ZM11.549-3.182h2.133L12.609-6.375ZM24.352,0H22.594L19.172-5.613V0H17.414V-8.531h1.758L22.6-2.906V-8.531h1.752Zm1.535,0V-8.531h2.625a3.986,3.986,0,0,1,2.013.507A3.534,3.534,0,0,1,31.91-6.583a4.446,4.446,0,0,1,.5,2.124v.393a4.458,4.458,0,0,1-.489,2.115,3.5,3.5,0,0,1-1.38,1.436A4.016,4.016,0,0,1,28.529,0Zm1.758-7.107v5.7h.85a1.909,1.909,0,0,0,1.576-.674,3.045,3.045,0,0,0,.557-1.928v-.451a3.093,3.093,0,0,0-.539-1.972,1.9,1.9,0,0,0-1.576-.671ZM35.555,0H33.8V-8.531h1.758Zm8.566,0H42.363L38.941-5.613V0H37.184V-8.531h1.758l3.428,5.625V-8.531h1.752Zm6.457-1.758H47.5L46.91,0H45.041l3.176-8.531h1.629L53.039,0H51.17ZM47.971-3.182H50.1L49.031-6.375Z" transform="translate(5373.273 1673.879)" fill="#12263f"/>
    </g>
  </g>
</svg>
