<svg id="Grupo_111593" data-name="Grupo 111593" xmlns="http://www.w3.org/2000/svg" xmlns:xlink="http://www.w3.org/1999/xlink" width="114.636" height="114.636" viewBox="0 0 114.636 114.636">
  <defs>
    <radialGradient id="radial-gradient" cx="0.076" cy="0.019" r="1.465" gradientTransform="translate(0.001)" gradientUnits="objectBoundingBox">
      <stop offset="0" stop-color="#f6f6f7"/>
      <stop offset="0.477" stop-color="#f9f9fa"/>
      <stop offset="0.715" stop-color="#fff"/>
    </radialGradient>
  </defs>
  <g id="Grupo_18423" data-name="Grupo 18423" transform="translate(0 0)">
    <g id="Grupo_18421" data-name="Grupo 18421">
      <g id="Grupo_18420" data-name="Grupo 18420">
        <g id="Grupo_18419" data-name="Grupo 18419">
          <path id="Trazado_40936" data-name="Trazado 40936" d="M309.259,2203.037a57.318,57.318,0,1,1-57.317-57.316A57.317,57.317,0,0,1,309.259,2203.037Z" transform="translate(-194.623 -2145.721)" fill="#fff"/>
        </g>
      </g>
    </g>
    <path id="Trazado_40937" data-name="Trazado 40937" d="M308.648,2202.372a57.316,57.316,0,1,0-57.317,57.319A57.091,57.091,0,0,0,308.648,2202.372Z" transform="translate(-194.013 -2145.056)" fill="url(#radial-gradient)"/>
    <path id="Trazado_40938" data-name="Trazado 40938" d="M289.672,2196.986a43.75,43.75,0,1,0-43.75,43.75A43.587,43.587,0,0,0,289.672,2196.986Z" transform="translate(-188.43 -2139.479)" fill="none" stroke="#00223d" stroke-miterlimit="10" stroke-width="4"/>
    <g id="Grupo_18422" data-name="Grupo 18422" transform="translate(10.154 32.18)">
      <path id="Trazado_40939" data-name="Trazado 40939" d="M299.231,2164.488a57.325,57.325,0,0,1-98.686,57.081,57.143,57.143,0,0,0,98.686-57.081Z" transform="translate(-200.545 -2164.488)" fill="#eceef0"/>
    </g>
  </g>
  <g id="Grupo_90415" data-name="Grupo 90415" transform="translate(-195.29 -1926.089)">
    <path id="Trazado_125544" data-name="Trazado 125544" d="M254.361,2033.063c-.78.475-1.459.894-2.144,1.3-.607.363-1.142.279-1.434-.212s-.1-1,.5-1.369c1.106-.674,2.22-1.336,3.315-2.027a1.151,1.151,0,0,1,1.365,0c1.1.691,2.211,1.349,3.315,2.027.616.378.8.873.509,1.365s-.835.58-1.481.191c-.668-.4-1.333-.809-2.064-1.253v11.032H269a33.061,33.061,0,0,1-.912-3.324c-.829-4.882.126-9.31,3.632-12.97a9.014,9.014,0,0,1,6.856-2.883c1.767.021,3.537.059,5.3-.007,4.11-.152,7.064,1.747,9.2,5.1a15.081,15.081,0,0,1-.944,16.973,9.555,9.555,0,0,1-7.939,3.777c-1.747-.043-3.5-.049-5.243,0a9.711,9.711,0,0,1-8.443-4.3,1.151,1.151,0,0,0-1.063-.525c-4.6.019-9.191.012-13.787.011-1.029,0-1.3-.263-1.3-1.281q0-5.451,0-10.9Zm39.047,4.917a12.442,12.442,0,0,0-3.09-8.579,7.269,7.269,0,0,0-11.141-.059,11.745,11.745,0,0,0-3.088,7.406,12.153,12.153,0,0,0,3.386,9.925,7.165,7.165,0,0,0,10.517-.022A12.12,12.12,0,0,0,293.408,2037.979ZM279.223,2026.8c-.2-.014-.289-.023-.38-.026a7.614,7.614,0,0,0-6.393,2.934,13.271,13.271,0,0,0-.419,15.8,8.7,8.7,0,0,0,3.52,2.869,7.16,7.16,0,0,0,3.65.529,14.735,14.735,0,0,1,.022-22.1Z" transform="translate(-15.111 -40.98)"/>
    <path id="Trazado_125545" data-name="Trazado 125545" d="M267.436,1978.7c.762-.462,1.41-.858,2.06-1.25.693-.417,1.232-.359,1.539.161.295.5.1.989-.562,1.394-1.088.666-2.186,1.313-3.264,2a1.148,1.148,0,0,1-1.364,0c-1.112-.7-2.244-1.37-3.362-2.06-.578-.356-.745-.851-.471-1.327.287-.5.827-.591,1.431-.23.688.41,1.37.829,2.125,1.286v-11.018h-12.28c.283.924.644,1.839.84,2.788.992,4.8.207,9.23-3.047,13.025a9.208,9.208,0,0,1-7.461,3.387c-1.766-.034-3.535-.054-5.3,0a9.772,9.772,0,0,1-8.816-4.713,15,15,0,0,1,1-17.721,9.407,9.407,0,0,1,7.512-3.417c1.786.033,3.574.049,5.359,0a9.707,9.707,0,0,1,8.41,4.248,1.163,1.163,0,0,0,1.061.535c4.418-.021,8.835-.013,13.252-.012,1.1,0,1.339.243,1.339,1.357q0,5.39,0,10.779Zm-14.748-3.991c.028-3.935-1.047-6.965-2.977-9.133a7.273,7.273,0,0,0-11.258-.131,12.351,12.351,0,0,0-3.047,9.878,11.821,11.821,0,0,0,2.815,6.857,7.283,7.283,0,0,0,11.376.222A11.729,11.729,0,0,0,252.688,1974.71Zm-14.243-11.772c-.048-.034-.075-.068-.107-.073a2.209,2.209,0,0,0-.235-.012,7.461,7.461,0,0,0-6.338,2.912,12.71,12.71,0,0,0-2.465,11.318,10.338,10.338,0,0,0,4.588,6.862,7.2,7.2,0,0,0,4.624,1.045,14.723,14.723,0,0,1-.067-22.052Z" transform="translate(0 0)"/>
    <path id="Trazado_125546" data-name="Trazado 125546" d="M337.385,2053.695a20.905,20.905,0,0,1-2.05-1.5,3.07,3.07,0,0,1-.9-2.183.928.928,0,0,1,.827-1.085c.539-.045.915.292.979.931a1.976,1.976,0,0,0,1.34,1.773,2.2,2.2,0,0,0,2.276-.337,1.731,1.731,0,0,0,.659-1.938,2.011,2.011,0,0,0-1.754-1.454c-.347-.056-.707-.038-1.053-.1a3.86,3.86,0,0,1-3.262-3.326,3.782,3.782,0,0,1,2.607-3.96c.128-.047.257-.09.417-.146.015-.146.02-.3.049-.448a.867.867,0,0,1,.884-.787.8.8,0,0,1,.9.749c.038.4.217.539.568.674a3.7,3.7,0,0,1,2.534,3.179c.089.724-.245,1.21-.828,1.257-.556.044-.912-.334-1-1.058a2.135,2.135,0,0,0-2.531-1.789,1.974,1.974,0,0,0-1.735,2.357,2.121,2.121,0,0,0,1.891,1.523,7.823,7.823,0,0,1,1.833.359,3.707,3.707,0,0,1,2.392,3.525,3.825,3.825,0,0,1-2.583,3.465c-.286.1-.518.157-.52.57a.891.891,0,0,1-.918,1c-.535-.009-.867-.384-.9-1.021-.007-.116-.012-.232-.018-.349Z" transform="translate(-68.819 -50.09)"/>
    <path id="Trazado_125547" data-name="Trazado 125547" d="M271.114,1979.961a.941.941,0,0,1-.83,1.089.917.917,0,0,1-.991-.932,1.94,1.94,0,0,0-1.273-1.755,2.207,2.207,0,0,0-2.286.278,1.748,1.748,0,0,0-.748,1.8,1.938,1.938,0,0,0,1.454,1.545,4.008,4.008,0,0,0,.93.119,3.929,3.929,0,0,1,3.695,3.156,3.725,3.725,0,0,1-2.528,4.158c-.367.133-.528.277-.525.692a.892.892,0,0,1-1.784-.015c.013-.434-.191-.542-.538-.677a3.683,3.683,0,0,1-2.55-3.29c-.057-.669.268-1.1.813-1.155s.918.322,1,.987a2.05,2.05,0,0,0,1.657,1.828,2.264,2.264,0,0,0,2.412-.96,1.9,1.9,0,0,0-1.214-2.793,4.327,4.327,0,0,0-.931-.119,3.926,3.926,0,0,1-3.71-3.208,3.745,3.745,0,0,1,2.586-4.129.582.582,0,0,0,.482-.6.818.818,0,0,1,.863-.794.833.833,0,0,1,.906.809c.015.38.2.482.5.59A3.785,3.785,0,0,1,271.114,1979.961Z" transform="translate(-23.107 -9.093)"/>
  </g>
</svg>
