<svg id="Grupo_111597" data-name="Grupo 111597" xmlns="http://www.w3.org/2000/svg" xmlns:xlink="http://www.w3.org/1999/xlink" width="114.636" height="114.636" viewBox="0 0 114.636 114.636">
  <defs>
    <radialGradient id="radial-gradient" cx="0.076" cy="0.019" r="1.465" gradientTransform="translate(0.001)" gradientUnits="objectBoundingBox">
      <stop offset="0" stop-color="#f6f6f7"/>
      <stop offset="0.477" stop-color="#f9f9fa"/>
      <stop offset="0.715" stop-color="#fff"/>
    </radialGradient>
  </defs>
  <g id="Grupo_18423" data-name="Grupo 18423" transform="translate(0 0)">
    <g id="Grupo_18421" data-name="Grupo 18421">
      <g id="Grupo_18420" data-name="Grupo 18420">
        <g id="Grupo_18419" data-name="Grupo 18419">
          <path id="Trazado_40936" data-name="Trazado 40936" d="M309.259,2203.037a57.318,57.318,0,1,1-57.317-57.316A57.317,57.317,0,0,1,309.259,2203.037Z" transform="translate(-194.623 -2145.721)" fill="#fff"/>
        </g>
      </g>
    </g>
    <path id="Trazado_40937" data-name="Trazado 40937" d="M308.648,2202.372a57.316,57.316,0,1,0-57.317,57.319A57.091,57.091,0,0,0,308.648,2202.372Z" transform="translate(-194.013 -2145.056)" fill="url(#radial-gradient)"/>
    <path id="Trazado_40938" data-name="Trazado 40938" d="M289.672,2196.986a43.75,43.75,0,1,0-43.75,43.75A43.587,43.587,0,0,0,289.672,2196.986Z" transform="translate(-188.43 -2139.479)" fill="none" stroke="#00223d" stroke-miterlimit="10" stroke-width="4"/>
    <g id="Grupo_18422" data-name="Grupo 18422" transform="translate(10.154 32.18)">
      <path id="Trazado_40939" data-name="Trazado 40939" d="M299.231,2164.488a57.325,57.325,0,0,1-98.686,57.081,57.143,57.143,0,0,0,98.686-57.081Z" transform="translate(-200.545 -2164.488)" fill="#eceef0"/>
    </g>
  </g>
  <g id="t6z3xn" transform="translate(-452.45 -57.713)">
    <g id="Grupo_90416" data-name="Grupo 90416" transform="translate(-132.705 -1878.057)">
      <path id="Trazado_125548" data-name="Trazado 125548" d="M644.426,1993.888v3.645h.349q3.091,0,6.182,0a.843.843,0,0,1,.867,1.115.859.859,0,0,1-.885.572q-2.07,0-4.14,0h-2.37v3.646h.335q2.254,0,4.509,0a.839.839,0,0,1,.914.805.83.83,0,0,1-.806.881c-.189.01-.378,0-.567,0H620.173c-.142,0-.284,0-.425-.009a.825.825,0,0,1-.759-.811c0-.075,0-.151,0-.227v-29.69c0-.77.286-1.053,1.064-1.053q11.073,0,22.147,0,9.372,0,18.744,0c.618,0,.972.272,1.023.786a1.643,1.643,0,0,1,0,.17q0,5.061,0,10.124a.841.841,0,0,1-.812.935.819.819,0,0,1-.871-.842c-.013-.472-.005-.945,0-1.418q0-3.856,0-7.713v-.346h-39.6v17.717h2.081c0-.088.013-.17.013-.252q0-5.459,0-10.918c0-.7.264-.98.955-1.019a2.413,2.413,0,0,0,2.281-2.349.828.828,0,0,1,.889-.886q2.793-.008,5.586,0a.82.82,0,0,1,.866.7.81.81,0,0,1-.509.911,1.318,1.318,0,0,1-.443.062c-1.484.005-2.968,0-4.452,0h-.321l-.078.253a4.041,4.041,0,0,1-2.835,2.838c-.18.055-.261.114-.26.32q.01,5.075,0,10.151c0,.055.007.111.013.186h8.8c-.162-.616-.358-1.219-.478-1.837a13.4,13.4,0,0,1,1.405-9.486,8.4,8.4,0,0,1,3.31-3.34,6.219,6.219,0,0,1,7.048.754,10.338,10.338,0,0,1,3.389,5.478,13.908,13.908,0,0,1-.238,8.206c-.023.07-.041.142-.071.245H648c1.7,0,3.4,0,5.1,0a.842.842,0,1,1,.038,1.684c-.076.005-.151,0-.227,0h-8.487Zm-3.961-1.689c1.691,0,3.382,0,5.073,0a.348.348,0,0,0,.389-.265,12.188,12.188,0,0,0-.02-9.016,7.539,7.539,0,0,0-2.729-3.607,4.481,4.481,0,0,0-4.041-.67,5.669,5.669,0,0,0-3.146,2.513,11.8,11.8,0,0,0-.93,10.862c.066.18.185.177.331.177Q637.928,1992.2,640.465,1992.2Zm-3.954,5.324v-3.616H620.69v3.616Zm0,1.715H620.7v3.617h15.819Zm6.213-5.33h-4.491v8.94h4.491Z" transform="translate(0)"/>
      <path id="Trazado_125549" data-name="Trazado 125549" d="M682.506,2021.948c-.129-.1-.2-.161-.267-.216a9.52,9.52,0,0,1-3.836-8.265,13.694,13.694,0,0,1,.634-3.073q.955-3.467,1.909-6.936a3.617,3.617,0,0,1,1.949-2.377.3.3,0,0,0,.209-.317c-.011-.548,0-1.1-.008-1.645a.3.3,0,0,0-.141-.224,1.808,1.808,0,0,1-1.084-1.748q-.007-2.07,0-4.14a.846.846,0,0,1,.966-.951c.2,0,.4.013.594.032s.37.054.571.085v-3.781a4.172,4.172,0,0,1-3.15-3.169h-.305c-1.512,0-3.025,0-4.537,0a.828.828,0,0,1-.857-1.094.816.816,0,0,1,.819-.576c1.115-.006,2.231,0,3.346,0,.728,0,1.455,0,2.183,0a.853.853,0,0,1,.968.925,2.406,2.406,0,0,0,2.286,2.312c.671.036.951.328.951,1,0,1.6,0,3.195,0,4.792a.381.381,0,0,0,.208.383,6.09,6.09,0,0,1,2.059,2.083l.214-.3a5.973,5.973,0,0,1,4.958-2.681.819.819,0,0,1,.928.9c.006,1.427.01,2.855,0,4.282a1.769,1.769,0,0,1-1.053,1.65.335.335,0,0,0-.161.238c-.012.548,0,1.1-.006,1.645a.286.286,0,0,0,.187.3,3.65,3.65,0,0,1,1.976,2.423c.755,2.769,1.569,5.522,2.264,8.307a9.527,9.527,0,0,1-7.732,11.693,10.075,10.075,0,0,1-1.608.131q-12.122.012-24.245.005c-.637,0-1.017-.317-1.016-.845a.829.829,0,0,1,.768-.832c.1-.008.208,0,.312,0h18.75Zm2.276-21.248c.561,0,1.087-.006,1.614,0a.857.857,0,0,1,.883.847.845.845,0,0,1-.885.837c-.567.007-1.134,0-1.7,0a2.008,2.008,0,0,0-2.161,1.647c-.58,2.112-1.174,4.22-1.738,6.335a18.7,18.7,0,0,0-.673,2.947,7.894,7.894,0,1,0,15.494-1.285c-.736-2.724-1.5-5.442-2.248-8.162a1.969,1.969,0,0,0-1.944-1.481c-.624,0-1.248,0-1.871,0a.844.844,0,1,1,0-1.686c.283-.007.567,0,.851,0h.76c0-.486,0-.92,0-1.354,0-.215-.1-.3-.314-.3q-2.878,0-5.755,0c-.215,0-.314.1-.314.307C684.783,1999.782,684.783,2000.217,684.783,2000.7Zm4.124-3.372a.489.489,0,0,0,.1.023c1.057,0,2.114,0,3.171.005.209,0,.222-.115.221-.273,0-.934,0-1.869,0-2.8v-.442A4.342,4.342,0,0,0,688.907,1997.327Zm-1.88.026c-.128-1.594-2-3.48-3.468-3.5q0,1.656,0,3.313c0,.2.136.19.272.19h3.2Z" transform="translate(-27.53 -6.792)"/>
      <path id="Trazado_125550" data-name="Trazado 125550" d="M675.095,1995.722a.846.846,0,0,1-.823.871.821.821,0,0,1-.859-.8,1.018,1.018,0,0,0-.729-.977,1.18,1.18,0,0,0-1.265.255.87.87,0,0,0-.255.957,1.032,1.032,0,0,0,.875.712c.288.048.586.042.87.1a2.724,2.724,0,0,1,2.178,2.444,2.69,2.69,0,0,1-1.765,2.669.306.306,0,0,0-.23.3.835.835,0,0,1-1.664-.022c-.014-.192-.117-.225-.25-.278a2.692,2.692,0,0,1-1.745-2.429.843.843,0,1,1,1.683-.1,1.145,1.145,0,0,0,1.684.932.954.954,0,0,0,.6-.887.938.938,0,0,0-.622-.9,1.709,1.709,0,0,0-.6-.118,2.789,2.789,0,0,1-2.706-2.268,2.689,2.689,0,0,1,1.748-2.944.417.417,0,0,0,.206-.246.855.855,0,0,1,.83-.682.8.8,0,0,1,.823.673.348.348,0,0,0,.265.281A2.7,2.7,0,0,1,675.095,1995.722Z" transform="translate(-31.784 -12.316)"/>
      <path id="Trazado_125551" data-name="Trazado 125551" d="M724.536,2056.448a3.5,3.5,0,0,1-1.647-.968,3.032,3.032,0,0,1-.847-1.99.846.846,0,1,1,1.684-.085,1.565,1.565,0,0,0,1.458,1.444,1.678,1.678,0,0,0,1.784-1.06,1.48,1.48,0,0,0-1.238-1.874c-.334-.058-.679-.048-1.012-.109a3.228,3.228,0,0,1-2.674-2.875,3.177,3.177,0,0,1,2.256-3.232c.17-.056.234-.119.243-.3a.838.838,0,0,1,1.674,0,.291.291,0,0,0,.242.308,3.162,3.162,0,0,1,2.251,2.72c.084.642-.246,1.1-.786,1.117a.839.839,0,0,1-.889-.86,1.562,1.562,0,0,0-1.443-1.457,1.674,1.674,0,0,0-1.8,1.07,1.481,1.481,0,0,0,1.253,1.864c.335.054.68.047,1.012.109a3.222,3.222,0,0,1,2.665,2.913,3.168,3.168,0,0,1-2.248,3.18.307.307,0,0,0-.253.357.825.825,0,0,1-.852.889.836.836,0,0,1-.83-.888C724.534,2056.633,724.536,2056.548,724.536,2056.448Z" transform="translate(-64.935 -45.258)"/>
    </g>
  </g>
</svg>
