<svg id="Group_87331" data-name="Group 87331" xmlns="http://www.w3.org/2000/svg" xmlns:xlink="http://www.w3.org/1999/xlink" width="110.493" height="110.491" viewBox="0 0 110.493 110.491">
  <defs>
    <radialGradient id="radial-gradient" cx="0.077" cy="0.019" r="1.465" gradientTransform="matrix(1, 0, 0, -1, 0, 9.666)" gradientUnits="objectBoundingBox">
      <stop offset="0" stop-color="#f4f4f5"/>
      <stop offset="0.477" stop-color="#f7f8fa"/>
      <stop offset="0.715" stop-color="#fff"/>
    </radialGradient>
  </defs>
  <g id="Group_18531" data-name="Group 18531">
    <g id="Group_18423" data-name="Group 18423">
      <g id="Group_18421" data-name="Group 18421">
        <g id="Group_18420" data-name="Group 18420">
          <g id="Group_18419" data-name="Group 18419">
            <path id="Path_40936" data-name="Path 40936" d="M233.291,570.076a55.246,55.246,0,1,1-55.248-55.244h0A55.244,55.244,0,0,1,233.291,570.076Z" transform="translate(-122.8 -514.832)" fill="#fff"/>
          </g>
        </g>
      </g>
      <path id="Path_40937" data-name="Path 40937" d="M233.289,570.076a55.026,55.026,0,1,0,0,.436Z" transform="translate(-122.798 -514.832)" fill="url(#radial-gradient)"/>
      <path id="Path_40938" data-name="Path 40938" d="M213.949,563.818a42.169,42.169,0,1,0-42.168,42.169h0a42.013,42.013,0,0,0,42.168-41.855Z" transform="translate(-116.365 -508.39)" fill="none" stroke="#451991" stroke-miterlimit="10" stroke-width="4"/>
      <g id="Group_18422" data-name="Group 18422" transform="translate(9.788 31.017)">
        <path id="Path_40939" data-name="Path 40939" d="M222.95,530.78a55.252,55.252,0,0,1-95.117,55.014A55.077,55.077,0,0,0,222.95,530.78Z" transform="translate(-127.833 -530.78)" fill="#e7e9eb"/>
      </g>
    </g>
  </g>
  <g id="ae6ioA" transform="translate(-7123.056 129.515)">
    <g id="Grupo_103732" data-name="Grupo 103732" transform="translate(7150.227 -102.021)">
      <path id="Trazado_157847" data-name="Trazado 157847" d="M7162.651-82.448v13.416h.412c1.2,0,2.4-.007,3.606,0a4.279,4.279,0,0,1,4.338,4.363c0,.423,0,.845,0,1.288h3c0-.386,0-.757,0-1.127.013-1.926.039-3.853.037-5.779,0-3.067.016-6.134-.057-9.2a10.418,10.418,0,0,1,.707-3.531c.586-1.791,1.219-3.569,1.737-5.38a1.844,1.844,0,0,1,2-1.443c1.5-.029,3-.008,4.507-.008q6.986,0,13.973.006a4.274,4.274,0,0,1,1.03.15,1.413,1.413,0,0,1,1.042,1.025c.792,2.474,1.6,4.941,2.4,7.414a2.312,2.312,0,0,1,.1.7c0,3.042-.013,6.085-.015,9.127,0,2.591.009,5.183.015,7.774,0,.086.013.173.023.292h.527c1.9.009,3.807-.027,5.708.041a2.819,2.819,0,0,1,2.614,2.795,19.978,19.978,0,0,1-.024,2.364,2.882,2.882,0,0,1-2.959,2.537c-.336,0-.672,0-1.03,0a2.721,2.721,0,0,1-.75,1.614,2.7,2.7,0,0,1-2.04.785c-1.825-.01-3.65-.051-5.473.011a2.806,2.806,0,0,1-3.162-2.4h-29.25a6.074,6.074,0,0,1-.2.693,2.419,2.419,0,0,1-2.241,1.665c-1.8.051-3.605.018-5.408.018-.362,0-.724-.028-1.085-.021a2.541,2.541,0,0,1-2.451-2.212.771.771,0,0,0-.054-.153c-.318,0-.651,0-.985,0a2.839,2.839,0,0,1-2.954-2.533,11.744,11.744,0,0,1,.036-2.8,2.64,2.64,0,0,1,1.956-2.244c.236-.078.292-.18.3-.417a11.367,11.367,0,0,1,.162-2.233,4.207,4.207,0,0,1,4.07-3.172c1.227-.014,2.454,0,3.681-.005h.426v-13.4c-.127-.007-.247-.017-.366-.018-.563,0-1.127.011-1.69-.007a2.39,2.39,0,0,1-2.43-2.428c-.018-.674.029-1.35.024-2.025a.554.554,0,0,0-.177-.363,8.269,8.269,0,0,1-2.762-4.9,8.17,8.17,0,0,1,1.195-5.949,8,8,0,0,1,5.582-3.754,8.021,8.021,0,0,1,8.158,3.165,8.319,8.319,0,0,1-1.154,11.439.608.608,0,0,0-.16.4,24.874,24.874,0,0,1-.073,2.507,2.243,2.243,0,0,1-2.162,1.9c-.611.036-1.226.016-1.839.021C7162.938-82.447,7162.8-82.448,7162.651-82.448Zm13.065,19.072h24.067V-78.165h-9.166c-.034.208-.078.391-.092.577-.107,1.41-.2,2.82-.314,4.23a1.045,1.045,0,0,1-1.054,1.055q-1.408.021-2.817,0a1,1,0,0,1-1-.845,3.568,3.568,0,0,1-.062-.484c-.105-1.372-.213-2.744-.306-4.117-.021-.308-.121-.422-.453-.418-2.628.029-5.256.038-7.884.052-.3,0-.593,0-.917,0Zm4.586,1.707h-27a1.213,1.213,0,0,0-1.346,1.2,17.933,17.933,0,0,0,0,1.951,1.209,1.209,0,0,0,1.309,1.2c.6,0,1.2-.006,1.8,0a.843.843,0,0,1,.887.867c.01.212,0,.426.01.638a.889.889,0,0,0,.886.888q3.1.016,6.2,0a.89.89,0,0,0,.9-.909c.006-.138,0-.275.006-.413.005-.77.306-1.074,1.064-1.074h7.587q11.55,0,23.1,0a.846.846,0,0,1,.936.925c0,.125,0,.25,0,.376a.969.969,0,0,0,1.108,1.1c1.815,0,3.632-.037,5.446.013,1.212.033,1.583-.44,1.46-1.465,0-.012,0-.025,0-.038a.854.854,0,0,1,.919-.91c.588-.006,1.177,0,1.766,0a1.251,1.251,0,0,0,1.354-1.323q.02-.844,0-1.69a1.265,1.265,0,0,0-1.377-1.343Zm4.726-18.166c.1-1.251.181-2.424.292-3.594a1.016,1.016,0,0,1,1.127-1q1.295,0,2.591,0a1.072,1.072,0,0,1,1.171,1.052c.087,1.034.173,2.07.226,3.106.016.318.088.423.426.421,2.816-.016,5.633-.012,8.45-.015.146,0,.292-.014.521-.025a7.332,7.332,0,0,0-.169-1.165c-.706-2.225-1.448-4.438-2.148-6.664a.555.555,0,0,0-.643-.442c-.864.009-1.728,0-2.591,0q-7.832,0-15.662,0a.537.537,0,0,0-.619.424c-.714,2.261-1.468,4.511-2.181,6.773a5.626,5.626,0,0,0-.127,1.131Zm-23.237-4.3c.939,0,1.877,0,2.816,0,.577,0,.841-.271.847-.853,0-.45.01-.9,0-1.351a1.729,1.729,0,0,0-.085-.584.869.869,0,0,1,.354-1.255,6.708,6.708,0,0,0,2.589-7.064,6.744,6.744,0,0,0-6.339-5.1,6.718,6.718,0,0,0-6.578,4.7,6.516,6.516,0,0,0,.475,5.155,6.615,6.615,0,0,0,2,2.3.867.867,0,0,1,.356,1.255,1.233,1.233,0,0,0-.082.434c-.01.5,0,1,0,1.5,0,.6.267.86.874.861C7159.939-84.133,7160.865-84.134,7161.791-84.134Zm-7.5,20.755h15.042c0-.427,0-.825,0-1.223a2.606,2.606,0,0,0-2.707-2.724q-2.93,0-5.858,0c-1.3,0-2.6-.007-3.9,0a2.537,2.537,0,0,0-2.562,2.263A15.546,15.546,0,0,0,7154.293-63.379Zm32.683-19.329a36.052,36.052,0,0,0,.016,8.692h1.533a31.406,31.406,0,0,0,0-8.692Z" transform="translate(-7150.228 102.021)" fill="#12263f"/>
      <path id="Trazado_157848" data-name="Trazado 157848" d="M7563.891,340.568c-1.8,0-3.605.005-5.408,0a.84.84,0,1,1,.023-1.674c2.378.006,4.757,0,7.135,0q1.841,0,3.681,0a.837.837,0,1,1,.015,1.669C7567.521,340.571,7565.706,340.567,7563.891,340.568Z" transform="translate(-7526.978 -305.765)" fill="#12263f"/>
      <path id="Trazado_157849" data-name="Trazado 157849" d="M7276.6-44.832c-.118.269-.235.539-.355.807-.144.319-.272.647-.439.953a1.254,1.254,0,0,0-.036,1.355,2.373,2.373,0,0,1-.621,2.829,2.5,2.5,0,0,1-2.931.286,2.515,2.515,0,0,1-1.181-2.7,2.44,2.44,0,0,1,2.094-1.924,3.436,3.436,0,0,1,1.105.092.472.472,0,0,0,.49-.119c.6-.542,1.213-1.076,1.82-1.613Zm-3.125,4.876a.8.8,0,0,0,.821-.8.972.972,0,0,0-.837-.813.791.791,0,0,0-.78.794A.8.8,0,0,0,7273.476-39.956Z" transform="translate(-7261.917 49.159)" fill="#12263f"/>
    </g>
  </g>
</svg>
