<svg id="Group_87331" data-name="Group 87331" xmlns="http://www.w3.org/2000/svg" xmlns:xlink="http://www.w3.org/1999/xlink" width="110.493" height="110.491" viewBox="0 0 110.493 110.491">
  <defs>
    <radialGradient id="radial-gradient" cx="0.077" cy="0.019" r="1.465" gradientTransform="matrix(1, 0, 0, -1, 0, 9.666)" gradientUnits="objectBoundingBox">
      <stop offset="0" stop-color="#f4f4f5"/>
      <stop offset="0.477" stop-color="#f7f8fa"/>
      <stop offset="0.715" stop-color="#fff"/>
    </radialGradient>
  </defs>
  <g id="Group_18531" data-name="Group 18531">
    <g id="Group_18423" data-name="Group 18423">
      <g id="Group_18421" data-name="Group 18421">
        <g id="Group_18420" data-name="Group 18420">
          <g id="Group_18419" data-name="Group 18419">
            <path id="Path_40936" data-name="Path 40936" d="M233.291,570.076a55.246,55.246,0,1,1-55.248-55.244h0A55.244,55.244,0,0,1,233.291,570.076Z" transform="translate(-122.8 -514.832)" fill="#fff"/>
          </g>
        </g>
      </g>
      <path id="Path_40937" data-name="Path 40937" d="M233.289,570.076a55.026,55.026,0,1,0,0,.436Z" transform="translate(-122.798 -514.832)" fill="url(#radial-gradient)"/>
      <path id="Path_40938" data-name="Path 40938" d="M213.949,563.818a42.169,42.169,0,1,0-42.168,42.169h0a42.013,42.013,0,0,0,42.168-41.855Z" transform="translate(-116.365 -508.39)" fill="none" stroke="#451991" stroke-miterlimit="10" stroke-width="4"/>
      <g id="Group_18422" data-name="Group 18422" transform="translate(9.788 31.017)">
        <path id="Path_40939" data-name="Path 40939" d="M222.95,530.78a55.252,55.252,0,0,1-95.117,55.014A55.077,55.077,0,0,0,222.95,530.78Z" transform="translate(-127.833 -530.78)" fill="#e7e9eb"/>
      </g>
    </g>
  </g>
  <g id="d5GQ3h" transform="translate(-8279.869 616.218)">
    <g id="Grupo_103733" data-name="Grupo 103733" transform="translate(8314.351 -586.273)">
      <path id="Trazado_157850" data-name="Trazado 157850" d="M8356.339-580.084h-31.5v42.024h10.639a.853.853,0,0,1,.836.594.825.825,0,0,1-.461,1.033,1.063,1.063,0,0,1-.408.077q-5.719.007-11.436,0a.851.851,0,0,1-.881-.874c0-.913,0-1.827,0-2.74v-.2h-.192c-1.124,0-2.249-.015-3.373.006a.912.912,0,0,1-.977-.98c.028-.907.007-1.815.007-2.723v-.2c-.07,0-.133-.009-.194-.009h-3.108a.85.85,0,0,1-.932-.941q0-4.576,0-9.152,0-5.709,0-11.418,0-9.886,0-19.771a.844.844,0,0,1,.9-.914h21.853c3.734,0,7.47.007,11.205-.007a.911.911,0,0,1,.961.956c-.022,1.112-.006,2.225,0,3.337v.177h7.809a.864.864,0,0,1,.967.96q0,8.88,0,17.76a.854.854,0,0,1-1.088.889.848.848,0,0,1-.617-.859q0-1.757,0-3.513,0-5.674,0-11.348v-2.169Zm-40.269-4.48v38.773h2.517v-.981q0-5.866,0-11.733,0-9.283,0-18.565a.856.856,0,0,1,.919-.921q1.616,0,3.231,0h.385v-2.837a.871.871,0,0,1,.971-.976h23.466v-2.76Zm4.231,8.283v34.4h2.81v-34.4Z" transform="translate(-8314.351 586.273)" fill="#12263f"/>
      <path id="Trazado_157851" data-name="Trazado 157851" d="M9020.409,151q0,4.795,0,9.589a2.883,2.883,0,0,1-2.328,2.878,2.53,2.53,0,0,1-.522.054q-7.121,0-14.243,0a2.887,2.887,0,0,1-2.827-2.9c-.006-.454.017-.909.016-1.364,0-.677-.018-1.354-.018-2.03q0-7.93,0-15.859a2.891,2.891,0,0,1,2.427-2.939,3.427,3.427,0,0,1,.629-.04q6.955,0,13.91,0a2.89,2.89,0,0,1,2.958,2.972Q9020.411,146.181,9020.409,151Zm-1.71-.04v-9.626a1.191,1.191,0,0,0-1.235-1.242c-.445,0-.89,0-1.335,0h-12.664a1.2,1.2,0,0,0-1.272,1.227q-.007,8.22-.012,16.44c0,.919.009,1.837.011,2.756a1.207,1.207,0,0,0,1.3,1.3c.5,0,1,0,1.493,0q6.227,0,12.454,0a1.189,1.189,0,0,0,1.26-1.27Z" transform="translate(-8976.38 -112.927)" fill="#12263f"/>
      <path id="Trazado_157852" data-name="Trazado 157852" d="M8750.338-350.566h10.36a.857.857,0,0,1,.936.922c0,.7-.009,1.4-.01,2.107,0,.426.013.853.011,1.279a.862.862,0,0,1-.943.935h-20.753a.862.862,0,0,1-.932-.929q0-1.7,0-3.407a.854.854,0,0,1,.916-.907Zm-9.605,1.717v1.8h19.189v-1.8Z" transform="translate(-8724.087 358.847)" fill="#12263f"/>
      <path id="Trazado_157853" data-name="Trazado 157853" d="M8713.9-100.26h-11.717a.861.861,0,0,1-.9-.659.855.855,0,0,1,.87-1.053c.937,0,1.874,0,2.811,0h20.623a.881.881,0,0,1,.921.61.856.856,0,0,1-.841,1.1c-1.077,0-2.155,0-3.232,0Z" transform="translate(-8687.67 118.989)" fill="#12263f"/>
      <path id="Trazado_157854" data-name="Trazado 157854" d="M8713.862,20h11.748a.855.855,0,0,1,.71,1.372.844.844,0,0,1-.717.339c-.346,0-.691,0-1.037,0h-22.423a.859.859,0,1,1-.012-1.712h11.73Z" transform="translate(-8687.62 1.304)" fill="#12263f"/>
      <path id="Trazado_157855" data-name="Trazado 157855" d="M8705.517,141.924q1.651,0,3.3,0a.852.852,0,0,1,.912.838.866.866,0,0,1-.92.872c-1.142,0-2.282,0-3.423,0-1.036,0-2.072,0-3.107,0a1.237,1.237,0,0,1-.476-.091.822.822,0,0,1-.463-.959.832.832,0,0,1,.823-.657C8703.281,141.922,8704.4,141.924,8705.517,141.924Z" transform="translate(-8687.723 -116.34)" fill="#12263f"/>
      <path id="Trazado_157856" data-name="Trazado 157856" d="M8705.3,387.367h-3.335a.808.808,0,0,1-.8-.521.816.816,0,0,1,.172-.926.84.84,0,0,1,.648-.259c.579,0,1.158,0,1.737,0q2.44,0,4.88,0a.852.852,0,1,1,.05,1.7c-.544.007-1.088,0-1.632,0Z" transform="translate(-8687.505 -351.515)" fill="#12263f"/>
      <path id="Trazado_157857" data-name="Trazado 157857" d="M8705.408,631.162c-1.123,0-2.246,0-3.37,0a.832.832,0,0,1-.836-.766.845.845,0,0,1,.6-.9,1,1,0,0,1,.276-.036q3.316,0,6.635,0a.853.853,0,0,1,.221,1.685,1.2,1.2,0,0,1-.244.016Z" transform="translate(-8687.604 -586.746)" fill="#12263f"/>
      <path id="Trazado_157858" data-name="Trazado 157858" d="M8705.427,509.3c-1.105,0-2.211,0-3.317,0a.852.852,0,1,1,0-1.7q3.318,0,6.635,0a.852.852,0,1,1,0,1.7Q8707.085,509.3,8705.427,509.3Z" transform="translate(-8687.63 -469.166)" fill="#12263f"/>
      <path id="Trazado_157859" data-name="Trazado 157859" d="M8705.471,263.859h3.336a.85.85,0,1,1,0,1.7q-3.186,0-6.371,0a2.1,2.1,0,0,1-.663-.091.776.776,0,0,1-.49-.917.836.836,0,0,1,.833-.688q1.632,0,3.265,0Z" transform="translate(-8687.675 -233.991)" fill="#12263f"/>
      <path id="Trazado_157860" data-name="Trazado 157860" d="M9096.473,227.3h5.883a.856.856,0,0,1,.949.959c0,.708,0,1.416,0,2.125q0,1.025,0,2.05a.848.848,0,0,1-.894.891h-11.849a.844.844,0,0,1-.91-.894q-.007-2.116,0-4.232a.838.838,0,0,1,.922-.9q2.95-.006,5.9,0Zm-5.111,4.306h10.232v-2.584h-10.232Z" transform="translate(-9062.409 -198.718)" fill="#12263f"/>
      <path id="Trazado_157861" data-name="Trazado 157861" d="M9091.64,442.746c-.321,0-.644,0-.965,0a.846.846,0,0,1-.878-.815.835.835,0,0,1,.836-.892c.678-.015,1.357-.014,2.035,0a.854.854,0,0,1-.046,1.707C9092.295,442.748,9091.967,442.746,9091.64,442.746Z" transform="translate(-9062.552 -404.936)" fill="#12263f"/>
      <path id="Trazado_157862" data-name="Trazado 157862" d="M9091.631,531.93c-.322,0-.644,0-.966,0a.845.845,0,0,1-.88-.793.818.818,0,0,1,.815-.9q1.043-.035,2.087,0a.821.821,0,0,1,.795.891.845.845,0,0,1-.869.805c-.328,0-.655,0-.982,0Z" transform="translate(-9062.541 -490.99)" fill="#12263f"/>
      <path id="Trazado_157863" data-name="Trazado 157863" d="M9374.856,532c-.327,0-.655,0-.982,0a.843.843,0,0,1-.858-.8.832.832,0,0,1,.773-.9c.261-.023.525-.011.788-.011.45,0,.9-.015,1.351.009a.827.827,0,0,1,.788.863.839.839,0,0,1-.859.834C9375.523,532,9375.189,532,9374.856,532Z" transform="translate(-9335.82 -491.063)" fill="#12263f"/>
      <path id="Trazado_157864" data-name="Trazado 157864" d="M9374.849,442.854h-.965a.855.855,0,1,1-.021-1.709c.356-.009.714,0,1.07,0,.286,0,.573,0,.859,0a.857.857,0,1,1-.014,1.711Z" transform="translate(-9335.801 -405.043)" fill="#12263f"/>
      <path id="Trazado_157865" data-name="Trazado 157865" d="M9233.134,442.814c-.328,0-.655,0-.982,0a.854.854,0,1,1-.024-1.707c.66-.011,1.321-.008,1.982,0a.788.788,0,0,1,.827.58.831.831,0,0,1-.769,1.126C9233.824,442.826,9233.479,442.814,9233.134,442.814Z" transform="translate(-9199.07 -405.004)" fill="#12263f"/>
      <path id="Trazado_157866" data-name="Trazado 157866" d="M9233.176,532c-.334,0-.667,0-1,0a.852.852,0,0,1-.017-1.7c.654-.009,1.309-.009,1.964-.005a.84.84,0,0,1,.836.526.811.811,0,0,1-.173.924.8.8,0,0,1-.61.26h-1Z" transform="translate(-9199.106 -491.059)" fill="#12263f"/>
      <path id="Trazado_157867" data-name="Trazado 157867" d="M9233.115,710.381c-.328,0-.654,0-.982,0a.85.85,0,1,1-.021-1.7q1.025-.01,2.052,0a.844.844,0,0,1,.485,1.51,1.135,1.135,0,0,1-.517.179C9233.795,710.4,9233.455,710.381,9233.115,710.381Z" transform="translate(-9199.053 -663.18)" fill="#12263f"/>
      <path id="Trazado_157868" data-name="Trazado 157868" d="M9374.821,708.7c.345,0,.69-.007,1.034,0a.85.85,0,0,1,.259,1.652,1.039,1.039,0,0,1-.327.046c-.637,0-1.273,0-1.911,0a.852.852,0,1,1,0-1.7c.315,0,.632,0,.947,0Z" transform="translate(-9335.785 -663.204)" fill="#12263f"/>
      <path id="Trazado_157869" data-name="Trazado 157869" d="M9233.162,621.2c-.333,0-.666,0-1,0a.846.846,0,0,1-.86-.852.837.837,0,0,1,.829-.847c.684-.011,1.369-.011,2.053,0a.848.848,0,0,1-.021,1.7c-.333,0-.666,0-1,0Z" transform="translate(-9199.086 -577.132)" fill="#12263f"/>
      <path id="Trazado_157870" data-name="Trazado 157870" d="M9374.841,621.25c-.327,0-.655,0-.981,0a.851.851,0,1,1-.01-1.7q.99-.009,1.981,0a.828.828,0,0,1,.854.87.843.843,0,0,1-.88.83c-.321,0-.644,0-.965,0Z" transform="translate(-9335.79 -577.179)" fill="#12263f"/>
      <path id="Trazado_157871" data-name="Trazado 157871" d="M9091.613,710.338c-.333,0-.666,0-1,0a.84.84,0,0,1-.851-.839.829.829,0,0,1,.832-.858q1.017-.016,2.034,0a.849.849,0,0,1-.016,1.7C9092.279,710.341,9091.946,710.338,9091.613,710.338Z" transform="translate(-9062.521 -663.138)" fill="#12263f"/>
      <path id="Trazado_157872" data-name="Trazado 157872" d="M9091.636,621.23c-.322,0-.645.008-.966,0a.865.865,0,0,1-.791-.478.842.842,0,0,1,.7-1.215c.432-.018.866-.007,1.3-.008.258,0,.516-.005.773,0a.851.851,0,0,1-.018,1.7c-.334,0-.667,0-1,0Z" transform="translate(-9062.546 -577.161)" fill="#12263f"/>
    </g>
  </g>
</svg>
