<svg id="Group_87331" data-name="Group 87331" xmlns="http://www.w3.org/2000/svg" xmlns:xlink="http://www.w3.org/1999/xlink" width="110.493" height="110.491" viewBox="0 0 110.493 110.491">
  <defs>
    <radialGradient id="radial-gradient" cx="0.077" cy="0.019" r="1.465" gradientTransform="matrix(1, 0, 0, -1, 0, 9.666)" gradientUnits="objectBoundingBox">
      <stop offset="0" stop-color="#f4f4f5"/>
      <stop offset="0.477" stop-color="#f7f8fa"/>
      <stop offset="0.715" stop-color="#fff"/>
    </radialGradient>
  </defs>
  <g id="Group_18531" data-name="Group 18531">
    <g id="Group_18423" data-name="Group 18423">
      <g id="Group_18421" data-name="Group 18421">
        <g id="Group_18420" data-name="Group 18420">
          <g id="Group_18419" data-name="Group 18419">
            <path id="Path_40936" data-name="Path 40936" d="M233.291,570.076a55.246,55.246,0,1,1-55.248-55.244h0A55.244,55.244,0,0,1,233.291,570.076Z" transform="translate(-122.8 -514.832)" fill="#fff"/>
          </g>
        </g>
      </g>
      <path id="Path_40937" data-name="Path 40937" d="M233.289,570.076a55.026,55.026,0,1,0,0,.436Z" transform="translate(-122.798 -514.832)" fill="url(#radial-gradient)"/>
      <path id="Path_40938" data-name="Path 40938" d="M213.949,563.818a42.169,42.169,0,1,0-42.168,42.169h0a42.013,42.013,0,0,0,42.168-41.855Z" transform="translate(-116.365 -508.39)" fill="none" stroke="#451991" stroke-miterlimit="10" stroke-width="4"/>
      <g id="Group_18422" data-name="Group 18422" transform="translate(9.788 31.017)">
        <path id="Path_40939" data-name="Path 40939" d="M222.95,530.78a55.252,55.252,0,0,1-95.117,55.014A55.077,55.077,0,0,0,222.95,530.78Z" transform="translate(-127.833 -530.78)" fill="#e7e9eb"/>
      </g>
    </g>
  </g>
  <g id="n1xURK" transform="translate(-6068.47 -1223.741)">
    <g id="Grupo_103734" data-name="Grupo 103734" transform="translate(6098.694 1253.709)">
      <path id="Trazado_157873" data-name="Trazado 157873" d="M6139.821,1260.876c-.367-.018-.625-.042-.881-.042-3.025,0-6.051.026-9.075-.019-.786-.012-.968.245-.954.986.043,2.235.024,4.472,0,6.708a3.748,3.748,0,0,1-.257.93,4.708,4.708,0,0,1-.884-.4c-.743-.542-1.484-1.094-2.173-1.7a.838.838,0,0,0-1.333-.022,29.713,29.713,0,0,1-2.359,1.848c-.207.151-.587.313-.742.222-.177-.1-.264-.484-.267-.745-.019-2.341-.033-4.683,0-7.024.011-.642-.209-.794-.812-.79q-5.88.033-11.759,0c-.581,0-.767.161-.766.756q.025,15.389,0,30.779c0,.61.2.748.773.745,3.578-.021,7.156-.01,10.733-.01a1.244,1.244,0,0,1,.469.011,8.637,8.637,0,0,1,.828.473c-.268.135-.533.384-.8.388-2.419.031-4.84.018-7.26.018a16.279,16.279,0,0,0-2.208.016,6.557,6.557,0,0,1-5.621-1.906c-1.624-1.487-3.473-2.727-5.184-4.123a1.617,1.617,0,0,1-.559-1.088c-.029-10.733-.017-21.466-.039-32.2,0-.783.28-.973,1.012-.971,10.68.018,21.361.007,32.041.029a2.15,2.15,0,0,1,1.215.4c2.405,1.832,4.771,3.716,7.17,5.558a1.407,1.407,0,0,1,.605,1.259c-.025,3.051-.012,6.1-.013,9.155a1.355,1.355,0,0,1-.03.545c-.076.16-.268.37-.406.367a.634.634,0,0,1-.43-.355,1.637,1.637,0,0,1-.036-.623q0-4.1,0-8.208Zm-33.194,31.69c.027-.342.051-.5.051-.652q0-15.35-.018-30.7a1.425,1.425,0,0,0-.49-.963c-1.925-1.551-3.883-3.06-5.833-4.579-.192-.15-.4-.281-.737-.516v1.129c0,9.444.053,18.888-.044,28.331a4.109,4.109,0,0,0,1.955,4.025C6103.265,1289.775,6104.843,1291.179,6106.627,1292.566Zm13.29-32.672c-2.381-1.791-4.558-3.44-6.757-5.059a1.591,1.591,0,0,0-.887-.2q-5.44-.02-10.88-.006c-.215,0-.43.036-.828.073,2.139,1.668,4.109,3.234,6.12,4.747a2.431,2.431,0,0,0,1.343.47c3.626.038,7.253.022,10.88.02C6119.16,1259.937,6119.414,1259.917,6119.917,1259.894Zm2.188-5.265-.065.164c.2.159.385.326.586.477,1.889,1.421,3.769,2.855,5.681,4.244a2.242,2.242,0,0,0,1.211.407c2.785.035,5.571.019,8.355.015.248,0,.5-.03.88-.054a4.458,4.458,0,0,0-.351-.364q-2.979-2.331-5.967-4.65a1.019,1.019,0,0,0-.563-.228C6128.617,1254.625,6125.361,1254.629,6122.105,1254.629Zm5.853,13.422a3.582,3.582,0,0,0,.083-.457c0-2.047,0-4.094.017-6.141,0-.484-.178-.635-.648-.629-1.627.02-3.255.03-4.881,0-.59-.012-.768.178-.758.765.033,1.915.012,3.831.018,5.747a7.007,7.007,0,0,0,.086.7l2.14-1.653c.916-.707.915-.706,1.851.028C6126.532,1266.936,6127.2,1267.458,6127.958,1268.052Zm-13.233-13.422-.058.181c1.9,1.433,3.829,2.834,5.693,4.316a3.467,3.467,0,0,0,2.511.829c1.2-.071,2.413-.013,3.62-.021a5.711,5.711,0,0,0,.695-.107c-2.331-1.749-4.51-3.388-6.7-5.016a.91.91,0,0,0-.5-.174C6118.233,1254.625,6116.479,1254.63,6114.726,1254.63Z" transform="translate(-6098.694 -1253.709)" fill="#12263f"/>
      <path id="Trazado_157874" data-name="Trazado 157874" d="M6249.707,1391.327q0-7.735,0-15.47c0-1.526.443-1.959,1.983-1.96q9.984,0,19.97,0c1.556,0,2.021.467,2.021,2.025q0,3.473,0,6.946a1.547,1.547,0,0,1-.024.623c-.1.2-.318.332-.486.493-.127-.169-.35-.331-.364-.509-.048-.6-.022-1.209-.022-1.814,0-1.973-.013-3.947.006-5.92.007-.666-.248-.946-.932-.944q-10.181.019-20.363,0c-.705,0-.921.314-.916.959.014,1.868,0,3.736,0,5.6q0,12.629,0,25.257c0,1.347.02,1.365,1.368,1.365l19.653,0c1.1,0,1.179-.079,1.18-1.155,0-2.342-.013-4.683.019-7.025,0-.273.251-.543.385-.815.165.272.469.542.473.817.038,2.446.029,4.893.019,7.34a1.53,1.53,0,0,1-1.749,1.742q-10.221.007-20.443,0c-1.256,0-1.776-.515-1.777-1.771Q6249.7,1399.22,6249.707,1391.327Z" transform="translate(-6225.864 -1354.921)" fill="#12263f"/>
      <path id="Trazado_157875" data-name="Trazado 157875" d="M6276.939,1394.752q3.788,0,7.576,0c1.147,0,1.565.408,1.577,1.571q.023,2.328,0,4.656c-.013,1.115-.424,1.532-1.53,1.534q-7.615.011-15.23,0c-1.073,0-1.467-.414-1.473-1.487-.009-1.552-.006-3.1,0-4.656,0-1.225.383-1.613,1.59-1.614Q6273.191,1394.748,6276.939,1394.752Zm.078.9c-2.5,0-4.991.012-7.487-.01-.567-.005-.8.162-.791.759.03,1.5.025,3,0,4.492-.008.539.184.753.729.751q7.487-.016,14.975,0c.59,0,.78-.246.771-.807-.022-1.445-.032-2.89,0-4.335.015-.652-.217-.872-.87-.864C6281.9,1395.67,6279.461,1395.653,6277.018,1395.653Z" transform="translate(-6241.143 -1372.483)" fill="#12263f"/>
      <path id="Trazado_157876" data-name="Trazado 157876" d="M6166.189,1314.185c0-1.6-.006-3.2,0-4.807.005-.921.251-1.181,1.167-1.186q3.585-.019,7.171,0c.966,0,1.21.261,1.211,1.222q.007,4.767,0,9.535c0,.976-.244,1.224-1.208,1.228q-3.586.012-7.171,0c-.925,0-1.166-.257-1.171-1.179C6166.184,1317.389,6166.189,1315.787,6166.189,1314.185Zm8.6-5.061c-.307-.018-.539-.044-.77-.045-2.05,0-4.1.021-6.15-.017-.629-.011-.8.183-.8.8.03,2.891.012,5.782.017,8.674,0,.226.037.451.059.7h7.643Z" transform="translate(-6155.531 -1299.582)" fill="#12263f"/>
      <path id="Trazado_157877" data-name="Trazado 157877" d="M6376.24,1452.3a6.071,6.071,0,1,1-12.143-.054,6.071,6.071,0,1,1,12.143.054Zm-.893-.024a5.172,5.172,0,1,0-5.15,5.186A5.2,5.2,0,0,0,6375.348,1452.272Z" transform="translate(-6322.195 -1415.8)" fill="#12263f"/>
      <path id="Trazado_157878" data-name="Trazado 157878" d="M6351.948,1506.717c0-1.1-.077-2.217.031-3.31a5.851,5.851,0,0,1,.674-1.876c.067-.139.473-.115.723-.165a4.066,4.066,0,0,1-.052.706,8.673,8.673,0,0,0-.45,1.7c-.056,2.05-.027,4.1-.02,6.153a1.879,1.879,0,0,0,1.842,2.107,1.859,1.859,0,0,0,1.894-2.059c.026-1.209-.015-2.42.029-3.628.009-.246.264-.483.4-.724.149.233.42.462.428.7q.062,1.97.009,3.944a2.7,2.7,0,0,1-2.738,2.678,2.762,2.762,0,0,1-2.767-2.675c-.023-.6-.007-1.209-.007-1.814Q6351.947,1507.585,6351.948,1506.717Z" transform="translate(-6311.942 -1462.266)" fill="#12263f"/>
      <path id="Trazado_157879" data-name="Trazado 157879" d="M6202.258,1443.31a7.45,7.45,0,0,1-.855.892,1.806,1.806,0,0,1-.676.155c-.007-.233-.114-.546,0-.684a20.1,20.1,0,0,1,1.686-1.872.73.73,0,0,1,.715-.021,20.041,20.041,0,0,1,1.687,1.87c.118.148.034.458.042.693-.229-.035-.512,0-.678-.122a7.355,7.355,0,0,1-.87-.929v4.958a6.364,6.364,0,0,1,1.008.074c.164.037.291.235.435.36-.141.156-.277.442-.424.448-1.022.039-2.049.038-3.071,0-.145-.006-.277-.292-.416-.448.143-.125.268-.32.431-.358a5.9,5.9,0,0,1,.991-.068Z" transform="translate(-6184.573 -1412.016)" fill="#12263f"/>
      <path id="Trazado_157880" data-name="Trazado 157880" d="M6311.563,1545.754a2.711,2.711,0,1,1,2.7-2.687A2.676,2.676,0,0,1,6311.563,1545.754Zm.035-.909a1.809,1.809,0,0,0,1.787-1.813,1.864,1.864,0,0,0-1.81-1.817,1.819,1.819,0,0,0-1.81,1.877A1.77,1.77,0,0,0,6311.6,1544.845Z" transform="translate(-6275.68 -1495.081)" fill="#12263f"/>
      <path id="Trazado_157881" data-name="Trazado 157881" d="M6311.6,1501.618a2.718,2.718,0,1,1,2.682-2.719A2.691,2.691,0,0,1,6311.6,1501.618Zm0-.908a1.829,1.829,0,0,0,1.793-1.816,1.863,1.863,0,0,0-1.8-1.823,1.832,1.832,0,0,0-1.816,1.873A1.789,1.789,0,0,0,6311.606,1500.71Z" transform="translate(-6275.695 -1457.901)" fill="#12263f"/>
      <path id="Trazado_157882" data-name="Trazado 157882" d="M6268.762,1501.6a2.719,2.719,0,1,1,2.757-2.669A2.732,2.732,0,0,1,6268.762,1501.6Zm.063-.909a1.833,1.833,0,0,0,1.79-1.825,1.82,1.82,0,1,0-3.639.068A1.817,1.817,0,0,0,6268.825,1500.694Z" transform="translate(-6239.641 -1457.886)" fill="#12263f"/>
      <path id="Trazado_157883" data-name="Trazado 157883" d="M6171.419,1443.378a8.073,8.073,0,0,1-.851.885c-.137.108-.41.043-.621.057-.008-.212-.109-.5-.009-.624a22.879,22.879,0,0,1,1.734-1.931.73.73,0,0,1,.716,0,20.27,20.27,0,0,1,1.688,1.866c.115.143.028.448.034.679-.23-.031-.512.01-.679-.109a6.472,6.472,0,0,0-.959-.748v1.974c0,.709.025,1.419-.009,2.126-.026.537.148.745.709.744.271,0,.758.221.773.38.056.552-.443.456-.789.462-.813.015-1.629.034-2.44-.014-.224-.013-.434-.258-.651-.4.226-.152.461-.447.674-.431.716.052.9-.229.872-.908-.049-1.307-.014-2.616-.014-3.925Z" transform="translate(-6158.653 -1411.998)" fill="#12263f"/>
      <path id="Trazado_157884" data-name="Trazado 157884" d="M6268.811,1545.725a2.715,2.715,0,1,1,2.718-2.7A2.714,2.714,0,0,1,6268.811,1545.725Zm0-.908a1.814,1.814,0,0,0,1.813-1.79,1.817,1.817,0,1,0-3.634.011A1.8,1.8,0,0,0,6268.807,1544.816Z" transform="translate(-6239.651 -1495.049)" fill="#12263f"/>
      <path id="Trazado_157885" data-name="Trazado 157885" d="M6320.233,1462.184c-.577,0-1.156.027-1.731-.007a1.51,1.51,0,0,1-1.482-1.528,1.461,1.461,0,0,1,1.416-1.5c1.2-.051,2.414-.052,3.617,0a1.471,1.471,0,0,1,1.407,1.511,1.525,1.525,0,0,1-1.5,1.519c-.052,0-.1,0-.157,0Zm-.01-.9a8.3,8.3,0,0,0,1.568-.028c.278-.054.5-.393.749-.6-.25-.212-.49-.588-.753-.606a22.758,22.758,0,0,0-3.142,0c-.25.018-.473.424-.709.652.238.194.456.511.72.557A9.169,9.169,0,0,0,6320.223,1461.281Z" transform="translate(-6282.55 -1426.682)" fill="#12263f"/>
      <path id="Trazado_157886" data-name="Trazado 157886" d="M6270.362,1462.164c-.55,0-1.1.024-1.651,0a1.557,1.557,0,0,1-1.524-1.5,1.51,1.51,0,0,1,1.48-1.533c1.178-.048,2.36-.049,3.538,0a1.46,1.46,0,0,1,1.422,1.568,1.48,1.48,0,0,1-1.457,1.461C6271.57,1462.191,6270.966,1462.163,6270.362,1462.164Zm.057-.9a9.5,9.5,0,0,0,1.646-.03c.246-.043.436-.4.651-.617-.2-.2-.4-.567-.612-.578a32.439,32.439,0,0,0-3.379,0c-.216.011-.413.38-.619.583.22.214.416.568.666.612A9.728,9.728,0,0,0,6270.419,1461.26Z" transform="translate(-6240.584 -1426.664)" fill="#12263f"/>
      <path id="Trazado_157887" data-name="Trazado 157887" d="M6306.624,1336.547c-.895,0-1.791.033-2.682-.021-.274-.017-.533-.273-.8-.419.253-.152.5-.429.761-.435q2.681-.058,5.364,0c.267.005.53.26.794.4-.278.159-.548.435-.837.455C6308.362,1336.586,6307.492,1336.547,6306.624,1336.547Z" transform="translate(-6270.864 -1322.708)" fill="#12263f"/>
      <path id="Trazado_157888" data-name="Trazado 157888" d="M6306.575,1316.147c-.92,0-1.842.03-2.76-.019-.238-.013-.462-.274-.693-.422.236-.146.469-.414.708-.418q2.76-.051,5.521.005c.235,0,.466.279.7.428-.238.142-.47.393-.715.406C6308.418,1316.176,6307.5,1316.146,6306.575,1316.147Z" transform="translate(-6270.847 -1305.546)" fill="#12263f"/>
      <path id="Trazado_157889" data-name="Trazado 157889" d="M6348.07,1417.465a8.716,8.716,0,0,1-1.327-.021c-.193-.03-.352-.288-.527-.442.165-.133.325-.375.494-.382.911-.038,1.826-.037,2.736,0,.164.007.316.257.475.395-.148.148-.283.4-.448.422a11.252,11.252,0,0,1-1.4.021Z" transform="translate(-6307.138 -1390.876)" fill="#12263f"/>
      <path id="Trazado_157890" data-name="Trazado 157890" d="M6283.285,1416.558a7.936,7.936,0,0,1,1.258.02c.195.031.354.277.53.426-.161.14-.317.393-.483.4-.918.038-1.839.037-2.756-.005-.159-.007-.306-.278-.459-.427.164-.137.316-.371.493-.392a12.011,12.011,0,0,1,1.417-.019Z" transform="translate(-6252.533 -1390.834)" fill="#12263f"/>
      <path id="Trazado_157891" data-name="Trazado 157891" d="M6316.333,1416.557a8.522,8.522,0,0,1,1.25.018c.2.03.374.253.56.388-.167.155-.326.434-.5.443a25.863,25.863,0,0,1-2.657,0c-.187-.01-.358-.279-.537-.428.185-.14.357-.373.559-.4A9.543,9.543,0,0,1,6316.333,1416.557Z" transform="translate(-6280.384 -1390.834)" fill="#12263f"/>
      <path id="Trazado_157892" data-name="Trazado 157892" d="M6184.3,1327.11v1.372c.247.052.478.086.7.151a1.68,1.68,0,0,1,1.192,1.667,1.7,1.7,0,0,1-1.326,1.564,1.613,1.613,0,0,0-.683.468c-.283.294-.485.3-.776,0a1.917,1.917,0,0,0-.762-.488,1.59,1.59,0,0,1-1.193-1.41c-.023-.193.2-.416.317-.624.18.142.463.252.519.432.153.493.385.783,1.008.708v-1.425c-.9-.089-1.634-.413-1.825-1.412a1.859,1.859,0,0,1,1.265-1.989,2.345,2.345,0,0,1,2.206.03c.619.278,1.251.817,1.234,1.474,0,.2-.24.392-.37.588-.166-.129-.432-.228-.48-.391C6185.185,1327.34,6185,1326.994,6184.3,1327.11Zm-.235,3.139.52.728c.232-.234.671-.492.647-.7-.033-.289-.408-.538-.638-.8Zm-.741-3.354c-.393.243-.736.345-.868.571a.874.874,0,0,0,.061.784c.135.19.476.235.807.379Z" transform="translate(-6168.376 -1314.47)" fill="#12263f"/>
      <path id="Trazado_157893" data-name="Trazado 157893" d="M6387.409,1469.084c-1.277-.18-1.889-.616-2-1.589-.028-.242.2-.514.311-.772.175.182.439.335.511.551a1,1,0,0,0,1.353.785v-1.812c-.23-.03-.458-.05-.682-.092a1.868,1.868,0,0,1-1.543-1.914,1.907,1.907,0,0,1,1.645-1.835c.254-.044.462-.316.719-.387a1.443,1.443,0,0,1,.761.014c.257.076.469.336.725.384a1.821,1.821,0,0,1,1.573,1.621c0,.229-.214.462-.331.693-.181-.177-.45-.322-.528-.537-.275-.758-.42-.877-1.312-.8v1.828c.209.025.411.039.61.074a1.892,1.892,0,0,1-.073,3.745,1.267,1.267,0,0,0-.56.175,4.793,4.793,0,0,0-.582.6Zm.2-5.648-.185-.231c-.347.2-.819.325-1,.626a1.168,1.168,0,0,0,.086,1.059c.187.256.649.312,1.1.5Zm.977,4.892c.483-.261.94-.364,1.111-.643a1.2,1.2,0,0,0-.009-1.063c-.172-.274-.629-.369-1.1-.615Z" transform="translate(-6340.095 -1429.093)" fill="#12263f"/>
    </g>
  </g>
</svg>
