<svg xmlns="http://www.w3.org/2000/svg" xmlns:xlink="http://www.w3.org/1999/xlink" width="616.384" height="301.681" viewBox="0 0 616.384 301.681">
  <defs>
    <linearGradient id="linear-gradient" x1="0.5" x2="0.5" y2="1" gradientUnits="objectBoundingBox">
      <stop offset="0" stop-color="#fff"/>
      <stop offset="1" stop-color="#f8f8f8"/>
    </linearGradient>
    <filter id="Rectángulo_33309" x="0" y="0" width="616.384" height="301.681" filterUnits="userSpaceOnUse">
      <feOffset dy="3" input="SourceAlpha"/>
      <feGaussianBlur stdDeviation="3" result="blur"/>
      <feFlood flood-opacity="0.161"/>
      <feComposite operator="in" in2="blur"/>
      <feComposite in="SourceGraphic"/>
    </filter>
  </defs>
  <g id="Grupo_103735" data-name="Grupo 103735" transform="translate(-6626.761 -1618.209)">
    <g id="Grupo_103736" data-name="Grupo 103736" transform="translate(6612.854 1600.894)">
      <g transform="matrix(1, 0, 0, 1, 13.91, 17.32)" filter="url(#Rectángulo_33309)">
        <rect id="Rectángulo_33309-2" data-name="Rectángulo 33309" width="598.384" height="283.681" rx="10" transform="translate(9 6)" fill="url(#linear-gradient)"/>
      </g>
      <rect id="Rectángulo_34101" data-name="Rectángulo 34101" width="190.384" height="6.681" transform="translate(226.908 23.315)" fill="#6737bb"/>
    </g>
    <rect id="Rectángulo_34097" data-name="Rectángulo 34097" width="112.473" height="36.617" rx="3" transform="translate(7085.178 1848.003)" fill="#12263f"/>
    <path id="Trazado_173635" data-name="Trazado 173635" d="M31.611-17.637q0,8.848-3.662,13.535T17.227.586q-6.973,0-10.664-4.6T2.783-17.2v-7.852q0-8.936,3.706-13.564t10.679-4.629q6.973,0,10.664,4.585t3.779,13.169Zm-8.467-8.633q0-5.308-1.45-7.728a4.9,4.9,0,0,0-4.526-2.419,4.814,4.814,0,0,0-4.409,2.3q-1.421,2.3-1.509,7.2v10.381q0,5.22,1.421,7.757A4.836,4.836,0,0,0,17.227-6.24a4.755,4.755,0,0,0,4.482-2.434q1.377-2.434,1.436-7.449Zm41.982-5.049a9.922,9.922,0,0,1-1.553,5.508A11.176,11.176,0,0,1,59.3-21.973a12.371,12.371,0,0,1,4.922,4.116,10.559,10.559,0,0,1,1.816,6.167A11.181,11.181,0,0,1,62.168-2.71Q58.3.586,51.65.586T41.1-2.725a11.153,11.153,0,0,1-3.9-8.965,10.627,10.627,0,0,1,1.816-6.182,12.147,12.147,0,0,1,4.893-4.1,11.061,11.061,0,0,1-4.263-3.838,9.992,9.992,0,0,1-1.538-5.508A11.056,11.056,0,0,1,41.748-40q3.633-3.237,9.873-3.237,6.211,0,9.858,3.208A11.014,11.014,0,0,1,65.127-31.318ZM57.539-12.3a6.142,6.142,0,0,0-1.611-4.453,5.745,5.745,0,0,0-4.336-1.67,5.735,5.735,0,0,0-4.307,1.655A6.131,6.131,0,0,0,45.674-12.3,6.127,6.127,0,0,0,47.256-7.91,5.762,5.762,0,0,0,51.65-6.24a5.749,5.749,0,0,0,4.321-1.611A6.116,6.116,0,0,0,57.539-12.3Zm-.879-18.6a5.86,5.86,0,0,0-1.318-4,4.678,4.678,0,0,0-3.721-1.509,4.711,4.711,0,0,0-3.691,1.465,5.825,5.825,0,0,0-1.318,4.043,6.122,6.122,0,0,0,1.318,4.1,4.614,4.614,0,0,0,3.721,1.553,4.57,4.57,0,0,0,3.706-1.553A6.167,6.167,0,0,0,56.66-30.908ZM72.539-4.16A4.262,4.262,0,0,1,73.9-7.441,4.834,4.834,0,0,1,77.314-8.7a4.873,4.873,0,0,1,3.442,1.26A4.262,4.262,0,0,1,82.119-4.16,4.2,4.2,0,0,1,80.771-.923,4.894,4.894,0,0,1,77.314.322,4.854,4.854,0,0,1,73.887-.923,4.2,4.2,0,0,1,72.539-4.16Zm45.352-13.477q0,8.848-3.662,13.535T103.506.586q-6.973,0-10.664-4.6T89.063-17.2v-7.852q0-8.936,3.706-13.564t10.679-4.629q6.973,0,10.664,4.585t3.779,13.169Zm-8.467-8.633q0-5.308-1.45-7.728a4.9,4.9,0,0,0-4.526-2.419,4.814,4.814,0,0,0-4.409,2.3q-1.421,2.3-1.509,7.2v10.381q0,5.22,1.421,7.757a4.836,4.836,0,0,0,4.556,2.537,4.755,4.755,0,0,0,4.482-2.434q1.377-2.434,1.436-7.449Zm39.229,10.215h4.834v6.826h-4.834V0h-8.467V-9.229H122.7l-.381-5.332,17.783-28.1h8.555Zm-17.9,0h9.434V-31.113l-.557.967ZM158.818-4.16a4.262,4.262,0,0,1,1.362-3.281,4.834,4.834,0,0,1,3.413-1.26,4.873,4.873,0,0,1,3.442,1.26A4.262,4.262,0,0,1,168.4-4.16a4.2,4.2,0,0,1-1.348,3.237A4.894,4.894,0,0,1,163.594.322a4.854,4.854,0,0,1-3.428-1.245A4.2,4.2,0,0,1,158.818-4.16Zm41.689-11.895h4.834v6.826h-4.834V0h-8.467V-9.229h-17.49l-.381-5.332,17.783-28.1h8.555Zm-17.9,0h9.434V-31.113l-.557.967Zm55.986-1.582q0,8.848-3.662,13.535T224.209.586q-6.973,0-10.664-4.6T209.766-17.2v-7.852q0-8.936,3.706-13.564t10.679-4.629q6.973,0,10.664,4.585t3.779,13.169Zm-8.467-8.633q0-5.308-1.45-7.728a4.9,4.9,0,0,0-4.526-2.419,4.814,4.814,0,0,0-4.409,2.3q-1.421,2.3-1.509,7.2v10.381q0,5.22,1.421,7.757a4.836,4.836,0,0,0,4.556,2.537,4.755,4.755,0,0,0,4.482-2.434q1.377-2.434,1.436-7.449ZM245.1-4.16a4.262,4.262,0,0,1,1.362-3.281,4.834,4.834,0,0,1,3.413-1.26,4.873,4.873,0,0,1,3.442,1.26,4.262,4.262,0,0,1,1.362,3.281A4.2,4.2,0,0,1,253.33-.923,4.894,4.894,0,0,1,249.873.322a4.854,4.854,0,0,1-3.428-1.245A4.2,4.2,0,0,1,245.1-4.16Zm60.293-13.477q0,8.848-3.662,13.535T291.006.586q-6.973,0-10.664-4.6T276.563-17.2v-7.852q0-8.936,3.706-13.564t10.679-4.629q6.973,0,10.664,4.585t3.779,13.169Zm-8.467-8.633q0-5.308-1.45-7.728a4.9,4.9,0,0,0-4.526-2.419,4.814,4.814,0,0,0-4.409,2.3q-1.421,2.3-1.509,7.2v10.381q0,5.22,1.421,7.757a4.836,4.836,0,0,0,4.556,2.537,4.755,4.755,0,0,0,4.482-2.434q1.377-2.434,1.436-7.449Zm42.891,8.633q0,8.848-3.662,13.535T325.43.586q-6.973,0-10.664-4.6T310.986-17.2v-7.852q0-8.936,3.706-13.564t10.679-4.629q6.973,0,10.664,4.585t3.779,13.169Zm-8.467-8.633q0-5.308-1.45-7.728a4.9,4.9,0,0,0-4.526-2.419,4.814,4.814,0,0,0-4.409,2.3q-1.421,2.3-1.509,7.2v10.381q0,5.22,1.421,7.757A4.836,4.836,0,0,0,325.43-6.24a4.755,4.755,0,0,0,4.482-2.434q1.377-2.434,1.436-7.449ZM346.318-4.16a4.262,4.262,0,0,1,1.362-3.281,4.834,4.834,0,0,1,3.413-1.26,4.873,4.873,0,0,1,3.442,1.26A4.262,4.262,0,0,1,355.9-4.16a4.2,4.2,0,0,1-1.348,3.237A4.894,4.894,0,0,1,351.094.322a4.854,4.854,0,0,1-3.428-1.245A4.2,4.2,0,0,1,346.318-4.16ZM466.377-17.637q0,8.848-3.662,13.535T451.992.586q-6.973,0-10.664-4.6T437.549-17.2v-7.852q0-8.936,3.706-13.564t10.679-4.629q6.973,0,10.664,4.585t3.779,13.169Zm-8.467-8.633q0-5.308-1.45-7.728a4.9,4.9,0,0,0-4.526-2.419,4.814,4.814,0,0,0-4.409,2.3q-1.421,2.3-1.509,7.2v10.381q0,5.22,1.421,7.757a4.836,4.836,0,0,0,4.556,2.537,4.755,4.755,0,0,0,4.482-2.434q1.377-2.434,1.436-7.449ZM500.8-17.637q0,8.848-3.662,13.535T486.416.586q-6.973,0-10.664-4.6T471.973-17.2v-7.852q0-8.936,3.706-13.564t10.679-4.629q6.973,0,10.664,4.585T500.8-25.488Zm-8.467-8.633q0-5.308-1.45-7.728a4.9,4.9,0,0,0-4.526-2.419,4.814,4.814,0,0,0-4.409,2.3q-1.421,2.3-1.509,7.2v10.381q0,5.22,1.421,7.757a4.836,4.836,0,0,0,4.556,2.537A4.755,4.755,0,0,0,490.9-8.674q1.377-2.434,1.436-7.449Z" transform="translate(6673.895 1705.406)" fill="#12263f"/>
    <line id="Línea_188" data-name="Línea 188" x2="505.496" transform="translate(6676.719 1718.349)" fill="none" stroke="#12263f" stroke-miterlimit="10" stroke-width="3"/>
    <line id="Línea_189" data-name="Línea 189" x2="317.356" transform="translate(6676.719 1739.647)" fill="none" stroke="#dc9ce8" stroke-miterlimit="10" stroke-width="3"/>
    <line id="Línea_190" data-name="Línea 190" x2="252.748" transform="translate(6676.719 1760.944)" fill="none" stroke="#451991" stroke-miterlimit="10" stroke-width="3"/>
    <line id="Línea_191" data-name="Línea 191" x2="165.283" transform="translate(6676.719 1782.242)" fill="none" stroke="#36a3f7" stroke-miterlimit="10" stroke-width="3"/>
    <g id="vw0tez.tif" transform="translate(7133.05 1730.181)">
      <g id="Group_88565" data-name="Group 88565">
        <path id="Path_140945" data-name="Path 140945" d="M7070.045,1708.352c0,.336-.013.675-.013,1.01v93.381h4.619l-8.364,17.073-8.365-16.995h4.587c.01-.326.016-.655.02-.987v-92.88c0-.2-.006-.406-.012-.6Z" transform="translate(-7057.922 -1708.351)" fill="#12263f"/>
      </g>
    </g>
    <path id="Trazado_173639" data-name="Trazado 173639" d="M-23.014-1.679a.677.677,0,0,0-.264-.573,3.458,3.458,0,0,0-.949-.422,6.729,6.729,0,0,1-1.085-.437A1.773,1.773,0,0,1-26.4-4.7a1.545,1.545,0,0,1,.292-.925,1.906,1.906,0,0,1,.839-.635,3.159,3.159,0,0,1,1.228-.229,2.876,2.876,0,0,1,1.222.248,1.945,1.945,0,0,1,.833.7,1.834,1.834,0,0,1,.3,1.028H-23.01a.863.863,0,0,0-.277-.683,1.138,1.138,0,0,0-.778-.244,1.216,1.216,0,0,0-.751.2.645.645,0,0,0-.268.538.617.617,0,0,0,.314.523,3.55,3.55,0,0,0,.925.4,4,4,0,0,1,1.639.839,1.672,1.672,0,0,1,.514,1.248,1.54,1.54,0,0,1-.628,1.3,2.751,2.751,0,0,1-1.692.472,3.267,3.267,0,0,1-1.345-.27,2.128,2.128,0,0,1-.925-.74,1.9,1.9,0,0,1-.319-1.09h1.323q0,1.059,1.266,1.059a1.231,1.231,0,0,0,.734-.191A.622.622,0,0,0-23.014-1.679Zm7.058-4.72v4.214a2.158,2.158,0,0,1-.657,1.661,2.533,2.533,0,0,1-1.8.611,2.561,2.561,0,0,1-1.78-.593,2.121,2.121,0,0,1-.672-1.63V-6.4h1.318v4.223a1.219,1.219,0,0,0,.3.916,1.156,1.156,0,0,0,.833.288q1.112,0,1.129-1.169V-6.4ZM-14.875,0V-6.4h2.241a2.943,2.943,0,0,1,1.767.446,1.525,1.525,0,0,1,.6,1.307,1.446,1.446,0,0,1-.242.828,1.4,1.4,0,0,1-.672.525,1.351,1.351,0,0,1,.776.5,1.468,1.468,0,0,1,.283.914,1.689,1.689,0,0,1-.589,1.4A2.651,2.651,0,0,1-12.388,0Zm1.318-2.786v1.727h1.129a1.09,1.09,0,0,0,.727-.222.761.761,0,0,0,.261-.613.8.8,0,0,0-.91-.892Zm0-.932h.976q1-.018,1-.8a.735.735,0,0,0-.253-.626,1.329,1.329,0,0,0-.8-.191h-.923Zm5.744,1.463V0H-9.132V-6.4h2.5a2.888,2.888,0,0,1,1.268.264,1.943,1.943,0,0,1,.842.749A2.089,2.089,0,0,1-4.232-4.28,1.837,1.837,0,0,1-4.876-2.8a2.681,2.681,0,0,1-1.782.543Zm0-1.068h1.178a1.158,1.158,0,0,0,.8-.246.9.9,0,0,0,.275-.7,1.055,1.055,0,0,0-.277-.76,1.034,1.034,0,0,0-.765-.3H-7.813Zm7.317,2H-2.808L-3.248,0h-1.4l2.382-6.4h1.222L1.349,0h-1.4ZM-2.452-2.386h1.6l-.8-2.4Zm6.768.044H3.265V0H1.947V-6.4H4.324a2.688,2.688,0,0,1,1.749.505,1.744,1.744,0,0,1,.615,1.428,1.969,1.969,0,0,1-.283,1.092,1.933,1.933,0,0,1-.859.7L6.93-.062V0H5.515ZM3.265-3.41H4.329A1.089,1.089,0,0,0,5.1-3.663a.9.9,0,0,0,.272-.7.967.967,0,0,0-.257-.712,1.068,1.068,0,0,0-.789-.259H3.265Zm9.022-1.92h-1.96V0H9.009V-5.331H7.075V-6.4h5.212ZM14.44,0H13.122V-6.4H14.44Zm1.222,0V-6.4h1.969a2.99,2.99,0,0,1,1.51.38A2.651,2.651,0,0,1,20.18-4.937a3.334,3.334,0,0,1,.374,1.593v.294a3.344,3.344,0,0,1-.367,1.586A2.628,2.628,0,0,1,19.151-.387,3.012,3.012,0,0,1,17.644,0ZM16.98-5.331v4.271h.637A1.432,1.432,0,0,0,18.8-1.564a2.284,2.284,0,0,0,.417-1.446v-.338a2.32,2.32,0,0,0-.4-1.479,1.427,1.427,0,0,0-1.182-.5Zm8.051,4.012H22.72L22.28,0h-1.4L23.26-6.4h1.222l2.4,6.4h-1.4ZM23.076-2.386h1.6l-.8-2.4ZM-36.132,7.682h-2.312L-38.883,9h-1.4L-37.9,2.6h1.222l2.4,6.4h-1.4Zm-1.956-1.068h1.6l-.8-2.4ZM-26.244,9h-1.318l-2.566-4.21V9h-1.318V2.6h1.318l2.571,4.219V2.6h1.314Zm2.553,0h-1.318V2.6h1.318ZM-20.1,7.414l1.45-4.812h1.468L-19.415,9h-1.375L-23.01,2.6h1.463Zm7.37-1.2h-2.531V7.941H-12.3V9h-4.289V2.6h4.28V3.669h-2.962V5.194h2.531ZM-10.2,7.941h2.8V9h-4.118V2.6H-10.2ZM.615,6.869A2.264,2.264,0,0,1-.147,8.495a2.678,2.678,0,0,1-1.813.593A2.408,2.408,0,0,1-3.9,8.26,3.4,3.4,0,0,1-4.6,5.985V5.594a3.836,3.836,0,0,1,.325-1.626,2.437,2.437,0,0,1,.929-1.079,2.6,2.6,0,0,1,1.4-.376,2.609,2.609,0,0,1,1.784.593A2.433,2.433,0,0,1,.624,4.772H-.694a1.336,1.336,0,0,0-.345-.9,1.277,1.277,0,0,0-.9-.279,1.12,1.12,0,0,0-.987.472,2.648,2.648,0,0,0-.336,1.466v.483a2.834,2.834,0,0,0,.314,1.516,1.1,1.1,0,0,0,.991.479,1.3,1.3,0,0,0,.912-.279A1.26,1.26,0,0,0-.7,6.869Zm6.122-.923A3.863,3.863,0,0,1,6.4,7.6a2.515,2.515,0,0,1-.956,1.1,2.644,2.644,0,0,1-1.426.387A2.662,2.662,0,0,1,2.6,8.706a2.54,2.54,0,0,1-.967-1.092,3.752,3.752,0,0,1-.347-1.633V5.665A3.842,3.842,0,0,1,1.628,4a2.536,2.536,0,0,1,.962-1.1,2.647,2.647,0,0,1,1.422-.385A2.647,2.647,0,0,1,5.434,2.9,2.536,2.536,0,0,1,6.4,4,3.831,3.831,0,0,1,6.737,5.66ZM5.4,5.656a2.693,2.693,0,0,0-.36-1.529A1.174,1.174,0,0,0,4.012,3.6a1.175,1.175,0,0,0-1.024.516,2.662,2.662,0,0,0-.365,1.514v.312a2.726,2.726,0,0,0,.36,1.521,1.171,1.171,0,0,0,1.037.541,1.161,1.161,0,0,0,1.02-.521A2.71,2.71,0,0,0,5.4,5.968ZM9.013,7.941h2.8V9H7.695V2.6H9.013Zm8.53-2A3.863,3.863,0,0,1,17.209,7.6a2.515,2.515,0,0,1-.956,1.1,2.824,2.824,0,0,1-2.845,0,2.54,2.54,0,0,1-.967-1.092,3.752,3.752,0,0,1-.347-1.633V5.665A3.842,3.842,0,0,1,12.434,4,2.536,2.536,0,0,1,13.4,2.9a2.82,2.82,0,0,1,2.843,0A2.536,2.536,0,0,1,17.2,4a3.831,3.831,0,0,1,.341,1.659Zm-1.336-.29a2.693,2.693,0,0,0-.36-1.529,1.273,1.273,0,0,0-2.052-.007,2.662,2.662,0,0,0-.365,1.514v.312a2.726,2.726,0,0,0,.36,1.521,1.262,1.262,0,0,0,2.057.02,2.71,2.71,0,0,0,.36-1.518ZM20.224,2.6l1.644,4.641L23.5,2.6h1.731V9H23.911V7.251l.132-3.019L22.315,9H21.41L19.688,4.236l.132,3.015V9H18.5V2.6ZM26.385,9V2.6h2.241a2.943,2.943,0,0,1,1.767.446,1.525,1.525,0,0,1,.6,1.307,1.446,1.446,0,0,1-.242.828,1.4,1.4,0,0,1-.672.525,1.351,1.351,0,0,1,.776.5,1.468,1.468,0,0,1,.283.914,1.689,1.689,0,0,1-.589,1.4A2.651,2.651,0,0,1,28.872,9ZM27.7,6.214V7.941h1.129a1.09,1.09,0,0,0,.727-.222.761.761,0,0,0,.261-.613.8.8,0,0,0-.91-.892Zm0-.932h.976q1-.018,1-.8a.735.735,0,0,0-.253-.626,1.329,1.329,0,0,0-.8-.191H27.7ZM33.53,9H32.212V2.6H33.53Zm4.913-1.318H36.132L35.692,9h-1.4l2.382-6.4h1.222l2.4,6.4h-1.4ZM36.488,6.614h1.6l-.8-2.4Z" transform="translate(7140.819 1865.511)" fill="#fff"/>
    <rect id="Rectángulo_34098" data-name="Rectángulo 34098" width="112.473" height="36.617" rx="3" transform="translate(6926.878 1848.003)" fill="#dc9ce8"/>
    <path id="Trazado_173638" data-name="Trazado 173638" d="M-23.014-1.679a.677.677,0,0,0-.264-.573,3.458,3.458,0,0,0-.949-.422,6.729,6.729,0,0,1-1.085-.437A1.773,1.773,0,0,1-26.4-4.7a1.545,1.545,0,0,1,.292-.925,1.906,1.906,0,0,1,.839-.635,3.159,3.159,0,0,1,1.228-.229,2.876,2.876,0,0,1,1.222.248,1.945,1.945,0,0,1,.833.7,1.834,1.834,0,0,1,.3,1.028H-23.01a.863.863,0,0,0-.277-.683,1.138,1.138,0,0,0-.778-.244,1.216,1.216,0,0,0-.751.2.645.645,0,0,0-.268.538.617.617,0,0,0,.314.523,3.55,3.55,0,0,0,.925.4,4,4,0,0,1,1.639.839,1.672,1.672,0,0,1,.514,1.248,1.54,1.54,0,0,1-.628,1.3,2.751,2.751,0,0,1-1.692.472,3.267,3.267,0,0,1-1.345-.27,2.128,2.128,0,0,1-.925-.74,1.9,1.9,0,0,1-.319-1.09h1.323q0,1.059,1.266,1.059a1.231,1.231,0,0,0,.734-.191A.622.622,0,0,0-23.014-1.679Zm7.058-4.72v4.214a2.158,2.158,0,0,1-.657,1.661,2.533,2.533,0,0,1-1.8.611,2.561,2.561,0,0,1-1.78-.593,2.121,2.121,0,0,1-.672-1.63V-6.4h1.318v4.223a1.219,1.219,0,0,0,.3.916,1.156,1.156,0,0,0,.833.288q1.112,0,1.129-1.169V-6.4ZM-14.875,0V-6.4h2.241a2.943,2.943,0,0,1,1.767.446,1.525,1.525,0,0,1,.6,1.307,1.446,1.446,0,0,1-.242.828,1.4,1.4,0,0,1-.672.525,1.351,1.351,0,0,1,.776.5,1.468,1.468,0,0,1,.283.914,1.689,1.689,0,0,1-.589,1.4A2.651,2.651,0,0,1-12.388,0Zm1.318-2.786v1.727h1.129a1.09,1.09,0,0,0,.727-.222.761.761,0,0,0,.261-.613.8.8,0,0,0-.91-.892Zm0-.932h.976q1-.018,1-.8a.735.735,0,0,0-.253-.626,1.329,1.329,0,0,0-.8-.191h-.923Zm5.744,1.463V0H-9.132V-6.4h2.5a2.888,2.888,0,0,1,1.268.264,1.943,1.943,0,0,1,.842.749A2.089,2.089,0,0,1-4.232-4.28,1.837,1.837,0,0,1-4.876-2.8a2.681,2.681,0,0,1-1.782.543Zm0-1.068h1.178a1.158,1.158,0,0,0,.8-.246.9.9,0,0,0,.275-.7,1.055,1.055,0,0,0-.277-.76,1.034,1.034,0,0,0-.765-.3H-7.813Zm7.317,2H-2.808L-3.248,0h-1.4l2.382-6.4h1.222L1.349,0h-1.4ZM-2.452-2.386h1.6l-.8-2.4Zm6.768.044H3.265V0H1.947V-6.4H4.324a2.688,2.688,0,0,1,1.749.505,1.744,1.744,0,0,1,.615,1.428,1.969,1.969,0,0,1-.283,1.092,1.933,1.933,0,0,1-.859.7L6.93-.062V0H5.515ZM3.265-3.41H4.329A1.089,1.089,0,0,0,5.1-3.663a.9.9,0,0,0,.272-.7.967.967,0,0,0-.257-.712,1.068,1.068,0,0,0-.789-.259H3.265Zm9.022-1.92h-1.96V0H9.009V-5.331H7.075V-6.4h5.212ZM14.44,0H13.122V-6.4H14.44Zm1.222,0V-6.4h1.969a2.99,2.99,0,0,1,1.51.38A2.651,2.651,0,0,1,20.18-4.937a3.334,3.334,0,0,1,.374,1.593v.294a3.344,3.344,0,0,1-.367,1.586A2.628,2.628,0,0,1,19.151-.387,3.012,3.012,0,0,1,17.644,0ZM16.98-5.331v4.271h.637A1.432,1.432,0,0,0,18.8-1.564a2.284,2.284,0,0,0,.417-1.446v-.338a2.32,2.32,0,0,0-.4-1.479,1.427,1.427,0,0,0-1.182-.5Zm8.051,4.012H22.72L22.28,0h-1.4L23.26-6.4h1.222l2.4,6.4h-1.4ZM23.076-2.386h1.6l-.8-2.4ZM-38.487,6.869a2.264,2.264,0,0,1-.762,1.626,2.678,2.678,0,0,1-1.813.593A2.408,2.408,0,0,1-43,8.26,3.4,3.4,0,0,1-43.7,5.985V5.594a3.836,3.836,0,0,1,.325-1.626,2.437,2.437,0,0,1,.929-1.079,2.6,2.6,0,0,1,1.4-.376,2.609,2.609,0,0,1,1.784.593,2.433,2.433,0,0,1,.782,1.666H-39.8a1.336,1.336,0,0,0-.345-.9,1.277,1.277,0,0,0-.9-.279,1.12,1.12,0,0,0-.987.472,2.648,2.648,0,0,0-.336,1.466v.483a2.834,2.834,0,0,0,.314,1.516,1.1,1.1,0,0,0,.991.479,1.3,1.3,0,0,0,.912-.279,1.26,1.26,0,0,0,.345-.864Zm6.122-.923A3.863,3.863,0,0,1-32.7,7.6a2.515,2.515,0,0,1-.956,1.1,2.644,2.644,0,0,1-1.426.387A2.662,2.662,0,0,1-36.5,8.706a2.54,2.54,0,0,1-.967-1.092,3.752,3.752,0,0,1-.347-1.633V5.665A3.842,3.842,0,0,1-37.474,4a2.536,2.536,0,0,1,.962-1.1,2.647,2.647,0,0,1,1.422-.385,2.647,2.647,0,0,1,1.422.385A2.536,2.536,0,0,1-32.706,4a3.831,3.831,0,0,1,.341,1.659Zm-1.336-.29a2.693,2.693,0,0,0-.36-1.529A1.174,1.174,0,0,0-35.09,3.6a1.175,1.175,0,0,0-1.024.516,2.662,2.662,0,0,0-.365,1.514v.312a2.726,2.726,0,0,0,.36,1.521,1.171,1.171,0,0,0,1.037.541,1.161,1.161,0,0,0,1.02-.521,2.71,2.71,0,0,0,.36-1.518ZM-29.685,2.6l1.644,4.641L-26.407,2.6h1.731V9H-26V7.251l.132-3.019L-27.593,9H-28.5l-1.723-4.764.132,3.015V9h-1.318V2.6Zm11,0V6.816a2.158,2.158,0,0,1-.657,1.661,2.533,2.533,0,0,1-1.8.611,2.561,2.561,0,0,1-1.78-.593,2.121,2.121,0,0,1-.672-1.63V2.6h1.318V6.825a1.219,1.219,0,0,0,.3.916,1.156,1.156,0,0,0,.833.288q1.112,0,1.129-1.169V2.6ZM-12.4,9h-1.318l-2.566-4.21V9H-17.6V2.6h1.318l2.571,4.219V2.6H-12.4Zm2.553,0h-1.318V2.6h1.318Zm1.222,0V2.6h1.969a2.99,2.99,0,0,1,1.51.38A2.651,2.651,0,0,1-4.1,4.063a3.334,3.334,0,0,1,.374,1.593V5.95A3.344,3.344,0,0,1-4.1,7.537,2.628,2.628,0,0,1-5.133,8.613,3.012,3.012,0,0,1-6.64,9ZM-7.3,3.669V7.941h.637a1.432,1.432,0,0,0,1.182-.505A2.284,2.284,0,0,0-5.067,5.99V5.651a2.32,2.32,0,0,0-.4-1.479,1.427,1.427,0,0,0-1.182-.5ZM.747,7.682H-1.564L-2,9h-1.4l2.382-6.4H.2L2.593,9h-1.4ZM-1.208,6.614h1.6l-.8-2.4ZM3.19,9V2.6H5.159a2.99,2.99,0,0,1,1.51.38A2.651,2.651,0,0,1,7.708,4.063a3.334,3.334,0,0,1,.374,1.593V5.95a3.344,3.344,0,0,1-.367,1.586A2.628,2.628,0,0,1,6.68,8.613,3.012,3.012,0,0,1,5.172,9ZM4.509,3.669V7.941h.637a1.432,1.432,0,0,0,1.182-.505A2.284,2.284,0,0,0,6.746,5.99V5.651a2.32,2.32,0,0,0-.4-1.479,1.427,1.427,0,0,0-1.182-.5ZM14.893,7.682H12.582L12.142,9h-1.4l2.382-6.4h1.222l2.4,6.4h-1.4ZM12.938,6.614h1.6l-.8-2.4ZM22.54,9H21.221L18.655,4.79V9H17.336V2.6h1.318L21.226,6.82V2.6H22.54Zm1.151,0V2.6H25.66a2.99,2.99,0,0,1,1.51.38,2.651,2.651,0,0,1,1.039,1.081,3.334,3.334,0,0,1,.374,1.593V5.95a3.344,3.344,0,0,1-.367,1.586A2.628,2.628,0,0,1,27.18,8.613,3.012,3.012,0,0,1,25.673,9Zm1.318-5.331V7.941h.637a1.432,1.432,0,0,0,1.182-.505,2.284,2.284,0,0,0,.417-1.446V5.651a2.32,2.32,0,0,0-.4-1.479,1.427,1.427,0,0,0-1.182-.5ZM30.942,9H29.624V2.6h1.318Zm6.425,0H36.048L33.482,4.79V9H32.164V2.6h1.318L36.053,6.82V2.6h1.314Zm4.843-1.318H39.9L39.458,9h-1.4l2.382-6.4H41.66l2.4,6.4h-1.4ZM40.254,6.614h1.6l-.8-2.4Z" transform="translate(6981.969 1865.511)" fill="#12263f"/>
    <rect id="Rectángulo_34099" data-name="Rectángulo 34099" width="112.473" height="36.617" rx="3" transform="translate(6807.175 1848.003)" fill="#451991"/>
    <path id="Trazado_173637" data-name="Trazado 173637" d="M-23.014-1.679a.677.677,0,0,0-.264-.573,3.458,3.458,0,0,0-.949-.422,6.729,6.729,0,0,1-1.085-.437A1.773,1.773,0,0,1-26.4-4.7a1.545,1.545,0,0,1,.292-.925,1.906,1.906,0,0,1,.839-.635,3.159,3.159,0,0,1,1.228-.229,2.876,2.876,0,0,1,1.222.248,1.945,1.945,0,0,1,.833.7,1.834,1.834,0,0,1,.3,1.028H-23.01a.863.863,0,0,0-.277-.683,1.138,1.138,0,0,0-.778-.244,1.216,1.216,0,0,0-.751.2.645.645,0,0,0-.268.538.617.617,0,0,0,.314.523,3.55,3.55,0,0,0,.925.4,4,4,0,0,1,1.639.839,1.672,1.672,0,0,1,.514,1.248,1.54,1.54,0,0,1-.628,1.3,2.751,2.751,0,0,1-1.692.472,3.267,3.267,0,0,1-1.345-.27,2.128,2.128,0,0,1-.925-.74,1.9,1.9,0,0,1-.319-1.09h1.323q0,1.059,1.266,1.059a1.231,1.231,0,0,0,.734-.191A.622.622,0,0,0-23.014-1.679Zm7.058-4.72v4.214a2.158,2.158,0,0,1-.657,1.661,2.533,2.533,0,0,1-1.8.611,2.561,2.561,0,0,1-1.78-.593,2.121,2.121,0,0,1-.672-1.63V-6.4h1.318v4.223a1.219,1.219,0,0,0,.3.916,1.156,1.156,0,0,0,.833.288q1.112,0,1.129-1.169V-6.4ZM-14.875,0V-6.4h2.241a2.943,2.943,0,0,1,1.767.446,1.525,1.525,0,0,1,.6,1.307,1.446,1.446,0,0,1-.242.828,1.4,1.4,0,0,1-.672.525,1.351,1.351,0,0,1,.776.5,1.468,1.468,0,0,1,.283.914,1.689,1.689,0,0,1-.589,1.4A2.651,2.651,0,0,1-12.388,0Zm1.318-2.786v1.727h1.129a1.09,1.09,0,0,0,.727-.222.761.761,0,0,0,.261-.613.8.8,0,0,0-.91-.892Zm0-.932h.976q1-.018,1-.8a.735.735,0,0,0-.253-.626,1.329,1.329,0,0,0-.8-.191h-.923Zm5.744,1.463V0H-9.132V-6.4h2.5a2.888,2.888,0,0,1,1.268.264,1.943,1.943,0,0,1,.842.749A2.089,2.089,0,0,1-4.232-4.28,1.837,1.837,0,0,1-4.876-2.8a2.681,2.681,0,0,1-1.782.543Zm0-1.068h1.178a1.158,1.158,0,0,0,.8-.246.9.9,0,0,0,.275-.7,1.055,1.055,0,0,0-.277-.76,1.034,1.034,0,0,0-.765-.3H-7.813Zm7.317,2H-2.808L-3.248,0h-1.4l2.382-6.4h1.222L1.349,0h-1.4ZM-2.452-2.386h1.6l-.8-2.4Zm6.768.044H3.265V0H1.947V-6.4H4.324a2.688,2.688,0,0,1,1.749.505,1.744,1.744,0,0,1,.615,1.428,1.969,1.969,0,0,1-.283,1.092,1.933,1.933,0,0,1-.859.7L6.93-.062V0H5.515ZM3.265-3.41H4.329A1.089,1.089,0,0,0,5.1-3.663a.9.9,0,0,0,.272-.7.967.967,0,0,0-.257-.712,1.068,1.068,0,0,0-.789-.259H3.265Zm9.022-1.92h-1.96V0H9.009V-5.331H7.075V-6.4h5.212ZM14.44,0H13.122V-6.4H14.44Zm1.222,0V-6.4h1.969a2.99,2.99,0,0,1,1.51.38A2.651,2.651,0,0,1,20.18-4.937a3.334,3.334,0,0,1,.374,1.593v.294a3.344,3.344,0,0,1-.367,1.586A2.628,2.628,0,0,1,19.151-.387,3.012,3.012,0,0,1,17.644,0ZM16.98-5.331v4.271h.637A1.432,1.432,0,0,0,18.8-1.564a2.284,2.284,0,0,0,.417-1.446v-.338a2.32,2.32,0,0,0-.4-1.479,1.427,1.427,0,0,0-1.182-.5Zm8.051,4.012H22.72L22.28,0h-1.4L23.26-6.4h1.222l2.4,6.4h-1.4ZM23.076-2.386h1.6l-.8-2.4ZM-37,9h-1.318l-2.566-4.21V9H-42.2V2.6h1.318l2.571,4.219V2.6H-37Zm2.553,0h-1.318V2.6h1.318Zm3.586-1.586,1.45-4.812h1.468L-30.168,9h-1.375l-2.219-6.4H-32.3Zm7.37-1.2H-26.02V7.941h2.971V9h-4.289V2.6h4.28V3.669H-26.02V5.194h2.531Zm2.531,1.723h2.8V9h-4.118V2.6h1.318Zm9.409-.259H-13.86L-14.3,9h-1.4l2.382-6.4H-12.1L-9.7,9h-1.4ZM-13.5,6.614h1.6l-.8-2.4Zm6.768.044h-1.05V9H-9.105V2.6h2.377a2.688,2.688,0,0,1,1.749.505,1.744,1.744,0,0,1,.615,1.428,1.969,1.969,0,0,1-.283,1.092,1.933,1.933,0,0,1-.859.7l1.384,2.615V9H-5.537ZM-7.787,5.59h1.063a1.089,1.089,0,0,0,.769-.253.9.9,0,0,0,.272-.7.967.967,0,0,0-.257-.712,1.068,1.068,0,0,0-.789-.259H-7.787ZM-1.639,2.6,0,7.242,1.639,2.6H3.371V9H2.048V7.251L2.18,4.232.453,9H-.453L-2.175,4.236l.132,3.015V9H-3.362V2.6ZM9.778,5.946A3.863,3.863,0,0,1,9.444,7.6a2.515,2.515,0,0,1-.956,1.1,2.644,2.644,0,0,1-1.426.387,2.662,2.662,0,0,1-1.419-.382,2.54,2.54,0,0,1-.967-1.092,3.752,3.752,0,0,1-.347-1.633V5.665A3.842,3.842,0,0,1,4.669,4a2.536,2.536,0,0,1,.962-1.1,2.647,2.647,0,0,1,1.422-.385A2.647,2.647,0,0,1,8.475,2.9,2.536,2.536,0,0,1,9.437,4,3.831,3.831,0,0,1,9.778,5.66Zm-1.336-.29a2.693,2.693,0,0,0-.36-1.529A1.174,1.174,0,0,0,7.053,3.6a1.175,1.175,0,0,0-1.024.516,2.662,2.662,0,0,0-.365,1.514v.312a2.726,2.726,0,0,0,.36,1.521,1.171,1.171,0,0,0,1.037.541,1.161,1.161,0,0,0,1.02-.521,2.71,2.71,0,0,0,.36-1.518ZM15.939,9H14.621L12.054,4.79V9H10.736V2.6h1.318L14.625,6.82V2.6h1.314Zm2.553,0H17.174V2.6h1.318Zm2.619-1.059h3.226V9H19.463V8.227l3.164-4.557h-3.16V2.6h4.8v.756Zm7.726-.259H26.525L26.086,9h-1.4l2.382-6.4h1.222l2.4,6.4h-1.4ZM26.881,6.614h1.6l-.8-2.4ZM31.28,9V2.6h1.969a2.99,2.99,0,0,1,1.51.38A2.651,2.651,0,0,1,35.8,4.063a3.334,3.334,0,0,1,.374,1.593V5.95A3.344,3.344,0,0,1,35.8,7.537,2.628,2.628,0,0,1,34.77,8.613,3.012,3.012,0,0,1,33.262,9ZM32.6,3.669V7.941h.637a1.432,1.432,0,0,0,1.182-.505,2.284,2.284,0,0,0,.417-1.446V5.651a2.32,2.32,0,0,0-.4-1.479,1.427,1.427,0,0,0-1.182-.5Zm9.787,2.276A3.863,3.863,0,0,1,42.051,7.6,2.515,2.515,0,0,1,41.1,8.7a2.824,2.824,0,0,1-2.845,0,2.54,2.54,0,0,1-.967-1.092,3.752,3.752,0,0,1-.347-1.633V5.665A3.842,3.842,0,0,1,37.277,4a2.536,2.536,0,0,1,.962-1.1,2.82,2.82,0,0,1,2.843,0A2.536,2.536,0,0,1,42.045,4a3.831,3.831,0,0,1,.341,1.659Zm-1.336-.29a2.693,2.693,0,0,0-.36-1.529,1.273,1.273,0,0,0-2.052-.007,2.662,2.662,0,0,0-.365,1.514v.312a2.726,2.726,0,0,0,.36,1.521,1.262,1.262,0,0,0,2.057.02,2.71,2.71,0,0,0,.36-1.518Z" transform="translate(6864.45 1865.511)" fill="#fff"/>
    <g id="vw0tez.tif-2" data-name="vw0tez.tif" transform="translate(6973.566 1746.746)">
      <g id="Group_88565-2" data-name="Group 88565">
        <path id="Path_140945-2" data-name="Path 140945" d="M6935.256,1722.352c0,.336-.013.674-.013,1.01v76.816h4.619l-8.365,17.073-8.365-16.995h4.586c.011-.326.017-.655.02-.987v-76.315c0-.2,0-.406-.013-.6Z" transform="translate(-6923.132 -1722.351)" fill="#dc9ce8"/>
      </g>
    </g>
    <rect id="Rectángulo_34100" data-name="Rectángulo 34100" width="112.473" height="36.617" rx="3" transform="translate(6686.161 1848.003)" fill="#36a3f7"/>
    <path id="Trazado_173636" data-name="Trazado 173636" d="M-16.414-2.254V0h-1.318V-6.4h2.5a2.888,2.888,0,0,1,1.268.264,1.943,1.943,0,0,1,.842.749,2.089,2.089,0,0,1,.294,1.105A1.837,1.837,0,0,1-13.476-2.8a2.681,2.681,0,0,1-1.782.543Zm0-1.068h1.178a1.158,1.158,0,0,0,.8-.246.9.9,0,0,0,.275-.7,1.055,1.055,0,0,0-.277-.76,1.034,1.034,0,0,0-.765-.3h-1.208Zm7.317,2h-2.312L-11.848,0h-1.4l2.382-6.4h1.222l2.4,6.4h-1.4Zm-1.956-1.068h1.6l-.8-2.4Zm6.768.044h-1.05V0H-6.653V-6.4h2.377a2.688,2.688,0,0,1,1.749.505,1.744,1.744,0,0,1,.615,1.428A1.969,1.969,0,0,1-2.2-3.373a1.933,1.933,0,0,1-.859.7L-1.67-.062V0H-3.085ZM-5.335-3.41h1.063A1.089,1.089,0,0,0-3.5-3.663a.9.9,0,0,0,.272-.7.967.967,0,0,0-.257-.712,1.068,1.068,0,0,0-.789-.259H-5.335Zm9.022-1.92H1.727V0H.409V-5.331H-1.525V-6.4H3.687ZM5.84,0H4.522V-6.4H5.84ZM7.062,0V-6.4H9.031a2.99,2.99,0,0,1,1.51.38A2.651,2.651,0,0,1,11.58-4.937a3.334,3.334,0,0,1,.374,1.593v.294a3.344,3.344,0,0,1-.367,1.586A2.628,2.628,0,0,1,10.551-.387,3.012,3.012,0,0,1,9.044,0ZM8.38-5.331v4.271h.637A1.432,1.432,0,0,0,10.2-1.564a2.284,2.284,0,0,0,.417-1.446v-.338a2.32,2.32,0,0,0-.4-1.479,1.427,1.427,0,0,0-1.182-.5Zm8.051,4.012H14.12L13.68,0h-1.4L14.66-6.4h1.222l2.4,6.4h-1.4ZM14.476-2.386h1.6l-.8-2.4Z" transform="translate(6743.466 1869.061)" fill="#fff"/>
    <g id="vw0tez.tif-3" data-name="vw0tez.tif" transform="translate(6744.682 1790.525)">
      <g id="Group_88565-3" data-name="Group 88565">
        <path id="Path_140945-3" data-name="Path 140945" d="M6741.812,1759.352c0,.336-.013.674-.013,1.01V1793.4h4.619l-8.365,17.073-8.364-16.995h4.586c.01-.326.018-.655.021-.987v-32.536c0-.2-.006-.406-.014-.6Z" transform="translate(-6729.688 -1759.351)" fill="#36a3f7"/>
      </g>
    </g>
    <g id="vw0tez.tif-4" data-name="vw0tez.tif" transform="translate(6873.134 1770.41)">
      <g id="Group_88565-4" data-name="Group 88565">
        <path id="Path_140945-4" data-name="Path 140945" d="M6850.375,1742.352c0,.336-.012.674-.014,1.01v53.152h4.621l-8.365,17.073-8.365-16.995h4.587c.01-.326.016-.655.02-.987v-52.65c0-.2-.006-.406-.013-.6Z" transform="translate(-6838.252 -1742.351)" fill="#451991"/>
      </g>
    </g>
  </g>
</svg>
