<svg id="Grupo_111595" data-name="Grupo 111595" xmlns="http://www.w3.org/2000/svg" xmlns:xlink="http://www.w3.org/1999/xlink" width="114.636" height="114.636" viewBox="0 0 114.636 114.636">
  <defs>
    <radialGradient id="radial-gradient" cx="0.076" cy="0.019" r="1.465" gradientTransform="translate(0.001)" gradientUnits="objectBoundingBox">
      <stop offset="0" stop-color="#f6f6f7"/>
      <stop offset="0.477" stop-color="#f9f9fa"/>
      <stop offset="0.715" stop-color="#fff"/>
    </radialGradient>
  </defs>
  <g id="Grupo_18423" data-name="Grupo 18423" transform="translate(0 0)">
    <g id="Grupo_18421" data-name="Grupo 18421">
      <g id="Grupo_18420" data-name="Grupo 18420">
        <g id="Grupo_18419" data-name="Grupo 18419">
          <path id="Trazado_40936" data-name="Trazado 40936" d="M309.259,2203.037a57.318,57.318,0,1,1-57.317-57.316A57.317,57.317,0,0,1,309.259,2203.037Z" transform="translate(-194.623 -2145.721)" fill="#fff"/>
        </g>
      </g>
    </g>
    <path id="Trazado_40937" data-name="Trazado 40937" d="M308.648,2202.372a57.316,57.316,0,1,0-57.317,57.319A57.091,57.091,0,0,0,308.648,2202.372Z" transform="translate(-194.013 -2145.056)" fill="url(#radial-gradient)"/>
    <path id="Trazado_40938" data-name="Trazado 40938" d="M289.672,2196.986a43.75,43.75,0,1,0-43.75,43.75A43.587,43.587,0,0,0,289.672,2196.986Z" transform="translate(-188.43 -2139.479)" fill="none" stroke="#00223d" stroke-miterlimit="10" stroke-width="4"/>
    <g id="Grupo_18422" data-name="Grupo 18422" transform="translate(10.154 32.18)">
      <path id="Trazado_40939" data-name="Trazado 40939" d="M299.231,2164.488a57.325,57.325,0,0,1-98.686,57.081,57.143,57.143,0,0,0,98.686-57.081Z" transform="translate(-200.545 -2164.488)" fill="#eceef0"/>
    </g>
  </g>
  <g id="Grupo_90414" data-name="Grupo 90414" transform="translate(35.449 32.449)">
    <path id="Trazado_125518" data-name="Trazado 125518" d="M251.207,15.106h-5.652a1.054,1.054,0,0,1-1.055-1.055V8.4a.965.965,0,0,1,.284.2l6.226,6.226A.965.965,0,0,1,251.207,15.106Z" transform="translate(-220.767 -7.584)" fill="#eae8ea"/>
    <g id="Grupo_90414-2" data-name="Grupo 90414" transform="translate(5.654 22.374)">
      <path id="Trazado_125519" data-name="Trazado 125519" d="M60.774,233.412H58.638a.388.388,0,0,1-.388-.388v-2.135a.388.388,0,0,1,.388-.388h2.135a.388.388,0,0,1,.388.388v2.135A.388.388,0,0,1,60.774,233.412Z" transform="translate(-58.25 -230.5)" fill="#e2dee2"/>
      <path id="Trazado_125520" data-name="Trazado 125520" d="M60.774,293.412H58.638a.388.388,0,0,1-.388-.388v-2.135a.388.388,0,0,1,.388-.388h2.135a.388.388,0,0,1,.388.388v2.135A.388.388,0,0,1,60.774,293.412Z" transform="translate(-58.25 -284.676)" fill="#e2dee2"/>
      <path id="Trazado_125521" data-name="Trazado 125521" d="M60.774,353.412H58.638a.388.388,0,0,1-.388-.388v-2.135a.388.388,0,0,1,.388-.388h2.135a.388.388,0,0,1,.388.388v2.135A.388.388,0,0,1,60.774,353.412Z" transform="translate(-58.25 -338.852)" fill="#e2dee2"/>
    </g>
    <path id="Trazado_125522" data-name="Trazado 125522" d="M48,21.064H31.256V7.925a1.688,1.688,0,0,0-.5-1.2L24.532.5a1.688,1.688,0,0,0-1.2-.5H1.7A1.7,1.7,0,0,0,0,1.7V21.306a.728.728,0,1,0,1.456,0V1.7A.243.243,0,0,1,1.7,1.456H23V6.468a1.785,1.785,0,0,0,1.783,1.783H29.8V21.064h-.243a1.7,1.7,0,0,0-1.7,1.7V33.94a.728.728,0,1,0,1.456,0V22.762a.243.243,0,0,1,.243-.243H48a.243.243,0,0,1,.243.243V48a.243.243,0,0,1-.243.243H29.557A.243.243,0,0,1,29.314,48V37.338a.728.728,0,0,0-1.456,0V40.38H1.7a.243.243,0,0,1-.243-.243V24.7A.728.728,0,1,0,0,24.7V40.137a1.7,1.7,0,0,0,1.7,1.7h26.16V48a1.7,1.7,0,0,0,1.7,1.7H48A1.7,1.7,0,0,0,49.7,48V22.762A1.7,1.7,0,0,0,48,21.064ZM24.788,6.795a.327.327,0,0,1-.327-.327V2.486L28.77,6.795Z"/>
    <path id="Trazado_125523" data-name="Trazado 125523" d="M323.052,248.456a.728.728,0,0,0,0-1.456h-5.824a.728.728,0,0,0-.728.728v3.883a.728.728,0,0,0,.728.728h14.56a.728.728,0,0,0,.728-.728v-3.883a.728.728,0,0,0-.728-.728h-5.339a.728.728,0,0,0,0,1.456h4.611v2.427h-13.1v-2.427Z" transform="translate(-285.778 -223.024)"/>
    <path id="Trazado_125524" data-name="Trazado 125524" d="M316.5,320.64a.728.728,0,0,0,.728.728h2.912a.728.728,0,0,0,.728-.728v-2.912a.728.728,0,0,0-.728-.728h-2.912a.728.728,0,0,0-.728.728Zm1.456-2.184h1.456v1.456h-1.456Z" transform="translate(-285.778 -286.23)"/>
    <path id="Trazado_125525" data-name="Trazado 125525" d="M380.868,317.728a.728.728,0,0,0-.728-.728h-2.912a.728.728,0,0,0-.728.728v2.912a.728.728,0,0,0,.728.728h2.912a.728.728,0,0,0,.728-.728Zm-1.456,2.184h-1.456v-1.456h1.456Z" transform="translate(-339.954 -286.23)"/>
    <path id="Trazado_125526" data-name="Trazado 125526" d="M440.868,317.728a.728.728,0,0,0-.728-.728h-2.912a.728.728,0,0,0-.728.728v2.912a.728.728,0,0,0,.728.728h2.912a.728.728,0,0,0,.728-.728Zm-1.456,2.184h-1.456v-1.456h1.456Z" transform="translate(-394.13 -286.23)"/>
    <path id="Trazado_125527" data-name="Trazado 125527" d="M316.5,380.64a.728.728,0,0,0,.728.728h2.912a.728.728,0,0,0,.728-.728v-2.912a.728.728,0,0,0-.728-.728h-2.912a.728.728,0,0,0-.728.728Zm1.456-2.184h1.456v1.456h-1.456Z" transform="translate(-285.778 -340.406)"/>
    <path id="Trazado_125528" data-name="Trazado 125528" d="M380.868,377.728a.728.728,0,0,0-.728-.728h-2.912a.728.728,0,0,0-.728.728v2.912a.728.728,0,0,0,.728.728h2.912a.728.728,0,0,0,.728-.728Zm-1.456,2.184h-1.456v-1.456h1.456Z" transform="translate(-339.954 -340.406)"/>
    <path id="Trazado_125529" data-name="Trazado 125529" d="M316.5,440.64a.728.728,0,0,0,.728.728h2.912a.728.728,0,0,0,.728-.728v-2.912a.728.728,0,0,0-.728-.728h-2.912a.728.728,0,0,0-.728.728Zm1.456-2.184h1.456v1.456h-1.456Z" transform="translate(-285.778 -394.582)"/>
    <path id="Trazado_125530" data-name="Trazado 125530" d="M380.14,437h-2.912a.728.728,0,0,0-.728.728v2.912a.728.728,0,0,0,.728.728h2.912a.728.728,0,0,0,.728-.728v-2.912A.728.728,0,0,0,380.14,437Zm-.728,2.912h-1.456v-1.456h1.456Z" transform="translate(-339.954 -394.582)"/>
    <path id="Trazado_125531" data-name="Trazado 125531" d="M440.14,377h-2.912a.728.728,0,0,0-.728.728v8.736a.728.728,0,0,0,.728.728h2.912a.728.728,0,0,0,.728-.728v-8.736A.728.728,0,0,0,440.14,377Zm-.728,8.736h-1.456v-7.28h1.456Z" transform="translate(-394.13 -340.406)"/>
    <path id="Trazado_125532" data-name="Trazado 125532" d="M94.885,46.766a.728.728,0,0,0-.942.415A6.554,6.554,0,1,0,96.267,44.2a.728.728,0,1,0,.842,1.188A5.085,5.085,0,1,1,95.3,47.708.728.728,0,0,0,94.885,46.766Z" transform="translate(-84.424 -38.826)"/>
    <path id="Trazado_125533" data-name="Trazado 125533" d="M55.118,223.728A.728.728,0,0,0,54.39,223H51.478a.728.728,0,0,0-.728.728v2.912a.728.728,0,0,0,.728.728H54.39a.728.728,0,0,0,.728-.728Zm-1.456,2.184H52.206v-1.456h1.456Z" transform="translate(-45.824 -201.354)"/>
    <path id="Trazado_125534" data-name="Trazado 125534" d="M55.118,283.728A.728.728,0,0,0,54.39,283H51.478a.728.728,0,0,0-.728.728v2.912a.728.728,0,0,0,.728.728H54.39a.728.728,0,0,0,.728-.728Zm-1.456,2.184H52.206v-1.456h1.456Z" transform="translate(-45.824 -255.53)"/>
    <path id="Trazado_125535" data-name="Trazado 125535" d="M54.39,343H51.478a.728.728,0,0,0-.728.728v2.912a.728.728,0,0,0,.728.728H54.39a.728.728,0,0,0,.728-.728v-2.912A.728.728,0,0,0,54.39,343Zm-.728,2.912H52.206v-1.456h1.456Z" transform="translate(-45.824 -309.706)"/>
    <path id="Trazado_125536" data-name="Trazado 125536" d="M50,193.728a.728.728,0,0,0,.728.728H70.821a.728.728,0,0,0,0-1.456H50.728A.728.728,0,0,0,50,193.728Z" transform="translate(-45.147 -174.266)"/>
    <path id="Trazado_125537" data-name="Trazado 125537" d="M122.74,223H108.228a.728.728,0,1,0,0,1.456H122.74a.728.728,0,1,0,0-1.456Z" transform="translate(-97.065 -201.354)"/>
    <path id="Trazado_125538" data-name="Trazado 125538" d="M108.228,254.456h4.845a.728.728,0,0,0,0-1.456h-4.845a.728.728,0,0,0,0,1.456Z" transform="translate(-97.065 -228.442)"/>
    <path id="Trazado_125539" data-name="Trazado 125539" d="M122.74,283H108.228a.728.728,0,0,0,0,1.456H122.74a.728.728,0,0,0,0-1.456Z" transform="translate(-97.065 -255.53)"/>
    <path id="Trazado_125540" data-name="Trazado 125540" d="M108.228,314.456h11.239a.728.728,0,1,0,0-1.456H108.228a.728.728,0,0,0,0,1.456Z" transform="translate(-97.065 -282.618)"/>
    <path id="Trazado_125541" data-name="Trazado 125541" d="M123.468,343.728a.728.728,0,0,0-.728-.728H108.228a.728.728,0,0,0,0,1.456H122.74A.728.728,0,0,0,123.468,343.728Z" transform="translate(-97.065 -309.706)"/>
    <path id="Trazado_125542" data-name="Trazado 125542" d="M108.228,373a.728.728,0,1,0,0,1.456h3.883a.728.728,0,1,0,0-1.456Z" transform="translate(-97.065 -336.794)"/>
    <path id="Trazado_125543" data-name="Trazado 125543" d="M141.755,73.618a1.27,1.27,0,0,1-.853-.365.728.728,0,1,0-1.056,1,2.818,2.818,0,0,0,1.145.7v.323a.728.728,0,0,0,1.456,0v-.326a2.035,2.035,0,0,0,1.34-1.675,1.991,1.991,0,0,0-1.732-2.163c-.253-.061-.679-.207-.7-.51a.512.512,0,0,1,.259-.46,1.03,1.03,0,0,1,.771.074.728.728,0,0,0,.716-1.268,2.559,2.559,0,0,0-.655-.246v-.28a.728.728,0,0,0-1.456,0v.4A1.95,1.95,0,0,0,139.9,70.7a2.1,2.1,0,0,0,1.813,1.832c.252.06.668.216.626.577a.593.593,0,0,1-.587.511Z" transform="translate(-126.091 -61.126)"/>
  </g>
</svg>
