<svg id="Group_87331" data-name="Group 87331" xmlns="http://www.w3.org/2000/svg" xmlns:xlink="http://www.w3.org/1999/xlink" width="110.493" height="110.491" viewBox="0 0 110.493 110.491">
  <defs>
    <radialGradient id="radial-gradient" cx="0.077" cy="0.019" r="1.465" gradientTransform="matrix(1, 0, 0, -1, 0, 9.666)" gradientUnits="objectBoundingBox">
      <stop offset="0" stop-color="#f4f4f5"/>
      <stop offset="0.477" stop-color="#f7f8fa"/>
      <stop offset="0.715" stop-color="#fff"/>
    </radialGradient>
  </defs>
  <g id="Group_18531" data-name="Group 18531">
    <g id="Group_18423" data-name="Group 18423">
      <g id="Group_18421" data-name="Group 18421">
        <g id="Group_18420" data-name="Group 18420">
          <g id="Group_18419" data-name="Group 18419">
            <path id="Path_40936" data-name="Path 40936" d="M233.291,570.076a55.246,55.246,0,1,1-55.248-55.244h0A55.244,55.244,0,0,1,233.291,570.076Z" transform="translate(-122.8 -514.832)" fill="#fff"/>
          </g>
        </g>
      </g>
      <path id="Path_40937" data-name="Path 40937" d="M233.289,570.076a55.026,55.026,0,1,0,0,.436Z" transform="translate(-122.798 -514.832)" fill="url(#radial-gradient)"/>
      <path id="Path_40938" data-name="Path 40938" d="M213.949,563.818a42.169,42.169,0,1,0-42.168,42.169h0a42.013,42.013,0,0,0,42.168-41.855Z" transform="translate(-116.365 -508.39)" fill="none" stroke="#451991" stroke-miterlimit="10" stroke-width="4"/>
      <g id="Group_18422" data-name="Group 18422" transform="translate(9.788 31.017)">
        <path id="Path_40939" data-name="Path 40939" d="M222.95,530.78a55.252,55.252,0,0,1-95.117,55.014A55.077,55.077,0,0,0,222.95,530.78Z" transform="translate(-127.833 -530.78)" fill="#e7e9eb"/>
      </g>
    </g>
  </g>
  <g id="jkrYmj.tif" transform="translate(-5852.77 -336.329)">
    <g id="Grupo_103726" data-name="Grupo 103726" transform="translate(5881.383 362.457)">
      <path id="Trazado_157836" data-name="Trazado 157836" d="M5964.824,362.457c1.612.532,3.22,1.076,4.837,1.592q8.245,2.632,16.494,5.248c.848.27,1.038.533,1.038,1.451q0,11.456,0,22.912c0,.906-.188,1.152-1.061,1.43q-10.49,3.34-20.986,6.663a2.325,2.325,0,0,1-1.314,0q-10.5-3.306-20.985-6.663c-.9-.285-1.062-.514-1.062-1.485q0-11.428,0-22.855c0-.947.173-1.174,1.087-1.465q10.383-3.3,20.765-6.608a5.165,5.165,0,0,0,.506-.221Zm3.906,12.409c-.226-.095-.277-.12-.33-.137q-8.867-2.827-17.736-5.643a1.263,1.263,0,0,0-.71.022c-1.9.587-3.785,1.208-5.685,1.786a.617.617,0,0,0-.508.72q.017,10.574,0,21.148a.651.651,0,0,0,.558.738q7.333,2.313,14.657,4.654c1.475.469,2.95.933,4.515,1.428V398.9c0-.929-.018-1.858.01-2.785a1,1,0,0,1,1-1.084,1.023,1.023,0,0,1,.983,1.1c.021.416.005.834.006,1.25v2.18c.295-.085.494-.137.69-.2q9.22-2.933,18.443-5.855a.713.713,0,0,0,.595-.826q-.023-10.148-.01-20.3v-.661c-.28.075-.48.119-.675.181-1.28.406-2.552.84-3.842,1.213a.7.7,0,0,0-.6.826c.026,2.1.009,4.207.013,6.31,0,.46-.065.909-.543,1.09a17.363,17.363,0,0,1-2.1.664.863.863,0,0,1-1.058-.643.914.914,0,0,1,.523-1.176c.288-.138.615-.195.9-.337a.567.567,0,0,0,.3-.376c.02-1.817.014-3.635.014-5.455a.815.815,0,0,0-.2,0c-1.534.482-3.07.957-4.595,1.467a.637.637,0,0,0-.293.493c-.028.966-.014,1.933-.014,2.9v2.486c.4-.112.725-.218,1.053-.287a.974.974,0,0,1,1.192.609.948.948,0,0,1-.62,1.235c-.761.283-1.537.536-2.319.753a.973.973,0,0,1-1.257-.943c-.016-.207-.007-.417-.007-.625,0-1.949,0-3.9,0-5.893-.228.063-.409.106-.585.162-1.479.468-2.951.959-4.438,1.4a.668.668,0,0,0-.575.779c.021,4.3.013,8.6.012,12.9a5.239,5.239,0,0,1-.011.568,1.026,1.026,0,0,1-.971,1,1.012,1.012,0,0,1-1-.97,4.483,4.483,0,0,1-.016-.567c0-4.321-.007-8.641.009-12.962a.645.645,0,0,0-.543-.746q-7.525-2.364-15.036-4.771a3.473,3.473,0,0,1-.733-.3.883.883,0,0,1-.41-1.081.872.872,0,0,1,.935-.677,3.2,3.2,0,0,1,.773.164q7.76,2.466,15.518,4.94c.178.057.389.163.544.116C5965.9,375.779,5967.235,375.343,5968.73,374.866Zm7.091-2.251c-.322-.119-.492-.19-.667-.246-5.624-1.79-11.25-3.57-16.868-5.378a2.509,2.509,0,0,0-1.751,0c-.913.339-1.853.606-2.849.925a1.717,1.717,0,0,0,.189.107q8.949,2.85,17.9,5.692a.967.967,0,0,0,.541,0C5973.438,373.378,5974.553,373.017,5975.822,372.615Zm7.082-2.255c-.26-.092-.382-.14-.507-.18-5.568-1.775-11.141-3.533-16.7-5.341a3.414,3.414,0,0,0-2.455.015c-.789.312-1.612.536-2.508.826.161.067.211.093.265.11q8.919,2.839,17.842,5.671a.875.875,0,0,0,.487.025C5980.488,371.134,5981.638,370.762,5982.9,370.36Z" transform="translate(-5934.901 -362.457)" fill="#12263f"/>
      <path id="Trazado_157837" data-name="Trazado 157837" d="M5907.916,719.662a.963.963,0,0,1-.884-.946.98.98,0,0,1,.861-.974,3.5,3.5,0,0,1,.622-.033q5.459,0,10.917,0a3.247,3.247,0,0,0,.79-.054,1.486,1.486,0,0,0,1.086-1.544,1.553,1.553,0,0,0-1.28-1.335,4.161,4.161,0,0,0-.624-.023c-2.293,0-4.587-.016-6.88.005a7.57,7.57,0,0,1-3.464-.742,21.78,21.78,0,0,0-9.767-2.226c-.706,0-1.157-.405-1.15-.986s.452-.957,1.17-.966a22.127,22.127,0,0,1,9.808,2.057,9.088,9.088,0,0,0,4.219.915c2.026-.057,4.058.049,6.083-.031a3.571,3.571,0,0,1,3.872,3.8c1.44-.608,2.811-1.191,4.186-1.766.837-.351,1.663-.738,2.522-1.025a3.6,3.6,0,0,1,2.7,6.642c-2.023.89-4.112,1.633-6.179,2.423-3.322,1.269-6.63,2.582-9.98,3.771a16.778,16.778,0,0,1-12.366-.439c-2.117-.872-4.228-1.757-6.343-2.635-.191-.08-.385-.154-.613-.244-.035.146-.07.267-.095.391a.978.978,0,0,1-1.09.926c-2.54.011-5.08.006-7.619,0a1.07,1.07,0,0,1-1.157-1h-4.151c-.246,0-.494.008-.739-.007a.973.973,0,1,1,.019-1.946c1.27-.02,2.54-.007,3.81-.008h1.089c0-.325-.008-.6,0-.88.024-.681.4-1.081.988-1.075s.95.415.964,1.1c.012.586,0,1.172,0,1.8h5.889V710.854h-5.888v.6c0,1.668.008,3.336-.008,5a1.8,1.8,0,0,1-.188.808.844.844,0,0,1-1.031.4.928.928,0,0,1-.725-.966c-.007-1.383,0-2.767-.006-4.15v-.76h-.641c-1.364,0-2.729,0-4.094,0-.763,0-1.187-.377-1.172-1,.014-.6.424-.944,1.17-.948,1.553-.007,3.106,0,4.693,0,.162-.823.717-1.017,1.464-1.01,2.35.021,4.7.007,7.05.008,1.064,0,1.391.323,1.392,1.392,0,3.43.012,6.861-.01,10.291a.783.783,0,0,0,.59.862q3.525,1.426,7.025,2.915a15.162,15.162,0,0,0,11.62.317c5.048-1.893,10.079-3.834,15.114-5.762a1.681,1.681,0,0,0,1.172-1.8,1.588,1.588,0,0,0-1.451-1.439,2.619,2.619,0,0,0-1.088.237q-3.72,1.551-7.422,3.144a8.594,8.594,0,0,1-3.476.711" transform="translate(-5881.383 -669.365)" fill="#12263f"/>
      <path id="Trazado_157838" data-name="Trazado 157838" d="M5976.382,581.545c0-.435-.01-.87,0-1.3.021-.7.416-1.15.995-1.147a1,1,0,0,1,.977,1.1q.034,1.361,0,2.723c-.019.692-.4,1.082-.983,1.081s-.95-.412-.989-1.087c0-.038,0-.076,0-.113Z" transform="translate(-5965.556 -554.414)" fill="#12263f"/>
      <path id="Trazado_157839" data-name="Trazado 157839" d="M6013.092,590.3c0,.492.019.984,0,1.474a.969.969,0,1,1-1.937-.008q-.034-1.474,0-2.949a.942.942,0,0,1,.973-.968.963.963,0,0,1,.97.976q0,.057,0,.113,0,.681,0,1.361Z" transform="translate(-5996.351 -562.171)" fill="#12263f"/>
    </g>
  </g>
</svg>
