<svg id="Group_87331" data-name="Group 87331" xmlns="http://www.w3.org/2000/svg" xmlns:xlink="http://www.w3.org/1999/xlink" width="110.493" height="110.491" viewBox="0 0 110.493 110.491">
  <defs>
    <radialGradient id="radial-gradient" cx="0.077" cy="0.019" r="1.465" gradientTransform="matrix(1, 0, 0, -1, 0, 9.666)" gradientUnits="objectBoundingBox">
      <stop offset="0" stop-color="#f4f4f5"/>
      <stop offset="0.477" stop-color="#f7f8fa"/>
      <stop offset="0.715" stop-color="#fff"/>
    </radialGradient>
  </defs>
  <g id="Group_18531" data-name="Group 18531">
    <g id="Group_18423" data-name="Group 18423">
      <g id="Group_18421" data-name="Group 18421">
        <g id="Group_18420" data-name="Group 18420">
          <g id="Group_18419" data-name="Group 18419">
            <path id="Path_40936" data-name="Path 40936" d="M233.291,570.076a55.246,55.246,0,1,1-55.248-55.244h0A55.244,55.244,0,0,1,233.291,570.076Z" transform="translate(-122.8 -514.832)" fill="#fff"/>
          </g>
        </g>
      </g>
      <path id="Path_40937" data-name="Path 40937" d="M233.289,570.076a55.026,55.026,0,1,0,0,.436Z" transform="translate(-122.798 -514.832)" fill="url(#radial-gradient)"/>
      <path id="Path_40938" data-name="Path 40938" d="M213.949,563.818a42.169,42.169,0,1,0-42.168,42.169h0a42.013,42.013,0,0,0,42.168-41.855Z" transform="translate(-116.365 -508.39)" fill="none" stroke="#451991" stroke-miterlimit="10" stroke-width="4"/>
      <g id="Group_18422" data-name="Group 18422" transform="translate(9.788 31.017)">
        <path id="Path_40939" data-name="Path 40939" d="M222.95,530.78a55.252,55.252,0,0,1-95.117,55.014A55.077,55.077,0,0,0,222.95,530.78Z" transform="translate(-127.833 -530.78)" fill="#e7e9eb"/>
      </g>
    </g>
  </g>
  <g id="jFJkT2" transform="translate(-6962.19 -415.337)">
    <g id="Grupo_103727" data-name="Grupo 103727" transform="translate(6986.157 450.172)">
      <path id="Trazado_157840" data-name="Trazado 157840" d="M6986.157,510.342c4.326-.007,8.651.015,12.975-.043a1.762,1.762,0,0,1,1.913,1.046c.381.868,1.066.995,1.946.992q13.258-.044,26.516,0a2.038,2.038,0,0,0,2.012-.952,2.4,2.4,0,0,1,2.385-1.09c4.367.057,8.734.024,13.308.024.486,5.363.407,10.561-3.289,14.81-.945,1.087-2.865,1.57-4.422,1.839-6.61,1.142-13.294,1.029-19.965.748-6.244-.263-12.481-.657-18.722-1.006a34.359,34.359,0,0,1-3.787-.334,2.354,2.354,0,0,1-1.3-.9c-3.512-4.646-7.047-9.283-9.358-14.7-.031-.072-.139-.11-.211-.164Zm3.369,1.98-.321.394c2.453,3.536,4.921,7.061,7.344,10.618a2.39,2.39,0,0,0,2.192,1.185c1.263-.008,2.526.208,3.792.256,9.435.355,18.869.811,28.307.968a55.089,55.089,0,0,0,9.773-1.077,4.31,4.31,0,0,0,2.543-1.743c2.123-3.174,2.415-6.79,2.216-10.6-3.609,0-7.08.039-10.548-.024a2.385,2.385,0,0,0-2.38,1.09,2.058,2.058,0,0,1-2.007.973q-14.312-.052-28.625,0a1.936,1.936,0,0,1-1.825-.976c-.3-.445-.853-1-1.307-1.015C6995.632,512.279,6992.579,512.321,6989.526,512.321Z" transform="translate(-6986.157 -493.325)" fill="#12263f"/>
      <path id="Trazado_157841" data-name="Trazado 157841" d="M7054.966,578.967a6.266,6.266,0,0,1-1.925.317c-2.269-.354-4.514-.86-6.775-1.265a10.86,10.86,0,0,0-6.463.787,31.046,31.046,0,0,1-18.844,2.375c-3.717-.727-7.308-2.094-11.023-2.831a15.973,15.973,0,0,0-14.331,3.69c-.141.124-.288.33-.439.338-.54.026-1.084-.017-1.627-.034.122-.493.08-1.164.391-1.451a17.659,17.659,0,0,1,12.688-4.874,35.977,35.977,0,0,1,11.553,2.307,25.58,25.58,0,0,0,18.993-.7,21.162,21.162,0,0,1,13.995-.778c1.3.324,2.542.842,3.81,1.271Z" transform="translate(-6991.454 -540.493)" fill="#12263f"/>
      <path id="Trazado_157842" data-name="Trazado 157842" d="M7155.382,466.1c-.985,0-1.972.025-2.957-.007a3.248,3.248,0,0,1-3.323-3.289c-.058-2.017-.053-4.038,0-6.055a3.267,3.267,0,0,1,3.285-3.35c2.015-.084,4.038-.084,6.052,0a3.261,3.261,0,0,1,3.322,3.455c.043,1.971.051,3.944-.006,5.914a3.247,3.247,0,0,1-3.415,3.333C7157.354,466.124,7156.368,466.1,7155.382,466.1Zm4.412-6.849c0-.731.007-1.284,0-1.836-.023-1.6-.417-2.019-1.979-2.033-1.643-.015-3.287.01-4.93-.007-1.224-.013-1.821.544-1.805,1.788.022,1.691.033,3.382,0,5.072-.028,1.293.5,1.916,1.839,1.877,1.5-.045,3-.009,4.507-.011,2.227,0,2.562-.406,2.221-2.856h-3.389v-1.995Z" transform="translate(-7103.077 -452.445)" fill="#12263f"/>
      <path id="Trazado_157843" data-name="Trazado 157843" d="M7092.2,489.418v-7.382h13.427v7.382Zm2.06-5.426v3.387h9.411v-3.387Z" transform="translate(-7062.267 -473.042)" fill="#12263f"/>
      <path id="Trazado_157844" data-name="Trazado 157844" d="M7055.413,482.212v7.352H7042.03v-7.352Zm-1.975,1.927h-9.465v3.423h9.465Z" transform="translate(-7026.259 -473.168)" fill="#12263f"/>
      <path id="Trazado_157845" data-name="Trazado 157845" d="M7092.469,450.172h13.382v7.317h-13.382Zm11.419,2.07h-9.442V455.5h9.442Z" transform="translate(-7062.46 -450.172)" fill="#12263f"/>
      <path id="Trazado_157846" data-name="Trazado 157846" d="M7055.365,457.714h-13.4v-7.308h13.4Zm-11.484-2.038h9.5v-3.267h-9.5Z" transform="translate(-7026.209 -450.34)" fill="#12263f"/>
    </g>
  </g>
</svg>
