<svg xmlns="http://www.w3.org/2000/svg" xmlns:xlink="http://www.w3.org/1999/xlink" width="744" height="293" viewBox="0 0 744 293">
  <defs>
    <filter id="Rectángulo_34201" x="0" y="0" width="277" height="293" filterUnits="userSpaceOnUse">
      <feOffset dy="3" input="SourceAlpha"/>
      <feGaussianBlur stdDeviation="8" result="blur"/>
      <feFlood flood-opacity="0.161"/>
      <feComposite operator="in" in2="blur"/>
      <feComposite in="SourceGraphic"/>
    </filter>
    <radialGradient id="radial-gradient" cx="0.076" cy="0.019" r="1.465" gradientTransform="translate(0.001)" gradientUnits="objectBoundingBox">
      <stop offset="0" stop-color="#f6f6f7"/>
      <stop offset="0.477" stop-color="#f9f9fa"/>
      <stop offset="0.715" stop-color="#fff"/>
    </radialGradient>
    <filter id="Rectángulo_34260" x="467" y="0" width="277" height="293" filterUnits="userSpaceOnUse">
      <feOffset dy="3" input="SourceAlpha"/>
      <feGaussianBlur stdDeviation="8" result="blur-2"/>
      <feFlood flood-opacity="0.161"/>
      <feComposite operator="in" in2="blur-2"/>
      <feComposite in="SourceGraphic"/>
    </filter>
    <filter id="Rectángulo_34262" x="233" y="0" width="277" height="293" filterUnits="userSpaceOnUse">
      <feOffset dy="3" input="SourceAlpha"/>
      <feGaussianBlur stdDeviation="8" result="blur-3"/>
      <feFlood flood-opacity="0.161"/>
      <feComposite operator="in" in2="blur-3"/>
      <feComposite in="SourceGraphic"/>
    </filter>
  </defs>
  <g id="Grupo_118230" data-name="Grupo 118230" transform="translate(-527 -3816)">
    <g id="Grupo_111610" data-name="Grupo 111610" transform="translate(339 2355)">
      <rect id="Rectángulo_34207" data-name="Rectángulo 34207" width="229" height="6" transform="translate(212 1727)" fill="#451991"/>
      <g transform="matrix(1, 0, 0, 1, 188, 1461)" filter="url(#Rectángulo_34201)">
        <path id="Rectángulo_34201-2" data-name="Rectángulo 34201" d="M10,0H219a10,10,0,0,1,10,10V245a0,0,0,0,1,0,0H0a0,0,0,0,1,0,0V10A10,10,0,0,1,10,0Z" transform="translate(24 21)" fill="#fff"/>
      </g>
      <path id="Trazado_173640" data-name="Trazado 173640" d="M21.218,12.788a1.2,1.2,0,0,0-.452-1,5.623,5.623,0,0,0-1.59-.739,15.25,15.25,0,0,1-1.859-.739Q14.968,9.16,14.968,7.143a2.843,2.843,0,0,1,.585-1.772,3.785,3.785,0,0,1,1.656-1.2,6.444,6.444,0,0,1,2.407-.427,5.637,5.637,0,0,1,2.337.465,3.7,3.7,0,0,1,1.606,1.324A3.457,3.457,0,0,1,24.132,7.5H21.227a1.461,1.461,0,0,0-.452-1.146,1.763,1.763,0,0,0-1.224-.407,1.989,1.989,0,0,0-1.233.344,1.014,1.014,0,0,0,.046,1.718,6.281,6.281,0,0,0,1.751.78,10.729,10.729,0,0,1,2.059.867,3.459,3.459,0,0,1,1.959,3.113,2.951,2.951,0,0,1-1.2,2.49,5.317,5.317,0,0,1-3.279.9A6.505,6.505,0,0,1,17,15.639,4.011,4.011,0,0,1,15.2,14.195a3.763,3.763,0,0,1-.6-2.113h2.922a1.854,1.854,0,0,0,.5,1.432,2.374,2.374,0,0,0,1.631.461,1.875,1.875,0,0,0,1.141-.311A1.027,1.027,0,0,0,21.218,12.788ZM28.448,16H25.643V7.019h2.806ZM25.477,4.694a1.26,1.26,0,0,1,.432-.985,1.826,1.826,0,0,1,2.241,0,1.26,1.26,0,0,1,.432.985,1.26,1.26,0,0,1-.432.985,1.826,1.826,0,0,1-2.241,0A1.26,1.26,0,0,1,25.477,4.694Zm9.4,8.782A.646.646,0,0,0,34.5,12.9a5.682,5.682,0,0,0-1.419-.448,6.473,6.473,0,0,1-1.727-.61,2.892,2.892,0,0,1-1.038-.917,2.19,2.19,0,0,1-.357-1.237A2.482,2.482,0,0,1,30.98,7.654a4.206,4.206,0,0,1,2.673-.8,4.66,4.66,0,0,1,2.855.805,2.518,2.518,0,0,1,1.079,2.117H34.782q0-1.079-1.137-1.079a1.127,1.127,0,0,0-.739.245.758.758,0,0,0-.3.61.7.7,0,0,0,.365.606,3.451,3.451,0,0,0,1.166.382,10.078,10.078,0,0,1,1.407.357,2.556,2.556,0,0,1,2.025,2.5,2.352,2.352,0,0,1-1.092,2,4.787,4.787,0,0,1-2.826.772,4.885,4.885,0,0,1-2.059-.415,3.442,3.442,0,0,1-1.411-1.129,2.556,2.556,0,0,1-.506-1.5h2.615a1.081,1.081,0,0,0,.415.909,1.707,1.707,0,0,0,1.021.286,1.343,1.343,0,0,0,.859-.232A.743.743,0,0,0,34.873,13.477Zm7.263-8.691V7.019h1.478V8.961H42.136V13.07a1.049,1.049,0,0,0,.183.706.98.98,0,0,0,.722.2,4.1,4.1,0,0,0,.7-.05v2a5.163,5.163,0,0,1-1.577.241,2.93,2.93,0,0,1-2.133-.681,2.79,2.79,0,0,1-.689-2.067V8.961H38.193V7.019h1.146V4.786Zm6.923,11.38a4.617,4.617,0,0,1-3.345-1.233,4.257,4.257,0,0,1-1.278-3.208v-.232a5.516,5.516,0,0,1,.51-2.432,3.735,3.735,0,0,1,1.49-1.631,4.5,4.5,0,0,1,2.324-.577,3.888,3.888,0,0,1,2.988,1.175,4.616,4.616,0,0,1,1.1,3.275v1.087H47.283a2.016,2.016,0,0,0,.656,1.187,1.951,1.951,0,0,0,1.312.432,2.514,2.514,0,0,0,2.075-.93L52.6,14.589a3.573,3.573,0,0,1-1.482,1.15A5.007,5.007,0,0,1,49.059,16.166Zm-.315-7.155q-1.229,0-1.461,1.627H50.1v-.216a1.386,1.386,0,0,0-.34-1.042A1.354,1.354,0,0,0,48.744,9.011Zm7.869-1.992L56.7,8.073a3.088,3.088,0,0,1,2.565-1.22,2.273,2.273,0,0,1,2.3,1.353,2.989,2.989,0,0,1,2.64-1.353q2.731,0,2.806,3.3V16H64.208V10.331a1.712,1.712,0,0,0-.232-1,.989.989,0,0,0-.847-.315,1.325,1.325,0,0,0-1.237.739l.008.116V16H59.095V10.347a1.8,1.8,0,0,0-.224-1.021.987.987,0,0,0-.855-.315,1.342,1.342,0,0,0-1.229.739V16h-2.8V7.019ZM73.671,16a3.159,3.159,0,0,1-.266-.805,2.6,2.6,0,0,1-2.158.971,3.187,3.187,0,0,1-2.158-.768,2.444,2.444,0,0,1-.888-1.93A2.512,2.512,0,0,1,69.28,11.26a5.5,5.5,0,0,1,3.138-.747h.863v-.475q0-1.243-1.071-1.243a.875.875,0,0,0-1,.984h-2.8a2.508,2.508,0,0,1,1.108-2.114,4.657,4.657,0,0,1,2.826-.813,4.083,4.083,0,0,1,2.714.838,2.915,2.915,0,0,1,1.021,2.3v3.976a4.072,4.072,0,0,0,.382,1.893V16Zm-1.751-1.826a1.56,1.56,0,0,0,.867-.224,1.4,1.4,0,0,0,.494-.506V12.007h-.813q-1.461,0-1.461,1.312a.8.8,0,0,0,.257.618A.931.931,0,0,0,71.919,14.174ZM86.927,16a3.159,3.159,0,0,1-.266-.805,2.6,2.6,0,0,1-2.158.971,3.187,3.187,0,0,1-2.158-.768,2.444,2.444,0,0,1-.888-1.93,2.512,2.512,0,0,1,1.079-2.208,5.5,5.5,0,0,1,3.138-.747h.863v-.475q0-1.243-1.071-1.243a.875.875,0,0,0-1,.984h-2.8a2.508,2.508,0,0,1,1.108-2.114,4.657,4.657,0,0,1,2.826-.813,4.083,4.083,0,0,1,2.714.838,2.915,2.915,0,0,1,1.021,2.3v3.976a4.072,4.072,0,0,0,.382,1.893V16Zm-1.751-1.826a1.56,1.56,0,0,0,.867-.224,1.4,1.4,0,0,0,.494-.506V12.007h-.813q-1.461,0-1.461,1.312a.8.8,0,0,0,.257.618A.931.931,0,0,0,85.176,14.174ZM96.324,9.55,95.4,9.484a1.655,1.655,0,0,0-1.693.83V16h-2.8V7.019h2.623l.091,1.154a2.166,2.166,0,0,1,1.967-1.32,2.728,2.728,0,0,1,.78.1Zm3.652-2.532.091,1.054a3.088,3.088,0,0,1,2.565-1.22,2.273,2.273,0,0,1,2.3,1.353,2.989,2.989,0,0,1,2.64-1.353q2.731,0,2.806,3.3V16h-2.806V10.331a1.712,1.712,0,0,0-.232-1,.989.989,0,0,0-.847-.315,1.325,1.325,0,0,0-1.237.739l.008.116V16h-2.806V10.347a1.8,1.8,0,0,0-.224-1.021.987.987,0,0,0-.855-.315,1.342,1.342,0,0,0-1.229.739V16h-2.8V7.019Zm11.646,4.408a5.3,5.3,0,0,1,.523-2.395,3.74,3.74,0,0,1,1.5-1.615,4.525,4.525,0,0,1,2.3-.564A4.13,4.13,0,0,1,119.126,8.1a4.794,4.794,0,0,1,1.162,3.4v.1a4.651,4.651,0,0,1-1.166,3.333,4.141,4.141,0,0,1-3.158,1.233,4.188,4.188,0,0,1-3.08-1.15A4.5,4.5,0,0,1,111.63,11.9Zm2.8.174a3.342,3.342,0,0,0,.39,1.826,1.3,1.3,0,0,0,1.154.581q1.494,0,1.527-2.3v-.282q0-2.416-1.544-2.416-1.4,0-1.519,2.083Zm9.67-4.582.091,1.054a3.046,3.046,0,0,1,2.565-1.22,2.562,2.562,0,0,1,2.1.838,3.991,3.991,0,0,1,.718,2.523V16h-2.806V10.331a1.516,1.516,0,0,0-.274-1,1.267,1.267,0,0,0-1-.32,1.334,1.334,0,0,0-1.22.647V16h-2.8V7.019ZM134.059,16h-2.806V7.019h2.806ZM131.087,4.694a1.26,1.26,0,0,1,.432-.985,1.826,1.826,0,0,1,2.241,0,1.26,1.26,0,0,1,.432.985,1.26,1.26,0,0,1-.432.985,1.826,1.826,0,0,1-2.241,0A1.26,1.26,0,0,1,131.087,4.694Zm7.994,9.147h4.092V16h-7.628V14.439l3.984-5.263h-3.81V7.019h7.363V8.529ZM149.59,16a3.158,3.158,0,0,1-.266-.805,2.6,2.6,0,0,1-2.158.971,3.187,3.187,0,0,1-2.158-.768,2.444,2.444,0,0,1-.888-1.93A2.512,2.512,0,0,1,145.2,11.26a5.5,5.5,0,0,1,3.138-.747h.863v-.475q0-1.243-1.071-1.243a.875.875,0,0,0-1,.984h-2.8a2.508,2.508,0,0,1,1.108-2.114,4.657,4.657,0,0,1,2.826-.813,4.083,4.083,0,0,1,2.714.838,2.915,2.915,0,0,1,1.021,2.3v3.976a4.072,4.072,0,0,0,.382,1.893V16Zm-1.751-1.826a1.56,1.56,0,0,0,.867-.224,1.4,1.4,0,0,0,.494-.506V12.007h-.813q-1.461,0-1.461,1.312a.8.8,0,0,0,.257.618A.931.931,0,0,0,147.838,14.174Zm5.362-2.731a5.486,5.486,0,0,1,.921-3.362A3.033,3.033,0,0,1,156.7,6.853a2.579,2.579,0,0,1,2.025.946V3.25h2.806V16h-2.515l-.141-.963a2.649,2.649,0,0,1-2.191,1.129,3.027,3.027,0,0,1-2.54-1.229A5.66,5.66,0,0,1,153.2,11.443Zm2.8.174q0,2.391,1.395,2.391a1.377,1.377,0,0,0,1.328-.78V9.808a1.34,1.34,0,0,0-1.312-.8q-1.295,0-1.4,2.092Zm6.765-.191a5.3,5.3,0,0,1,.523-2.395,3.74,3.74,0,0,1,1.5-1.615,4.525,4.525,0,0,1,2.3-.564A4.13,4.13,0,0,1,170.267,8.1a4.794,4.794,0,0,1,1.162,3.4v.1a4.651,4.651,0,0,1-1.166,3.333,4.141,4.141,0,0,1-3.158,1.233,4.188,4.188,0,0,1-3.08-1.15,4.5,4.5,0,0,1-1.253-3.117Zm2.8.174a3.342,3.342,0,0,0,.39,1.826,1.3,1.3,0,0,0,1.154.581q1.494,0,1.527-2.3v-.282q0-2.416-1.544-2.416-1.4,0-1.519,2.083Zm10.982-.158a5.486,5.486,0,0,1,.921-3.362,3.033,3.033,0,0,1,2.573-1.229,2.579,2.579,0,0,1,2.025.946V3.25h2.806V16h-2.515l-.141-.963a2.649,2.649,0,0,1-2.191,1.129,3.027,3.027,0,0,1-2.54-1.229A5.66,5.66,0,0,1,176.542,11.443Zm2.8.174q0,2.391,1.395,2.391a1.377,1.377,0,0,0,1.328-.78V9.808a1.34,1.34,0,0,0-1.312-.8q-1.295,0-1.4,2.092ZM190.8,16.166a4.617,4.617,0,0,1-3.345-1.233,4.257,4.257,0,0,1-1.278-3.208v-.232a5.516,5.516,0,0,1,.51-2.432,3.735,3.735,0,0,1,1.49-1.631,4.5,4.5,0,0,1,2.324-.577,3.888,3.888,0,0,1,2.988,1.175,4.616,4.616,0,0,1,1.1,3.275v1.087h-5.562a2.016,2.016,0,0,0,.656,1.187,1.951,1.951,0,0,0,1.312.432,2.514,2.514,0,0,0,2.075-.93l1.278,1.511a3.573,3.573,0,0,1-1.482,1.15A5.007,5.007,0,0,1,190.8,16.166Zm-.315-7.155q-1.229,0-1.461,1.627h2.822v-.216a1.386,1.386,0,0,0-.34-1.042A1.354,1.354,0,0,0,190.488,9.011ZM2.724,38.443a5.486,5.486,0,0,1,.921-3.362,3.033,3.033,0,0,1,2.573-1.229,2.579,2.579,0,0,1,2.025.946V30.25H11.05V43H8.535l-.141-.963A2.649,2.649,0,0,1,6.2,43.166a3.027,3.027,0,0,1-2.54-1.229A5.66,5.66,0,0,1,2.724,38.443Zm2.8.174q0,2.391,1.395,2.391a1.377,1.377,0,0,0,1.328-.78v-3.42a1.34,1.34,0,0,0-1.312-.8q-1.295,0-1.4,2.092Zm11.463,4.549a4.617,4.617,0,0,1-3.345-1.233,4.257,4.257,0,0,1-1.278-3.208v-.232a5.516,5.516,0,0,1,.51-2.432,3.735,3.735,0,0,1,1.49-1.631,4.5,4.5,0,0,1,2.324-.577,3.888,3.888,0,0,1,2.988,1.175,4.616,4.616,0,0,1,1.1,3.275v1.087H15.208a2.016,2.016,0,0,0,.656,1.187,1.951,1.951,0,0,0,1.312.432,2.514,2.514,0,0,0,2.075-.93l1.278,1.511a3.573,3.573,0,0,1-1.482,1.15A5.007,5.007,0,0,1,16.985,43.166Zm-.315-7.155q-1.229,0-1.461,1.627h2.822v-.216a1.386,1.386,0,0,0-.34-1.042A1.354,1.354,0,0,0,16.669,36.011ZM26.6,40.477a.646.646,0,0,0-.374-.573,5.682,5.682,0,0,0-1.419-.448,6.473,6.473,0,0,1-1.727-.61,2.892,2.892,0,0,1-1.038-.917,2.19,2.19,0,0,1-.357-1.237A2.482,2.482,0,0,1,22.7,34.654a4.206,4.206,0,0,1,2.673-.8,4.66,4.66,0,0,1,2.855.805,2.518,2.518,0,0,1,1.079,2.117H26.506q0-1.079-1.137-1.079a1.127,1.127,0,0,0-.739.245.758.758,0,0,0-.3.61.7.7,0,0,0,.365.606,3.451,3.451,0,0,0,1.166.382,10.078,10.078,0,0,1,1.407.357,2.556,2.556,0,0,1,2.025,2.5,2.352,2.352,0,0,1-1.092,2,4.787,4.787,0,0,1-2.826.772,4.885,4.885,0,0,1-2.059-.415,3.442,3.442,0,0,1-1.411-1.129,2.556,2.556,0,0,1-.506-1.5h2.615a1.081,1.081,0,0,0,.415.909,1.707,1.707,0,0,0,1.021.286,1.343,1.343,0,0,0,.859-.232A.743.743,0,0,0,26.6,40.477ZM33.553,43H30.748V34.019h2.806ZM30.582,31.694a1.26,1.26,0,0,1,.432-.985,1.826,1.826,0,0,1,2.241,0,1.341,1.341,0,0,1,0,1.971,1.826,1.826,0,0,1-2.241,0A1.26,1.26,0,0,1,30.582,31.694Zm4.366,6.749a6.064,6.064,0,0,1,.448-2.407,3.609,3.609,0,0,1,1.287-1.615,3.392,3.392,0,0,1,1.951-.569,2.7,2.7,0,0,1,2.191.946l.1-.78h2.54V42.66a3.787,3.787,0,0,1-.552,2.063,3.542,3.542,0,0,1-1.6,1.345,5.873,5.873,0,0,1-2.424.469,5.067,5.067,0,0,1-1.913-.374,3.454,3.454,0,0,1-1.415-.971l1.17-1.644a2.565,2.565,0,0,0,2.059.921A1.666,1.666,0,0,0,40.65,42.56v-.282a2.627,2.627,0,0,1-2.034.888,3.246,3.246,0,0,1-2.656-1.258,5.21,5.21,0,0,1-1.013-3.366Zm2.806.174a3.2,3.2,0,0,0,.415,1.747,1.309,1.309,0,0,0,1.162.643,1.486,1.486,0,0,0,1.32-.606V36.625a1.449,1.449,0,0,0-1.3-.614,1.318,1.318,0,0,0-1.17.668A3.644,3.644,0,0,0,37.753,38.617Zm9.87-4.6.091,1.054a3.046,3.046,0,0,1,2.565-1.22,2.562,2.562,0,0,1,2.1.838,3.991,3.991,0,0,1,.718,2.523V43H50.288V37.331a1.516,1.516,0,0,0-.274-1,1.267,1.267,0,0,0-1-.32,1.334,1.334,0,0,0-1.22.647V43H45V34.019ZM59.7,43a3.158,3.158,0,0,1-.266-.805,2.6,2.6,0,0,1-2.158.971,3.187,3.187,0,0,1-2.158-.768,2.444,2.444,0,0,1-.888-1.93A2.512,2.512,0,0,1,55.31,38.26a5.5,5.5,0,0,1,3.138-.747h.863v-.475q0-1.243-1.071-1.243a.875.875,0,0,0-1,.984h-2.8a2.508,2.508,0,0,1,1.108-2.114,4.657,4.657,0,0,1,2.826-.813,4.083,4.083,0,0,1,2.714.838,2.915,2.915,0,0,1,1.021,2.3v3.976a4.072,4.072,0,0,0,.382,1.893V43Zm-1.751-1.826a1.56,1.56,0,0,0,.867-.224,1.4,1.4,0,0,0,.494-.506V39.007H58.5q-1.461,0-1.461,1.312a.8.8,0,0,0,.257.618A.931.931,0,0,0,57.949,41.174Zm9.513-.166a1.244,1.244,0,0,0,.913-.32,1.172,1.172,0,0,0,.315-.892h2.623a3.105,3.105,0,0,1-1.058,2.424,3.937,3.937,0,0,1-2.727.946,3.986,3.986,0,0,1-3.088-1.229,4.841,4.841,0,0,1-1.129-3.4v-.116a5.471,5.471,0,0,1,.5-2.4,3.656,3.656,0,0,1,1.448-1.6,4.319,4.319,0,0,1,2.241-.56,3.887,3.887,0,0,1,2.781.971,3.445,3.445,0,0,1,1.029,2.631H68.69a1.536,1.536,0,0,0-.34-1.071,1.175,1.175,0,0,0-.913-.374q-1.087,0-1.27,1.386a9.782,9.782,0,0,0-.058,1.212,3.842,3.842,0,0,0,.324,1.876A1.121,1.121,0,0,0,67.462,41.008ZM75.447,43H72.642V34.019h2.806ZM72.476,31.694a1.26,1.26,0,0,1,.432-.985,1.826,1.826,0,0,1,2.241,0,1.341,1.341,0,0,1,0,1.971,1.826,1.826,0,0,1-2.241,0A1.26,1.26,0,0,1,72.476,31.694Zm4.341,6.732a5.3,5.3,0,0,1,.523-2.395,3.74,3.74,0,0,1,1.5-1.615,4.525,4.525,0,0,1,2.3-.564A4.13,4.13,0,0,1,84.321,35.1a4.794,4.794,0,0,1,1.162,3.4v.1a4.651,4.651,0,0,1-1.166,3.333,4.141,4.141,0,0,1-3.158,1.233,4.188,4.188,0,0,1-3.08-1.15A4.5,4.5,0,0,1,76.825,38.9Zm2.8.174A3.342,3.342,0,0,0,80,40.427a1.3,1.3,0,0,0,1.154.581q1.494,0,1.527-2.3v-.282q0-2.416-1.544-2.416-1.4,0-1.519,2.083Zm1.909-8.351h2.955l-2.308,2.606-2.283,0Zm7.761,3.769.091,1.054a3.046,3.046,0,0,1,2.565-1.22,2.562,2.562,0,0,1,2.1.838,3.991,3.991,0,0,1,.718,2.523V43H91.949V37.331a1.516,1.516,0,0,0-.274-1,1.267,1.267,0,0,0-1-.32,1.334,1.334,0,0,0-1.22.647V43h-2.8V34.019Zm14.842,5.063,1.494-5.063h3L104.957,44.5l-.158.382a2.781,2.781,0,0,1-2.756,1.743,4.384,4.384,0,0,1-1.154-.165V44.469h.365a1.913,1.913,0,0,0,.9-.17,1.033,1.033,0,0,0,.461-.611l.224-.6-3.121-9.072h2.988Zm13.248,1.926a1.244,1.244,0,0,0,.913-.32,1.172,1.172,0,0,0,.315-.892h2.623a3.105,3.105,0,0,1-1.058,2.424,3.937,3.937,0,0,1-2.727.946,3.986,3.986,0,0,1-3.088-1.229,4.841,4.841,0,0,1-1.129-3.4v-.116a5.471,5.471,0,0,1,.5-2.4,3.656,3.656,0,0,1,1.448-1.6,4.319,4.319,0,0,1,2.241-.56,3.887,3.887,0,0,1,2.781.971,3.445,3.445,0,0,1,1.029,2.631H118.6a1.536,1.536,0,0,0-.34-1.071,1.175,1.175,0,0,0-.913-.374q-1.087,0-1.27,1.386a9.782,9.782,0,0,0-.058,1.212,3.842,3.842,0,0,0,.324,1.876A1.121,1.121,0,0,0,117.375,41.008Zm4.682-2.582a5.3,5.3,0,0,1,.523-2.395,3.74,3.74,0,0,1,1.5-1.615,4.525,4.525,0,0,1,2.3-.564A4.13,4.13,0,0,1,129.56,35.1a4.794,4.794,0,0,1,1.162,3.4v.1a4.651,4.651,0,0,1-1.166,3.333,4.141,4.141,0,0,1-3.158,1.233,4.188,4.188,0,0,1-3.08-1.15,4.5,4.5,0,0,1-1.253-3.117Zm2.8.174a3.342,3.342,0,0,0,.39,1.826,1.3,1.3,0,0,0,1.154.581q1.494,0,1.527-2.3v-.282q0-2.416-1.544-2.416-1.4,0-1.519,2.083Zm6.749-.158a5.486,5.486,0,0,1,.921-3.362,3.033,3.033,0,0,1,2.573-1.229,2.579,2.579,0,0,1,2.025.946V30.25h2.806V43h-2.515l-.141-.963a2.649,2.649,0,0,1-2.191,1.129,3.027,3.027,0,0,1-2.54-1.229A5.66,5.66,0,0,1,131.6,38.443Zm2.8.174q0,2.391,1.395,2.391a1.377,1.377,0,0,0,1.328-.78v-3.42a1.34,1.34,0,0,0-1.312-.8q-1.295,0-1.4,2.092ZM144.468,43h-2.806V34.019h2.806ZM141.5,31.694a1.26,1.26,0,0,1,.432-.985,1.826,1.826,0,0,1,2.241,0,1.341,1.341,0,0,1,0,1.971,1.826,1.826,0,0,1-2.241,0A1.26,1.26,0,0,1,141.5,31.694ZM146.842,43V35.961h-1.3V34.019h1.3v-.3a3.429,3.429,0,0,1,1.179-2.748,4.71,4.71,0,0,1,3.063-.9,10.869,10.869,0,0,1,2.922.481l-.382,2.208-.465-.125a7.4,7.4,0,0,0-1.909-.241q-1.6,0-1.6,1.461v.158h1.76v1.942h-1.76V43Zm8.45,0h-2.814V34.019h2.814Zm5.5-1.992a1.244,1.244,0,0,0,.913-.32,1.172,1.172,0,0,0,.315-.892h2.623a3.105,3.105,0,0,1-1.058,2.424,3.937,3.937,0,0,1-2.727.946,3.986,3.986,0,0,1-3.088-1.229,4.84,4.84,0,0,1-1.129-3.4v-.116a5.471,5.471,0,0,1,.5-2.4,3.656,3.656,0,0,1,1.448-1.6,4.319,4.319,0,0,1,2.241-.56,3.887,3.887,0,0,1,2.781.971,3.445,3.445,0,0,1,1.029,2.631h-2.623a1.536,1.536,0,0,0-.34-1.071,1.175,1.175,0,0,0-.913-.374q-1.087,0-1.27,1.386a9.781,9.781,0,0,0-.058,1.212,3.842,3.842,0,0,0,.324,1.876A1.121,1.121,0,0,0,160.8,41.008ZM170.89,43a3.158,3.158,0,0,1-.266-.805,2.6,2.6,0,0,1-2.158.971,3.187,3.187,0,0,1-2.158-.768,2.444,2.444,0,0,1-.888-1.93A2.512,2.512,0,0,1,166.5,38.26a5.5,5.5,0,0,1,3.138-.747h.863v-.475q0-1.243-1.071-1.243a.875.875,0,0,0-1,.984h-2.8a2.508,2.508,0,0,1,1.108-2.114,4.657,4.657,0,0,1,2.826-.813,4.083,4.083,0,0,1,2.714.838,2.915,2.915,0,0,1,1.021,2.3v3.976a4.072,4.072,0,0,0,.382,1.893V43Zm-1.751-1.826a1.56,1.56,0,0,0,.867-.224,1.4,1.4,0,0,0,.494-.506V39.007h-.813q-1.461,0-1.461,1.312a.8.8,0,0,0,.257.618A.931.931,0,0,0,169.138,41.174Zm9.513-.166a1.244,1.244,0,0,0,.913-.32,1.172,1.172,0,0,0,.315-.892H182.5a3.105,3.105,0,0,1-1.058,2.424,3.937,3.937,0,0,1-2.727.946,3.986,3.986,0,0,1-3.088-1.229,4.84,4.84,0,0,1-1.129-3.4v-.116a5.471,5.471,0,0,1,.5-2.4,3.656,3.656,0,0,1,1.448-1.6,4.319,4.319,0,0,1,2.241-.56,3.887,3.887,0,0,1,2.781.971,3.445,3.445,0,0,1,1.029,2.631h-2.623a1.536,1.536,0,0,0-.34-1.071,1.175,1.175,0,0,0-.913-.374q-1.087,0-1.27,1.386a9.781,9.781,0,0,0-.058,1.212,3.842,3.842,0,0,0,.324,1.876A1.121,1.121,0,0,0,178.651,41.008ZM186.636,43h-2.806V34.019h2.806Zm-2.972-11.306a1.26,1.26,0,0,1,.432-.985,1.826,1.826,0,0,1,2.241,0,1.341,1.341,0,0,1,0,1.971,1.826,1.826,0,0,1-2.241,0A1.26,1.26,0,0,1,183.665,31.694Zm4.341,6.732a5.3,5.3,0,0,1,.523-2.395,3.74,3.74,0,0,1,1.5-1.615,4.525,4.525,0,0,1,2.3-.564A4.13,4.13,0,0,1,195.51,35.1a4.794,4.794,0,0,1,1.162,3.4v.1a4.651,4.651,0,0,1-1.166,3.333,4.141,4.141,0,0,1-3.158,1.233,4.188,4.188,0,0,1-3.08-1.15,4.5,4.5,0,0,1-1.253-3.117Zm2.8.174a3.342,3.342,0,0,0,.39,1.826,1.3,1.3,0,0,0,1.154.581q1.494,0,1.527-2.3v-.282q0-2.416-1.544-2.416-1.4,0-1.519,2.083Zm1.909-8.351h2.955l-2.308,2.606-2.283,0Zm7.761,3.769.091,1.054a3.046,3.046,0,0,1,2.565-1.22,2.562,2.562,0,0,1,2.1.838,3.991,3.991,0,0,1,.718,2.523V43h-2.806V37.331a1.516,1.516,0,0,0-.274-1,1.267,1.267,0,0,0-1-.32,1.334,1.334,0,0,0-1.22.647V43h-2.8V34.019ZM48.889,65.443a5.486,5.486,0,0,1,.921-3.362,3.033,3.033,0,0,1,2.573-1.229,2.579,2.579,0,0,1,2.025.946V57.25h2.806V70H54.7l-.141-.963a2.649,2.649,0,0,1-2.191,1.129,3.027,3.027,0,0,1-2.54-1.229A5.66,5.66,0,0,1,48.889,65.443Zm2.8.174q0,2.391,1.395,2.391a1.377,1.377,0,0,0,1.328-.78v-3.42a1.34,1.34,0,0,0-1.312-.8q-1.295,0-1.4,2.092ZM63.15,70.166A4.617,4.617,0,0,1,59.8,68.933a4.257,4.257,0,0,1-1.278-3.208v-.232a5.516,5.516,0,0,1,.51-2.432,3.735,3.735,0,0,1,1.49-1.631,4.5,4.5,0,0,1,2.324-.577,3.888,3.888,0,0,1,2.988,1.175,4.616,4.616,0,0,1,1.1,3.275v1.087H61.373a2.016,2.016,0,0,0,.656,1.187,1.951,1.951,0,0,0,1.312.432,2.514,2.514,0,0,0,2.075-.93l1.278,1.511a3.573,3.573,0,0,1-1.482,1.15A5.007,5.007,0,0,1,63.15,70.166Zm-.315-7.155q-1.229,0-1.461,1.627H64.2v-.216a1.386,1.386,0,0,0-.34-1.042A1.354,1.354,0,0,0,62.834,63.011Zm12.1-1.992.091,1.054a3.088,3.088,0,0,1,2.565-1.22,2.273,2.273,0,0,1,2.3,1.353,2.989,2.989,0,0,1,2.64-1.353q2.731,0,2.806,3.3V70H82.532V64.331a1.712,1.712,0,0,0-.232-1,.989.989,0,0,0-.847-.315,1.325,1.325,0,0,0-1.237.739l.008.116V70H77.419V64.347a1.8,1.8,0,0,0-.224-1.021.987.987,0,0,0-.855-.315,1.342,1.342,0,0,0-1.229.739V70h-2.8V61.019Zm16.344,9.147a4.617,4.617,0,0,1-3.345-1.233,4.257,4.257,0,0,1-1.278-3.208v-.232a5.516,5.516,0,0,1,.51-2.432,3.735,3.735,0,0,1,1.49-1.631,4.5,4.5,0,0,1,2.324-.577,3.888,3.888,0,0,1,2.988,1.175,4.616,4.616,0,0,1,1.1,3.275v1.087H89.5a2.016,2.016,0,0,0,.656,1.187,1.951,1.951,0,0,0,1.312.432,2.514,2.514,0,0,0,2.075-.93l1.278,1.511a3.573,3.573,0,0,1-1.482,1.15A5.007,5.007,0,0,1,91.281,70.166Zm-.315-7.155q-1.229,0-1.461,1.627h2.822v-.216a1.386,1.386,0,0,0-.34-1.042A1.354,1.354,0,0,0,90.966,63.011Zm10.658.54-.921-.066a1.655,1.655,0,0,0-1.693.83V70h-2.8V61.019h2.623l.091,1.154a2.166,2.166,0,0,1,1.967-1.32,2.728,2.728,0,0,1,.78.1Zm4.648,4.458a1.244,1.244,0,0,0,.913-.32,1.172,1.172,0,0,0,.315-.892h2.623a3.105,3.105,0,0,1-1.058,2.424,3.937,3.937,0,0,1-2.727.946,3.986,3.986,0,0,1-3.088-1.229,4.841,4.841,0,0,1-1.129-3.4v-.116a5.471,5.471,0,0,1,.5-2.4,3.656,3.656,0,0,1,1.448-1.6,4.319,4.319,0,0,1,2.241-.56,3.887,3.887,0,0,1,2.781.971,3.445,3.445,0,0,1,1.029,2.631H107.5a1.536,1.536,0,0,0-.34-1.071,1.175,1.175,0,0,0-.913-.374q-1.087,0-1.27,1.386a9.782,9.782,0,0,0-.058,1.212,3.842,3.842,0,0,0,.324,1.876A1.121,1.121,0,0,0,106.272,68.008ZM116.366,70a3.159,3.159,0,0,1-.266-.805,2.6,2.6,0,0,1-2.158.971,3.187,3.187,0,0,1-2.158-.768,2.444,2.444,0,0,1-.888-1.93,2.512,2.512,0,0,1,1.079-2.208,5.5,5.5,0,0,1,3.138-.747h.863v-.475q0-1.243-1.071-1.243a.875.875,0,0,0-1,.984h-2.8a2.508,2.508,0,0,1,1.108-2.114,4.657,4.657,0,0,1,2.826-.813,4.083,4.083,0,0,1,2.714.838,2.915,2.915,0,0,1,1.021,2.3v3.976a4.072,4.072,0,0,0,.382,1.893V70Zm-1.751-1.826a1.56,1.56,0,0,0,.867-.224,1.4,1.4,0,0,0,.494-.506V66.007h-.813q-1.461,0-1.461,1.312a.8.8,0,0,0,.257.618A.931.931,0,0,0,114.615,68.174Zm8.284-7.155.091,1.054a3.046,3.046,0,0,1,2.565-1.22,2.562,2.562,0,0,1,2.1.838,3.991,3.991,0,0,1,.718,2.523V70h-2.806V64.331a1.516,1.516,0,0,0-.274-1,1.267,1.267,0,0,0-1-.32,1.334,1.334,0,0,0-1.22.647V70h-2.8V61.019Zm10.816,6.989a1.244,1.244,0,0,0,.913-.32,1.172,1.172,0,0,0,.315-.892h2.623a3.105,3.105,0,0,1-1.058,2.424,3.937,3.937,0,0,1-2.727.946,3.986,3.986,0,0,1-3.088-1.229,4.84,4.84,0,0,1-1.129-3.4v-.116a5.471,5.471,0,0,1,.5-2.4,3.656,3.656,0,0,1,1.448-1.6,4.319,4.319,0,0,1,2.241-.56,3.887,3.887,0,0,1,2.781.971,3.445,3.445,0,0,1,1.029,2.631h-2.623a1.536,1.536,0,0,0-.34-1.071,1.175,1.175,0,0,0-.913-.374q-1.087,0-1.27,1.386a9.781,9.781,0,0,0-.058,1.212,3.842,3.842,0,0,0,.324,1.876A1.121,1.121,0,0,0,133.715,68.008ZM141.8,70h-2.814V61.019H141.8Zm-1.046-12.584h2.955L141.4,60.022l-2.283,0ZM148.656,70a3.158,3.158,0,0,1-.266-.805,2.6,2.6,0,0,1-2.158.971,3.187,3.187,0,0,1-2.158-.768,2.444,2.444,0,0,1-.888-1.93,2.512,2.512,0,0,1,1.079-2.208,5.5,5.5,0,0,1,3.138-.747h.863v-.475q0-1.243-1.071-1.243a.875.875,0,0,0-1,.984h-2.8a2.508,2.508,0,0,1,1.108-2.114,4.657,4.657,0,0,1,2.826-.813,4.083,4.083,0,0,1,2.714.838,2.915,2.915,0,0,1,1.021,2.3v3.976a4.072,4.072,0,0,0,.382,1.893V70ZM146.9,68.174a1.56,1.56,0,0,0,.867-.224,1.4,1.4,0,0,0,.494-.506V66.007h-.813q-1.461,0-1.461,1.312a.8.8,0,0,0,.257.618A.931.931,0,0,0,146.9,68.174Zm10.417-.7a.646.646,0,0,0-.374-.573,5.682,5.682,0,0,0-1.419-.448,6.472,6.472,0,0,1-1.727-.61,2.892,2.892,0,0,1-1.038-.917,2.19,2.19,0,0,1-.357-1.237,2.482,2.482,0,0,1,1.021-2.038,4.206,4.206,0,0,1,2.673-.8,4.66,4.66,0,0,1,2.855.805,2.518,2.518,0,0,1,1.079,2.117h-2.806q0-1.079-1.137-1.079a1.127,1.127,0,0,0-.739.245.758.758,0,0,0-.3.61.7.7,0,0,0,.365.606,3.451,3.451,0,0,0,1.166.382,10.079,10.079,0,0,1,1.407.357,2.556,2.556,0,0,1,2.025,2.5,2.352,2.352,0,0,1-1.092,2,4.787,4.787,0,0,1-2.826.772,4.885,4.885,0,0,1-2.059-.415,3.442,3.442,0,0,1-1.411-1.129,2.556,2.556,0,0,1-.506-1.5h2.615a1.081,1.081,0,0,0,.415.909,1.707,1.707,0,0,0,1.021.286,1.343,1.343,0,0,0,.859-.232A.743.743,0,0,0,157.322,67.477Z" transform="translate(222 1614)" fill="#12263f"/>
      <g id="Grupo_111578" data-name="Grupo 111578" transform="translate(269.182 1490.363)">
        <g id="Grupo_18423" data-name="Grupo 18423" transform="translate(0 0)">
          <g id="Grupo_18421" data-name="Grupo 18421">
            <g id="Grupo_18420" data-name="Grupo 18420">
              <g id="Grupo_18419" data-name="Grupo 18419">
                <path id="Trazado_40936" data-name="Trazado 40936" d="M309.259,2203.037a57.318,57.318,0,1,1-57.317-57.316A57.317,57.317,0,0,1,309.259,2203.037Z" transform="translate(-194.623 -2145.721)" fill="#fff"/>
              </g>
            </g>
          </g>
          <path id="Trazado_40937" data-name="Trazado 40937" d="M308.648,2202.372a57.316,57.316,0,1,0-57.317,57.319A57.091,57.091,0,0,0,308.648,2202.372Z" transform="translate(-194.013 -2145.056)" fill="url(#radial-gradient)"/>
          <path id="Trazado_40938" data-name="Trazado 40938" d="M289.672,2196.986a43.75,43.75,0,1,0-43.75,43.75A43.587,43.587,0,0,0,289.672,2196.986Z" transform="translate(-188.43 -2139.479)" fill="none" stroke="#00223d" stroke-miterlimit="10" stroke-width="4"/>
          <g id="Grupo_18422" data-name="Grupo 18422" transform="translate(10.154 32.18)">
            <path id="Trazado_40939" data-name="Trazado 40939" d="M299.231,2164.488a57.325,57.325,0,0,1-98.686,57.081,57.143,57.143,0,0,0,98.686-57.081Z" transform="translate(-200.545 -2164.488)" fill="#eceef0"/>
          </g>
        </g>
        <g id="hhfuqA.tif" transform="translate(-78.437 -111.923)">
          <g id="Grupo_111570" data-name="Grupo 111570" transform="translate(114.874 140.127)">
            <path id="Trazado_167038" data-name="Trazado 167038" d="M123.309,140.127a14.62,14.62,0,0,1,1.664.785,3.691,3.691,0,0,1,1.6,2.2c.107.384.281.447.629.446,3.773-.01,7.547,0,11.32-.014a1.984,1.984,0,0,1,1.655.685.819.819,0,0,0,.563.17c3.275.01,6.55.006,9.825.008a1.705,1.705,0,0,1,1.9,1.917c0,.478,0,.955,0,1.5h1.618a1.675,1.675,0,0,1,1.8,1.8q.007,8.7.006,17.407c0,8.579-.02,17.158.015,25.737a1.9,1.9,0,0,1-2.046,2.065q-16.366-.053-32.732,0a1.826,1.826,0,0,1-1.977-1.968c.045-.458.007-.923.007-1.47-.539,0-1.065,0-1.591,0a1.676,1.676,0,0,1-1.824-1.825q0-10.039,0-20.077a.9.9,0,0,0-.337-.825,1.585,1.585,0,0,1-.526-1.34q.011-5.366,0-10.733,0-5.553,0-11.107a1.7,1.7,0,0,1,1.929-1.932h1.559a4.457,4.457,0,0,1,3.448-3.421Zm27.528,41.951V181.4q0-13.536.007-27.073c0-.213,0-.428.013-.64a.739.739,0,0,1,.723-.723.77.77,0,0,1,.853.646,2.144,2.144,0,0,1,.023.531q0,13.856.009,27.712a3.088,3.088,0,0,1-.972,2.329q-3.153,3.115-6.268,6.267a3.023,3.023,0,0,1-2.286.941q-10.759-.022-21.519,0h-.613v1.772h33.415v-43.69h-1.76c0,.268,0,.5,0,.728-.013.585-.3.927-.793.94-.521.013-.817-.317-.822-.95-.008-1.121,0-2.243,0-3.364v-.792H140.482v.711q0,10.119,0,20.237c0,1.559-.6,2.165-2.16,2.165H117.378v20.6h25.741c0-.247,0-.458,0-.668,0-1.726,0-3.453.013-5.179a1.657,1.657,0,0,1,1.822-1.82c1.139-.007,2.278,0,3.417,0Zm-25.831-38.53c-.049-.141-.069-.225-.105-.3a2.621,2.621,0,0,0-2.711-1.482,2.522,2.522,0,0,0-2.251,2.516q-.076,4.324-.009,8.65a2.558,2.558,0,0,0,2.739,2.584,2.6,2.6,0,0,0,2.469-2.742q.006-1.548-.005-3.1c0-.671-.363-1.1-.9-1.092s-.881.432-.888,1.115c-.005.5.015,1-.009,1.495a.762.762,0,0,1-.807.8.784.784,0,0,1-.8-.817c-.019-.622-.036-1.248.006-1.868a2.525,2.525,0,0,1,2.52-2.344,2.461,2.461,0,0,1,2.492,2.35c.051.8.033,1.6.021,2.4a11.049,11.049,0,0,1-.1,2.073,4.188,4.188,0,0,1-4.714,3.308,4.241,4.241,0,0,1-3.645-4.21c-.014-2.385-.006-4.77-.008-7.155,0-.187,0-.373,0-.543h-1.775v22.27h22.277V145.156h-.671q-7.689,0-15.378-.006c-.652,0-1.037-.315-1.022-.818.014-.488.386-.78,1.008-.782C123.471,143.546,124.213,143.548,125.006,143.548Zm19.776,44.808,4.628-4.63h-4.628Z" transform="translate(-114.874 -140.127)" fill="#12263f"/>
            <path id="Trazado_167039" data-name="Trazado 167039" d="M237.377,437.561q-4.508,0-9.016,0c-.209,0-.487.021-.613-.1-.225-.209-.506-.527-.488-.78s.343-.523.594-.7c.148-.105.413-.059.625-.059q8.962,0,17.925,0c.85,0,1.261.258,1.276.8q.024.843-1.287.844Z" transform="translate(-215.233 -404.26)" fill="#12263f"/>
            <path id="Trazado_167040" data-name="Trazado 167040" d="M237.107,477.609q-4.509,0-9.018,0a2.123,2.123,0,0,1-.53-.031.78.78,0,0,1-.648-.8.763.763,0,0,1,.729-.78,2.959,2.959,0,0,1,.372-.016l18.036-.008a5.313,5.313,0,0,1,.533.014.794.794,0,0,1,.78.794.807.807,0,0,1-.811.823c-.514.028-1.031.014-1.547.014h-7.9Z" transform="translate(-214.921 -440.032)" fill="#12263f"/>
            <path id="Trazado_167041" data-name="Trazado 167041" d="M233.713,517.663c-1.94,0-3.88,0-5.819,0a.869.869,0,0,1-.932-.558.785.785,0,0,1,.823-1.057c1.227-.022,2.456-.016,3.684-.015q3.951,0,7.9.007a3.455,3.455,0,0,1,.373.014.8.8,0,0,1,0,1.6c-.443.028-.889.006-1.334.006Z" transform="translate(-214.918 -475.81)" fill="#12263f"/>
            <path id="Trazado_167042" data-name="Trazado 167042" d="M172.49,437.526c-.265,0-.532.016-.8,0a.844.844,0,0,1-.858-.832.823.823,0,0,1,.832-.8,15.967,15.967,0,0,1,1.7.009.766.766,0,0,1,.792.817.8.8,0,0,1-.819.8C173.057,437.543,172.773,437.525,172.49,437.526Z" transform="translate(-164.847 -404.228)" fill="#12263f"/>
            <path id="Trazado_167043" data-name="Trazado 167043" d="M388.74,363.916c.283,0,.568-.02.849.005a.828.828,0,0,1,.814.817.781.781,0,0,1-.768.8,13.408,13.408,0,0,1-1.8-.007.745.745,0,0,1-.75-.8.794.794,0,0,1,.808-.811C388.172,363.9,388.457,363.915,388.74,363.916Z" transform="translate(-357.955 -339.962)" fill="#12263f"/>
            <path id="Trazado_167044" data-name="Trazado 167044" d="M388.771,325.473a9.3,9.3,0,0,1-.958-.006.8.8,0,0,1-.023-1.584,11.607,11.607,0,0,1,1.916,0,.738.738,0,0,1,.7.805.751.751,0,0,1-.729.777A8.917,8.917,0,0,1,388.771,325.473Z" transform="translate(-357.967 -304.185)" fill="#12263f"/>
            <path id="Trazado_167045" data-name="Trazado 167045" d="M172.671,516.123c.284,0,.571-.023.853.005a.732.732,0,0,1,.722.774.724.724,0,0,1-.686.809,11.794,11.794,0,0,1-1.919.005.733.733,0,0,1-.7-.8.744.744,0,0,1,.72-.783c.335-.031.675-.006,1.013-.006Z" transform="translate(-164.939 -475.881)" fill="#12263f"/>
            <path id="Trazado_167046" data-name="Trazado 167046" d="M388.743,245.511c-.3,0-.6.013-.906,0a.734.734,0,0,1-.758-.737.761.761,0,0,1,.7-.85,13.789,13.789,0,0,1,1.917.008.792.792,0,0,1-.049,1.575c-.3.02-.6,0-.906,0Z" transform="translate(-357.948 -232.789)" fill="#12263f"/>
            <path id="Trazado_167047" data-name="Trazado 167047" d="M388.725,285.469c-.3,0-.6.018-.9,0a.738.738,0,0,1-.745-.747.763.763,0,0,1,.7-.844,13.432,13.432,0,0,1,1.908,0,.76.76,0,0,1,.706.8.8.8,0,0,1-.77.792c-.3.024-.6,0-.9,0Z" transform="translate(-357.949 -268.463)" fill="#12263f"/>
            <path id="Trazado_167048" data-name="Trazado 167048" d="M172.56,477.666c-.3,0-.606.024-.906-.006a.829.829,0,0,1-.767-.814.793.793,0,0,1,.78-.786c.585-.029,1.173-.027,1.758,0a.736.736,0,0,1,.776.775.79.79,0,0,1-.788.832c-.282.023-.568,0-.853,0Z" transform="translate(-164.893 -440.094)" fill="#12263f"/>
            <path id="Trazado_167049" data-name="Trazado 167049" d="M170.6,323.9c2.171,0,4.342,0,6.512,0a1.134,1.134,0,0,1,.664.108c.219.187.484.51.459.745-.029.263-.331.529-.572.722-.127.1-.377.066-.571.066q-6.325.008-12.651.008a5.227,5.227,0,0,1-.8-.045.746.746,0,0,1-.679-.767.768.768,0,0,1,.646-.8,2.18,2.18,0,0,1,.53-.032q3.229,0,6.459,0Z" transform="translate(-157.816 -304.231)" fill="#12263f"/>
            <path id="Trazado_167050" data-name="Trazado 167050" d="M253.79,285.537c-.674,0-1.348.01-2.021,0a.83.83,0,0,1-.916-.817.845.845,0,0,1,.9-.8q2.048-.019,4.1,0a.839.839,0,0,1,.911.832.808.808,0,0,1-.893.781C255.173,285.547,254.481,285.537,253.79,285.537Z" transform="translate(-236.301 -268.526)" fill="#12263f"/>
            <path id="Trazado_167051" data-name="Trazado 167051" d="M253.767,245.585c-.674,0-1.348.01-2.022,0a.808.808,0,1,1-.011-1.609q2.075-.019,4.15,0a.829.829,0,0,1,.884.8.8.8,0,0,1-.873.8c-.709.014-1.419,0-2.128,0Z" transform="translate(-236.309 -232.852)" fill="#12263f"/>
          </g>
        </g>
      </g>
    </g>
    <g id="Grupo_111611" data-name="Grupo 111611" transform="translate(89 -10516)">
      <rect id="Rectángulo_34259" data-name="Rectángulo 34259" width="229" height="6" transform="translate(929 14598)" fill="#451991"/>
      <g transform="matrix(1, 0, 0, 1, 438, 14332)" filter="url(#Rectángulo_34260)">
        <path id="Rectángulo_34260-2" data-name="Rectángulo 34260" d="M10,0H219a10,10,0,0,1,10,10V245a0,0,0,0,1,0,0H0a0,0,0,0,1,0,0V10A10,10,0,0,1,10,0Z" transform="translate(491 21)" fill="#fff"/>
      </g>
      <path id="Trazado_173642" data-name="Trazado 173642" d="M46.44,16h-2.9L39.26,8.479V16H36.346V3.914H39.26l4.275,7.521V3.914H46.44ZM47.8,11.426a5.3,5.3,0,0,1,.523-2.395,3.74,3.74,0,0,1,1.5-1.615,4.525,4.525,0,0,1,2.3-.564A4.13,4.13,0,0,1,55.3,8.1a4.794,4.794,0,0,1,1.162,3.4v.1A4.651,4.651,0,0,1,55.3,14.933a4.141,4.141,0,0,1-3.158,1.233,4.188,4.188,0,0,1-3.08-1.15A4.5,4.5,0,0,1,47.809,11.9Zm2.8.174a3.342,3.342,0,0,0,.39,1.826,1.3,1.3,0,0,0,1.154.581q1.494,0,1.527-2.3v-.282q0-2.416-1.544-2.416-1.4,0-1.519,2.083Zm9.745-4.582.091,1.054A3.088,3.088,0,0,1,63,6.853a2.273,2.273,0,0,1,2.3,1.353,2.989,2.989,0,0,1,2.64-1.353q2.731,0,2.806,3.3V16H67.939V10.331a1.712,1.712,0,0,0-.232-1,.989.989,0,0,0-.847-.315,1.325,1.325,0,0,0-1.237.739l.008.116V16H62.825V10.347A1.8,1.8,0,0,0,62.6,9.326a.987.987,0,0,0-.855-.315,1.342,1.342,0,0,0-1.229.739V16h-2.8V7.019Zm16.344,9.147a4.617,4.617,0,0,1-3.345-1.233,4.257,4.257,0,0,1-1.278-3.208v-.232a5.516,5.516,0,0,1,.51-2.432,3.735,3.735,0,0,1,1.49-1.631,4.5,4.5,0,0,1,2.324-.577,3.888,3.888,0,0,1,2.988,1.175,4.616,4.616,0,0,1,1.1,3.275v1.087H74.911a2.016,2.016,0,0,0,.656,1.187,1.951,1.951,0,0,0,1.312.432,2.514,2.514,0,0,0,2.075-.93l1.278,1.511a3.573,3.573,0,0,1-1.482,1.15A5.007,5.007,0,0,1,76.688,16.166Zm-.315-7.155q-1.229,0-1.461,1.627h2.822v-.216a1.386,1.386,0,0,0-.34-1.042A1.354,1.354,0,0,0,76.372,9.011Zm7.794-1.992.091,1.054a3.046,3.046,0,0,1,2.565-1.22,2.562,2.562,0,0,1,2.1.838,3.991,3.991,0,0,1,.718,2.523V16H86.831V10.331a1.516,1.516,0,0,0-.274-1,1.267,1.267,0,0,0-1-.32,1.334,1.334,0,0,0-1.22.647V16h-2.8V7.019Zm10.816,6.989a1.244,1.244,0,0,0,.913-.32,1.172,1.172,0,0,0,.315-.892h2.623a3.105,3.105,0,0,1-1.058,2.424,3.937,3.937,0,0,1-2.727.946,3.986,3.986,0,0,1-3.088-1.229,4.841,4.841,0,0,1-1.129-3.4v-.116a5.471,5.471,0,0,1,.5-2.4,3.656,3.656,0,0,1,1.448-1.6,4.319,4.319,0,0,1,2.241-.56,3.887,3.887,0,0,1,2.781.971,3.445,3.445,0,0,1,1.029,2.631H96.211a1.536,1.536,0,0,0-.34-1.071,1.175,1.175,0,0,0-.913-.374q-1.087,0-1.27,1.386a9.782,9.782,0,0,0-.058,1.212,3.842,3.842,0,0,0,.324,1.876A1.121,1.121,0,0,0,94.983,14.008ZM102.968,16h-2.806V3.25h2.806Zm6.782,0a3.159,3.159,0,0,1-.266-.805,2.6,2.6,0,0,1-2.158.971,3.187,3.187,0,0,1-2.158-.768,2.444,2.444,0,0,1-.888-1.93,2.512,2.512,0,0,1,1.079-2.208,5.5,5.5,0,0,1,3.138-.747h.863v-.475q0-1.243-1.071-1.243a.875.875,0,0,0-1,.984h-2.8A2.508,2.508,0,0,1,105.6,7.665a4.657,4.657,0,0,1,2.826-.813,4.083,4.083,0,0,1,2.714.838,2.915,2.915,0,0,1,1.021,2.3v3.976a4.072,4.072,0,0,0,.382,1.893V16ZM108,14.174a1.56,1.56,0,0,0,.867-.224,1.4,1.4,0,0,0,.494-.506V12.007h-.813q-1.461,0-1.461,1.312a.8.8,0,0,0,.257.618A.931.931,0,0,0,108,14.174Zm8.973-9.388V7.019h1.478V8.961h-1.478V13.07a1.049,1.049,0,0,0,.183.706.98.98,0,0,0,.722.2,4.1,4.1,0,0,0,.7-.05v2a5.163,5.163,0,0,1-1.577.241,2.93,2.93,0,0,1-2.133-.681,2.79,2.79,0,0,1-.689-2.067V8.961h-1.146V7.019h1.146V4.786ZM124.9,15.029a2.884,2.884,0,0,1-2.4,1.137,2.829,2.829,0,0,1-2.237-.859,3.613,3.613,0,0,1-.76-2.469V7.019h2.8v5.835a1,1,0,0,0,1.121,1.154,1.462,1.462,0,0,0,1.37-.689v-6.3H127.6V16h-2.623Zm9.67-5.479-.921-.066a1.655,1.655,0,0,0-1.693.83V16h-2.8V7.019h2.623l.091,1.154a2.166,2.166,0,0,1,1.967-1.32,2.728,2.728,0,0,1,.78.1ZM140.388,16a3.158,3.158,0,0,1-.266-.805,2.6,2.6,0,0,1-2.158.971,3.187,3.187,0,0,1-2.158-.768,2.444,2.444,0,0,1-.888-1.93A2.512,2.512,0,0,1,136,11.26a5.5,5.5,0,0,1,3.138-.747H140v-.475q0-1.243-1.071-1.243a.875.875,0,0,0-1,.984h-2.8a2.508,2.508,0,0,1,1.108-2.114,4.657,4.657,0,0,1,2.826-.813,4.083,4.083,0,0,1,2.714.838,2.915,2.915,0,0,1,1.021,2.3v3.976a4.072,4.072,0,0,0,.382,1.893V16Zm-1.751-1.826a1.56,1.56,0,0,0,.867-.224,1.4,1.4,0,0,0,.494-.506V12.007h-.813q-1.461,0-1.461,1.312a.8.8,0,0,0,.257.618A.931.931,0,0,0,138.636,14.174ZM41.6,40.742H37.608L36.91,43H33.8L38.23,30.914h2.739L45.435,43H42.306Zm-3.3-2.25h2.6L39.6,34.3ZM51.619,36.55l-.921-.066a1.655,1.655,0,0,0-1.693.83V43h-2.8V34.019H48.83l.091,1.154a2.166,2.166,0,0,1,1.967-1.32,2.728,2.728,0,0,1,.78.1ZM57.438,43a3.158,3.158,0,0,1-.266-.805,2.6,2.6,0,0,1-2.158.971,3.187,3.187,0,0,1-2.158-.768,2.444,2.444,0,0,1-.888-1.93,2.512,2.512,0,0,1,1.079-2.208,5.5,5.5,0,0,1,3.138-.747h.863v-.475q0-1.243-1.071-1.243a.875.875,0,0,0-1,.984h-2.8a2.508,2.508,0,0,1,1.108-2.114,4.657,4.657,0,0,1,2.826-.813,4.083,4.083,0,0,1,2.714.838,2.915,2.915,0,0,1,1.021,2.3v3.976a4.072,4.072,0,0,0,.382,1.893V43Zm-1.751-1.826a1.56,1.56,0,0,0,.867-.224,1.4,1.4,0,0,0,.494-.506V39.007h-.813q-1.461,0-1.461,1.312a.8.8,0,0,0,.257.618A.931.931,0,0,0,55.687,41.174Zm8.284-7.155.091,1.054a3.046,3.046,0,0,1,2.565-1.22,2.562,2.562,0,0,1,2.1.838,3.991,3.991,0,0,1,.718,2.523V43H66.635V37.331a1.516,1.516,0,0,0-.274-1,1.267,1.267,0,0,0-1-.32,1.334,1.334,0,0,0-1.22.647V43h-2.8V34.019Zm10.816,6.989a1.244,1.244,0,0,0,.913-.32,1.172,1.172,0,0,0,.315-.892h2.623A3.105,3.105,0,0,1,77.58,42.22a3.937,3.937,0,0,1-2.727.946,3.986,3.986,0,0,1-3.088-1.229,4.841,4.841,0,0,1-1.129-3.4v-.116a5.471,5.471,0,0,1,.5-2.4,3.656,3.656,0,0,1,1.448-1.6,4.319,4.319,0,0,1,2.241-.56,3.887,3.887,0,0,1,2.781.971,3.445,3.445,0,0,1,1.029,2.631H76.015a1.536,1.536,0,0,0-.34-1.071,1.175,1.175,0,0,0-.913-.374q-1.087,0-1.27,1.386a9.782,9.782,0,0,0-.058,1.212,3.842,3.842,0,0,0,.324,1.876A1.121,1.121,0,0,0,74.787,41.008Zm9.38,2.158a4.617,4.617,0,0,1-3.345-1.233,4.257,4.257,0,0,1-1.278-3.208v-.232a5.516,5.516,0,0,1,.51-2.432,3.735,3.735,0,0,1,1.49-1.631,4.5,4.5,0,0,1,2.324-.577,3.888,3.888,0,0,1,2.988,1.175,4.616,4.616,0,0,1,1.1,3.275v1.087H82.39a2.016,2.016,0,0,0,.656,1.187,1.951,1.951,0,0,0,1.312.432,2.514,2.514,0,0,0,2.075-.93l1.278,1.511a3.573,3.573,0,0,1-1.482,1.15A5.007,5.007,0,0,1,84.167,43.166Zm-.315-7.155q-1.229,0-1.461,1.627h2.822v-.216a1.386,1.386,0,0,0-.34-1.042A1.354,1.354,0,0,0,83.851,36.011ZM92.028,43H89.222V30.25h2.806Zm6.782,0a3.159,3.159,0,0,1-.266-.805,2.6,2.6,0,0,1-2.158.971,3.187,3.187,0,0,1-2.158-.768,2.444,2.444,0,0,1-.888-1.93,2.512,2.512,0,0,1,1.079-2.208,5.5,5.5,0,0,1,3.138-.747h.863v-.475q0-1.243-1.071-1.243a.875.875,0,0,0-1,.984h-2.8a2.508,2.508,0,0,1,1.108-2.114,4.657,4.657,0,0,1,2.826-.813,4.083,4.083,0,0,1,2.714.838,2.915,2.915,0,0,1,1.021,2.3v3.976a4.072,4.072,0,0,0,.382,1.893V43Zm-1.751-1.826a1.56,1.56,0,0,0,.867-.224,1.4,1.4,0,0,0,.494-.506V39.007h-.813q-1.461,0-1.461,1.312a.8.8,0,0,0,.257.618A.931.931,0,0,0,97.058,41.174Zm11.148-4.624-.921-.066a1.655,1.655,0,0,0-1.693.83V43h-2.8V34.019h2.623l.091,1.154a2.166,2.166,0,0,1,1.967-1.32,2.728,2.728,0,0,1,.78.1ZM112.165,43H109.36V34.019h2.806Zm-2.972-11.306a1.26,1.26,0,0,1,.432-.985,1.826,1.826,0,0,1,2.241,0,1.341,1.341,0,0,1,0,1.971,1.826,1.826,0,0,1-2.241,0A1.26,1.26,0,0,1,109.194,31.694ZM118.947,43a3.159,3.159,0,0,1-.266-.805,2.6,2.6,0,0,1-2.158.971,3.187,3.187,0,0,1-2.158-.768,2.444,2.444,0,0,1-.888-1.93,2.512,2.512,0,0,1,1.079-2.208,5.5,5.5,0,0,1,3.138-.747h.863v-.475q0-1.243-1.071-1.243a.875.875,0,0,0-1,.984h-2.8a2.508,2.508,0,0,1,1.108-2.114,4.657,4.657,0,0,1,2.826-.813,4.083,4.083,0,0,1,2.714.838,2.915,2.915,0,0,1,1.021,2.3v3.976a4.072,4.072,0,0,0,.382,1.893V43ZM117.2,41.174a1.56,1.56,0,0,0,.867-.224,1.4,1.4,0,0,0,.494-.506V39.007h-.813q-1.461,0-1.461,1.312a.8.8,0,0,0,.257.618A.931.931,0,0,0,117.2,41.174Zm9.6-2.731a5.486,5.486,0,0,1,.921-3.362,3.033,3.033,0,0,1,2.573-1.229,2.579,2.579,0,0,1,2.025.946V30.25h2.806V43H132.6l-.141-.963a2.649,2.649,0,0,1-2.191,1.129,3.027,3.027,0,0,1-2.54-1.229A5.66,5.66,0,0,1,126.791,38.443Zm2.8.174q0,2.391,1.395,2.391a1.377,1.377,0,0,0,1.328-.78v-3.42a1.34,1.34,0,0,0-1.312-.8q-1.295,0-1.4,2.092Zm11.463,4.549a4.617,4.617,0,0,1-3.345-1.233,4.257,4.257,0,0,1-1.278-3.208v-.232a5.516,5.516,0,0,1,.51-2.432,3.735,3.735,0,0,1,1.49-1.631,4.5,4.5,0,0,1,2.324-.577,3.888,3.888,0,0,1,2.988,1.175,4.616,4.616,0,0,1,1.1,3.275v1.087h-5.562a2.016,2.016,0,0,0,.656,1.187,1.951,1.951,0,0,0,1.312.432,2.514,2.514,0,0,0,2.075-.93l1.278,1.511a3.573,3.573,0,0,1-1.482,1.15A5.007,5.007,0,0,1,141.052,43.166Zm-.315-7.155q-1.229,0-1.461,1.627H142.1v-.216a1.386,1.386,0,0,0-.34-1.042A1.354,1.354,0,0,0,140.737,36.011Zm-76.961,29.9a4.414,4.414,0,0,1-.681,2.229,4.108,4.108,0,0,1-1.747,1.5,5.947,5.947,0,0,1-2.569.531,4.746,4.746,0,0,1-3.752-1.552,6.409,6.409,0,0,1-1.37-4.383v-.6a7.316,7.316,0,0,1,.618-3.109,4.686,4.686,0,0,1,1.781-2.059,4.968,4.968,0,0,1,2.689-.726A5.209,5.209,0,0,1,62.282,58.9,4.575,4.575,0,0,1,63.8,62.089H60.9a2.165,2.165,0,0,0-.556-1.585,2.287,2.287,0,0,0-1.594-.481,1.74,1.74,0,0,0-1.594.813,5.228,5.228,0,0,0-.531,2.6v.855a5.785,5.785,0,0,0,.486,2.764,1.777,1.777,0,0,0,1.673.83,2.237,2.237,0,0,0,1.536-.473,2.008,2.008,0,0,0,.564-1.5Zm.9-.481a5.3,5.3,0,0,1,.523-2.395,3.74,3.74,0,0,1,1.5-1.615,4.525,4.525,0,0,1,2.3-.564A4.13,4.13,0,0,1,72.176,62.1a4.794,4.794,0,0,1,1.162,3.4v.1a4.651,4.651,0,0,1-1.166,3.333,4.141,4.141,0,0,1-3.158,1.233,4.188,4.188,0,0,1-3.08-1.15A4.5,4.5,0,0,1,64.681,65.9Zm2.8.174a3.342,3.342,0,0,0,.39,1.826,1.3,1.3,0,0,0,1.154.581q1.494,0,1.527-2.3v-.282q0-2.416-1.544-2.416-1.4,0-1.519,2.083ZM77.522,70H74.716V57.25h2.806Zm1.37-4.574a5.3,5.3,0,0,1,.523-2.395,3.74,3.74,0,0,1,1.5-1.615,4.525,4.525,0,0,1,2.3-.564A4.13,4.13,0,0,1,86.4,62.1a4.794,4.794,0,0,1,1.162,3.4v.1a4.651,4.651,0,0,1-1.166,3.333,4.141,4.141,0,0,1-3.158,1.233,4.188,4.188,0,0,1-3.08-1.15A4.5,4.5,0,0,1,78.9,65.9Zm2.8.174a3.342,3.342,0,0,0,.39,1.826,1.3,1.3,0,0,0,1.154.581q1.494,0,1.527-2.3v-.282q0-2.416-1.544-2.416-1.4,0-1.519,2.083Zm9.745-4.582.091,1.054a3.088,3.088,0,0,1,2.565-1.22,2.273,2.273,0,0,1,2.3,1.353,2.989,2.989,0,0,1,2.64-1.353q2.731,0,2.806,3.3V70H99.029V64.331a1.712,1.712,0,0,0-.232-1,.989.989,0,0,0-.847-.315,1.325,1.325,0,0,0-1.237.739l.008.116V70H93.916V64.347a1.8,1.8,0,0,0-.224-1.021.987.987,0,0,0-.855-.315,1.342,1.342,0,0,0-1.229.739V70h-2.8V61.019Zm20.337,4.565a5.474,5.474,0,0,1-.913,3.4,3.058,3.058,0,0,1-2.573,1.187,2.654,2.654,0,0,1-2.208-1.087L105.96,70h-2.507V57.25h2.8v4.491a2.561,2.561,0,0,1,2.017-.888,3.059,3.059,0,0,1,2.59,1.2,5.5,5.5,0,0,1,.913,3.387Zm-2.806-.178a3.651,3.651,0,0,0-.344-1.844,1.161,1.161,0,0,0-1.058-.551,1.339,1.339,0,0,0-1.312.721V67.3a1.347,1.347,0,0,0,1.328.713,1.188,1.188,0,0,0,1.253-.961A6.9,6.9,0,0,0,108.965,65.406ZM115.955,70h-2.806V61.019h2.806Zm-2.972-11.306a1.26,1.26,0,0,1,.432-.985,1.826,1.826,0,0,1,2.241,0,1.341,1.341,0,0,1,0,1.971,1.826,1.826,0,0,1-2.241,0A1.26,1.26,0,0,1,112.983,58.694ZM122.736,70a3.159,3.159,0,0,1-.266-.805,2.6,2.6,0,0,1-2.158.971,3.187,3.187,0,0,1-2.158-.768,2.444,2.444,0,0,1-.888-1.93,2.512,2.512,0,0,1,1.079-2.208,5.5,5.5,0,0,1,3.138-.747h.863v-.475q0-1.243-1.071-1.243a.875.875,0,0,0-1,.984h-2.8a2.508,2.508,0,0,1,1.108-2.114,4.657,4.657,0,0,1,2.826-.813,4.083,4.083,0,0,1,2.714.838,2.915,2.915,0,0,1,1.021,2.3v3.976a4.072,4.072,0,0,0,.382,1.893V70Zm-1.751-1.826a1.56,1.56,0,0,0,.867-.224,1.4,1.4,0,0,0,.494-.506V66.007h-.813q-1.461,0-1.461,1.312a.8.8,0,0,0,.257.618A.931.931,0,0,0,120.985,68.174Z" transform="translate(954 14485)" fill="#12263f"/>
      <g id="Grupo_111582" data-name="Grupo 111582" transform="translate(986.182 14361.001)">
        <g id="Grupo_18423-2" data-name="Grupo 18423" transform="translate(0 0)">
          <g id="Grupo_18421-2" data-name="Grupo 18421">
            <g id="Grupo_18420-2" data-name="Grupo 18420">
              <g id="Grupo_18419-2" data-name="Grupo 18419">
                <path id="Trazado_40936-2" data-name="Trazado 40936" d="M309.259,2203.037a57.318,57.318,0,1,1-57.317-57.316A57.317,57.317,0,0,1,309.259,2203.037Z" transform="translate(-194.623 -2145.721)" fill="#fff"/>
              </g>
            </g>
          </g>
          <path id="Trazado_40937-2" data-name="Trazado 40937" d="M308.648,2202.372a57.316,57.316,0,1,0-57.317,57.319A57.091,57.091,0,0,0,308.648,2202.372Z" transform="translate(-194.013 -2145.056)" fill="url(#radial-gradient)"/>
          <path id="Trazado_40938-2" data-name="Trazado 40938" d="M289.672,2196.986a43.75,43.75,0,1,0-43.75,43.75A43.587,43.587,0,0,0,289.672,2196.986Z" transform="translate(-188.43 -2139.479)" fill="none" stroke="#00223d" stroke-miterlimit="10" stroke-width="4"/>
          <g id="Grupo_18422-2" data-name="Grupo 18422" transform="translate(10.154 32.18)">
            <path id="Trazado_40939-2" data-name="Trazado 40939" d="M299.231,2164.488a57.325,57.325,0,0,1-98.686,57.081,57.143,57.143,0,0,0,98.686-57.081Z" transform="translate(-200.545 -2164.488)" fill="#eceef0"/>
          </g>
        </g>
        <g id="htclm2.tif" transform="translate(-3372.177 324.558)">
          <g id="Grupo_111613" data-name="Grupo 111613" transform="translate(3406.45 -285.523)">
            <path id="Trazado_167157" data-name="Trazado 167157" d="M3612.157-239.4c-.208-.066-.418-.129-.625-.2a4.34,4.34,0,0,1-1.989-1.412q-2.927-3.564-5.844-7.137a.575.575,0,0,0-.743-.234,12.1,12.1,0,0,1-15.355-8.037,12.52,12.52,0,0,1-.537-3.446c-.045-8.041-.024-16.083-.023-24.125a1.364,1.364,0,0,1,1.135-1.493,1.343,1.343,0,0,1,1.557,1.3c.019.825.006,1.65.006,2.475q0,6.864,0,13.728v.309l.132.108a1.641,1.641,0,0,1,.223-.363c.608-.577,1.2-1.18,1.854-1.7a1.159,1.159,0,0,0,.5-1.043c-.018-4.441-.012-8.882-.01-13.323a1.362,1.362,0,0,1,1.136-1.492,1.35,1.35,0,0,1,1.561,1.386c.01,1.65,0,3.3.005,4.951q0,3.691,0,7.382c0,.1.009.207.015.326l2.68-.605v-.5q0-5.761,0-11.522a1.337,1.337,0,0,1,1.951-1.281,1.354,1.354,0,0,1,.75,1.328q-.009,4.681,0,9.362v2.609l2.694.593v-.527q0-6.009.006-12.018a1.352,1.352,0,0,1,1.193-1.485,1.346,1.346,0,0,1,1.5,1.359c.014.855,0,1.71,0,2.565q0,5.536-.006,11.072a.762.762,0,0,0,.324.669c.8.65,1.569,1.336,2.378,2.032v-.408q0-7.9,0-15.8a1.356,1.356,0,0,1,1.138-1.488,1.352,1.352,0,0,1,1.56,1.39c.01,1.59.007,3.181.007,4.771,0,6.151-.026,12.3.011,18.454a13.857,13.857,0,0,1-.81,5.333,17,17,0,0,1-.725,1.542.452.452,0,0,0,.056.591c1.909,2.313,3.8,4.643,5.709,6.956a4.622,4.622,0,0,1,1.249,3.089,4.115,4.115,0,0,1-3.141,3.853,2.018,2.018,0,0,0-.278.1Zm-22.363-20.536a9.408,9.408,0,0,0,9.424,9.44,9.378,9.378,0,0,0,9.433-9.335,9.443,9.443,0,0,0-9.42-9.545A9.455,9.455,0,0,0,3589.794-259.933Zm18.189,8.5-2.066,1.712,2.18,2.662q1.8,2.191,3.593,4.381a1.3,1.3,0,0,0,1.34.54,1.33,1.33,0,0,0,.752-2.2c-.817-1.036-1.669-2.043-2.5-3.063Q3609.629-249.418,3607.984-251.431Z" transform="translate(-3570.747 285.502)" fill="#12263f"/>
            <path id="Trazado_167158" data-name="Trazado 167158" d="M3406.45-284.445a1.532,1.532,0,0,1,1.136-.977,1.35,1.35,0,0,1,1.562,1.425q.007,4.613.005,9.225,0,10.148-.008,20.3a2.292,2.292,0,0,1-.107.791,1.244,1.244,0,0,1-1.133.826,1.3,1.3,0,0,1-1.255-.637c-.072-.11-.133-.227-.2-.34Z" transform="translate(-3406.45 285.448)" fill="#12263f"/>
            <path id="Trazado_167159" data-name="Trazado 167159" d="M3470.01-269.172q0,7.4,0,14.808a1.353,1.353,0,0,1-1.868,1.336,1.325,1.325,0,0,1-.826-1.32q-.006-3.466,0-6.931,0-11.387,0-22.774a1.342,1.342,0,0,1,1.923-1.327,1.335,1.335,0,0,1,.776,1.311q-.008,3.691,0,7.381Z" transform="translate(-3461.819 285.523)" fill="#12263f"/>
            <path id="Trazado_167160" data-name="Trazado 167160" d="M3527.161-269.095q0-7.4,0-14.807a1.354,1.354,0,0,1,1.2-1.481,1.338,1.338,0,0,1,1.5,1.405q.011,3.173.006,6.346,0,11.589-.007,23.178a2.511,2.511,0,0,1-.074.708,1.32,1.32,0,0,1-1.459.931,1.325,1.325,0,0,1-1.156-1.293c-.016-1.23-.01-2.46-.01-3.69q0-5.648,0-11.3Z" transform="translate(-3516.268 285.402)" fill="#12263f"/>
            <path id="Trazado_167161" data-name="Trazado 167161" d="M3887.408-269.1q0-7.358,0-14.716c0-.943.511-1.533,1.317-1.546a1.349,1.349,0,0,1,1.382,1.26c.011.149.005.3.005.45q0,14.582,0,29.163a2.76,2.76,0,0,1-.077.753,1.317,1.317,0,0,1-1.448.948,1.308,1.308,0,0,1-1.166-1.28c-.018-1.8-.011-3.6-.011-5.4Q3887.406-264.281,3887.408-269.1Z" transform="translate(-3844.025 285.374)" fill="#12263f"/>
            <path id="Trazado_167162" data-name="Trazado 167162" d="M3706.716-69.868c0-1.784.028-3.568-.011-5.351a1.4,1.4,0,0,1,1.366-1.51,1.383,1.383,0,0,1,1.344,1.531q0,5.419,0,10.838a1.339,1.339,0,0,1-1.158,1.385,1.338,1.338,0,0,1-1.469-.922,2.137,2.137,0,0,1-.068-.619C3706.714-66.3,3706.716-68.084,3706.716-69.868Z" transform="translate(-3679.622 95.562)" fill="#12263f"/>
            <path id="Trazado_167163" data-name="Trazado 167163" d="M3649.637-56.209c0,1.349,0,2.7,0,4.047a1.36,1.36,0,0,1-1.335,1.49,1.353,1.353,0,0,1-1.367-1.5q-.006-4.047,0-8.094a1.347,1.347,0,0,1,1.352-1.471,1.369,1.369,0,0,1,1.351,1.48C3649.64-58.907,3649.637-57.558,3649.637-56.209Z" transform="translate(-3625.24 81.921)" fill="#12263f"/>
            <path id="Trazado_167164" data-name="Trazado 167164" d="M3769.322-56.205c0,1.334,0,2.668,0,4a1.36,1.36,0,0,1-1.343,1.484,1.345,1.345,0,0,1-1.361-1.459q-.009-4.069,0-8.139a1.352,1.352,0,0,1,1.359-1.466,1.373,1.373,0,0,1,1.345,1.486C3769.326-58.933,3769.322-57.569,3769.322-56.205Z" transform="translate(-3734.127 81.965)" fill="#12263f"/>
          </g>
        </g>
      </g>
    </g>
    <g id="Grupo_111612" data-name="Grupo 111612" transform="translate(89 -10516)">
      <rect id="Rectángulo_34261" data-name="Rectángulo 34261" width="229" height="6" transform="translate(695 14598)" fill="#36a3f7"/>
      <g transform="matrix(1, 0, 0, 1, 438, 14332)" filter="url(#Rectángulo_34262)">
        <path id="Rectángulo_34262-2" data-name="Rectángulo 34262" d="M10,0H219a10,10,0,0,1,10,10V245a0,0,0,0,1,0,0H0a0,0,0,0,1,0,0V10A10,10,0,0,1,10,0Z" transform="translate(257 21)" fill="#fff"/>
      </g>
      <path id="Trazado_173641" data-name="Trazado 173641" d="M46.44,16h-2.9L39.26,8.479V16H36.346V3.914H39.26l4.275,7.521V3.914H46.44ZM47.8,11.426a5.3,5.3,0,0,1,.523-2.395,3.74,3.74,0,0,1,1.5-1.615,4.525,4.525,0,0,1,2.3-.564A4.13,4.13,0,0,1,55.3,8.1a4.794,4.794,0,0,1,1.162,3.4v.1A4.651,4.651,0,0,1,55.3,14.933a4.141,4.141,0,0,1-3.158,1.233,4.188,4.188,0,0,1-3.08-1.15A4.5,4.5,0,0,1,47.809,11.9Zm2.8.174a3.342,3.342,0,0,0,.39,1.826,1.3,1.3,0,0,0,1.154.581q1.494,0,1.527-2.3v-.282q0-2.416-1.544-2.416-1.4,0-1.519,2.083Zm9.745-4.582.091,1.054A3.088,3.088,0,0,1,63,6.853a2.273,2.273,0,0,1,2.3,1.353,2.989,2.989,0,0,1,2.64-1.353q2.731,0,2.806,3.3V16H67.939V10.331a1.712,1.712,0,0,0-.232-1,.989.989,0,0,0-.847-.315,1.325,1.325,0,0,0-1.237.739l.008.116V16H62.825V10.347A1.8,1.8,0,0,0,62.6,9.326a.987.987,0,0,0-.855-.315,1.342,1.342,0,0,0-1.229.739V16h-2.8V7.019Zm16.344,9.147a4.617,4.617,0,0,1-3.345-1.233,4.257,4.257,0,0,1-1.278-3.208v-.232a5.516,5.516,0,0,1,.51-2.432,3.735,3.735,0,0,1,1.49-1.631,4.5,4.5,0,0,1,2.324-.577,3.888,3.888,0,0,1,2.988,1.175,4.616,4.616,0,0,1,1.1,3.275v1.087H74.911a2.016,2.016,0,0,0,.656,1.187,1.951,1.951,0,0,0,1.312.432,2.514,2.514,0,0,0,2.075-.93l1.278,1.511a3.573,3.573,0,0,1-1.482,1.15A5.007,5.007,0,0,1,76.688,16.166Zm-.315-7.155q-1.229,0-1.461,1.627h2.822v-.216a1.386,1.386,0,0,0-.34-1.042A1.354,1.354,0,0,0,76.372,9.011Zm7.794-1.992.091,1.054a3.046,3.046,0,0,1,2.565-1.22,2.562,2.562,0,0,1,2.1.838,3.991,3.991,0,0,1,.718,2.523V16H86.831V10.331a1.516,1.516,0,0,0-.274-1,1.267,1.267,0,0,0-1-.32,1.334,1.334,0,0,0-1.22.647V16h-2.8V7.019Zm10.816,6.989a1.244,1.244,0,0,0,.913-.32,1.172,1.172,0,0,0,.315-.892h2.623a3.105,3.105,0,0,1-1.058,2.424,3.937,3.937,0,0,1-2.727.946,3.986,3.986,0,0,1-3.088-1.229,4.841,4.841,0,0,1-1.129-3.4v-.116a5.471,5.471,0,0,1,.5-2.4,3.656,3.656,0,0,1,1.448-1.6,4.319,4.319,0,0,1,2.241-.56,3.887,3.887,0,0,1,2.781.971,3.445,3.445,0,0,1,1.029,2.631H96.211a1.536,1.536,0,0,0-.34-1.071,1.175,1.175,0,0,0-.913-.374q-1.087,0-1.27,1.386a9.782,9.782,0,0,0-.058,1.212,3.842,3.842,0,0,0,.324,1.876A1.121,1.121,0,0,0,94.983,14.008ZM102.968,16h-2.806V3.25h2.806Zm6.782,0a3.159,3.159,0,0,1-.266-.805,2.6,2.6,0,0,1-2.158.971,3.187,3.187,0,0,1-2.158-.768,2.444,2.444,0,0,1-.888-1.93,2.512,2.512,0,0,1,1.079-2.208,5.5,5.5,0,0,1,3.138-.747h.863v-.475q0-1.243-1.071-1.243a.875.875,0,0,0-1,.984h-2.8A2.508,2.508,0,0,1,105.6,7.665a4.657,4.657,0,0,1,2.826-.813,4.083,4.083,0,0,1,2.714.838,2.915,2.915,0,0,1,1.021,2.3v3.976a4.072,4.072,0,0,0,.382,1.893V16ZM108,14.174a1.56,1.56,0,0,0,.867-.224,1.4,1.4,0,0,0,.494-.506V12.007h-.813q-1.461,0-1.461,1.312a.8.8,0,0,0,.257.618A.931.931,0,0,0,108,14.174Zm8.973-9.388V7.019h1.478V8.961h-1.478V13.07a1.049,1.049,0,0,0,.183.706.98.98,0,0,0,.722.2,4.1,4.1,0,0,0,.7-.05v2a5.163,5.163,0,0,1-1.577.241,2.93,2.93,0,0,1-2.133-.681,2.79,2.79,0,0,1-.689-2.067V8.961h-1.146V7.019h1.146V4.786ZM124.9,15.029a2.884,2.884,0,0,1-2.4,1.137,2.829,2.829,0,0,1-2.237-.859,3.613,3.613,0,0,1-.76-2.469V7.019h2.8v5.835a1,1,0,0,0,1.121,1.154,1.462,1.462,0,0,0,1.37-.689v-6.3H127.6V16h-2.623Zm9.67-5.479-.921-.066a1.655,1.655,0,0,0-1.693.83V16h-2.8V7.019h2.623l.091,1.154a2.166,2.166,0,0,1,1.967-1.32,2.728,2.728,0,0,1,.78.1ZM140.388,16a3.158,3.158,0,0,1-.266-.805,2.6,2.6,0,0,1-2.158.971,3.187,3.187,0,0,1-2.158-.768,2.444,2.444,0,0,1-.888-1.93A2.512,2.512,0,0,1,136,11.26a5.5,5.5,0,0,1,3.138-.747H140v-.475q0-1.243-1.071-1.243a.875.875,0,0,0-1,.984h-2.8a2.508,2.508,0,0,1,1.108-2.114,4.657,4.657,0,0,1,2.826-.813,4.083,4.083,0,0,1,2.714.838,2.915,2.915,0,0,1,1.021,2.3v3.976a4.072,4.072,0,0,0,.382,1.893V16Zm-1.751-1.826a1.56,1.56,0,0,0,.867-.224,1.4,1.4,0,0,0,.494-.506V12.007h-.813q-1.461,0-1.461,1.312a.8.8,0,0,0,.257.618A.931.931,0,0,0,138.636,14.174Zm-106,26.568H28.643L27.946,43H24.833l4.433-12.086H32L36.47,43H33.341Zm-3.3-2.25h2.6l-1.3-4.192ZM42.655,36.55l-.921-.066a1.655,1.655,0,0,0-1.693.83V43h-2.8V34.019h2.623l.091,1.154a2.166,2.166,0,0,1,1.967-1.32,2.728,2.728,0,0,1,.78.1ZM48.473,43a3.158,3.158,0,0,1-.266-.805,2.6,2.6,0,0,1-2.158.971,3.187,3.187,0,0,1-2.158-.768A2.444,2.444,0,0,1,43,40.468a2.512,2.512,0,0,1,1.079-2.208,5.5,5.5,0,0,1,3.138-.747h.863v-.475q0-1.243-1.071-1.243a.875.875,0,0,0-1,.984h-2.8a2.508,2.508,0,0,1,1.108-2.114,4.657,4.657,0,0,1,2.826-.813,4.083,4.083,0,0,1,2.714.838,2.915,2.915,0,0,1,1.021,2.3v3.976a4.072,4.072,0,0,0,.382,1.893V43Zm-1.751-1.826a1.56,1.56,0,0,0,.867-.224,1.4,1.4,0,0,0,.494-.506V39.007H47.27q-1.461,0-1.461,1.312a.8.8,0,0,0,.257.618A.931.931,0,0,0,46.722,41.174Zm8.284-7.155.091,1.054a3.046,3.046,0,0,1,2.565-1.22,2.562,2.562,0,0,1,2.1.838,3.991,3.991,0,0,1,.718,2.523V43H57.671V37.331a1.516,1.516,0,0,0-.274-1,1.267,1.267,0,0,0-1-.32,1.334,1.334,0,0,0-1.22.647V43h-2.8V34.019Zm10.816,6.989a1.244,1.244,0,0,0,.913-.32,1.172,1.172,0,0,0,.315-.892h2.623a3.105,3.105,0,0,1-1.058,2.424,3.937,3.937,0,0,1-2.727.946A3.986,3.986,0,0,1,62.8,41.938a4.841,4.841,0,0,1-1.129-3.4v-.116a5.471,5.471,0,0,1,.5-2.4,3.656,3.656,0,0,1,1.448-1.6,4.319,4.319,0,0,1,2.241-.56,3.887,3.887,0,0,1,2.781.971,3.445,3.445,0,0,1,1.029,2.631H67.051a1.536,1.536,0,0,0-.34-1.071,1.175,1.175,0,0,0-.913-.374q-1.087,0-1.27,1.386a9.782,9.782,0,0,0-.058,1.212,3.842,3.842,0,0,0,.324,1.876A1.121,1.121,0,0,0,65.822,41.008Zm9.38,2.158a4.617,4.617,0,0,1-3.345-1.233,4.257,4.257,0,0,1-1.278-3.208v-.232a5.516,5.516,0,0,1,.51-2.432,3.735,3.735,0,0,1,1.49-1.631,4.5,4.5,0,0,1,2.324-.577,3.888,3.888,0,0,1,2.988,1.175,4.616,4.616,0,0,1,1.1,3.275v1.087H73.426a2.016,2.016,0,0,0,.656,1.187,1.951,1.951,0,0,0,1.312.432,2.514,2.514,0,0,0,2.075-.93l1.278,1.511a3.573,3.573,0,0,1-1.482,1.15A5.007,5.007,0,0,1,75.2,43.166Zm-.315-7.155q-1.229,0-1.461,1.627h2.822v-.216a1.386,1.386,0,0,0-.34-1.042A1.354,1.354,0,0,0,74.886,36.011ZM83.063,43H80.257V30.25h2.806Zm6.782,0a3.159,3.159,0,0,1-.266-.805,2.6,2.6,0,0,1-2.158.971,3.187,3.187,0,0,1-2.158-.768,2.444,2.444,0,0,1-.888-1.93,2.512,2.512,0,0,1,1.079-2.208,5.5,5.5,0,0,1,3.138-.747h.863v-.475q0-1.243-1.071-1.243a.875.875,0,0,0-1,.984h-2.8A2.508,2.508,0,0,1,85.7,34.665a4.657,4.657,0,0,1,2.826-.813,4.083,4.083,0,0,1,2.714.838,2.915,2.915,0,0,1,1.021,2.3v3.976a4.072,4.072,0,0,0,.382,1.893V43Zm-1.751-1.826a1.56,1.56,0,0,0,.867-.224,1.4,1.4,0,0,0,.494-.506V39.007h-.813q-1.461,0-1.461,1.312a.8.8,0,0,0,.257.618A.931.931,0,0,0,88.093,41.174ZM99.241,36.55l-.921-.066a1.655,1.655,0,0,0-1.693.83V43h-2.8V34.019h2.623l.091,1.154a2.166,2.166,0,0,1,1.967-1.32,2.728,2.728,0,0,1,.78.1ZM103.2,43h-2.806V34.019H103.2Zm-2.972-11.306a1.26,1.26,0,0,1,.432-.985,1.826,1.826,0,0,1,2.241,0,1.341,1.341,0,0,1,0,1.971,1.826,1.826,0,0,1-2.241,0A1.26,1.26,0,0,1,100.229,31.694ZM109.982,43a3.159,3.159,0,0,1-.266-.805,2.6,2.6,0,0,1-2.158.971A3.187,3.187,0,0,1,105.4,42.4a2.444,2.444,0,0,1-.888-1.93,2.512,2.512,0,0,1,1.079-2.208,5.5,5.5,0,0,1,3.138-.747h.863v-.475q0-1.243-1.071-1.243a.875.875,0,0,0-1,.984h-2.8a2.508,2.508,0,0,1,1.108-2.114,4.657,4.657,0,0,1,2.826-.813,4.083,4.083,0,0,1,2.714.838,2.915,2.915,0,0,1,1.021,2.3v3.976a4.072,4.072,0,0,0,.382,1.893V43Zm-1.751-1.826a1.56,1.56,0,0,0,.867-.224,1.4,1.4,0,0,0,.494-.506V39.007h-.813q-1.461,0-1.461,1.312a.8.8,0,0,0,.257.618A.931.931,0,0,0,108.231,41.174Zm9.6-2.731a5.486,5.486,0,0,1,.921-3.362,3.033,3.033,0,0,1,2.573-1.229,2.579,2.579,0,0,1,2.025.946V30.25h2.806V43h-2.515l-.141-.963a2.649,2.649,0,0,1-2.191,1.129,3.027,3.027,0,0,1-2.54-1.229A5.66,5.66,0,0,1,117.826,38.443Zm2.8.174q0,2.391,1.395,2.391a1.377,1.377,0,0,0,1.328-.78v-3.42a1.34,1.34,0,0,0-1.312-.8q-1.295,0-1.4,2.092Zm11.463,4.549a4.617,4.617,0,0,1-3.345-1.233,4.257,4.257,0,0,1-1.278-3.208v-.232a5.516,5.516,0,0,1,.51-2.432,3.735,3.735,0,0,1,1.49-1.631,4.5,4.5,0,0,1,2.324-.577,3.888,3.888,0,0,1,2.988,1.175,4.616,4.616,0,0,1,1.1,3.275v1.087h-5.562a2.016,2.016,0,0,0,.656,1.187,1.951,1.951,0,0,0,1.312.432,2.514,2.514,0,0,0,2.075-.93l1.278,1.511a3.573,3.573,0,0,1-1.482,1.15A5.007,5.007,0,0,1,132.087,43.166Zm-.315-7.155q-1.229,0-1.461,1.627h2.822v-.216a1.386,1.386,0,0,0-.34-1.042A1.354,1.354,0,0,0,131.772,36.011ZM144.181,43h-2.806V30.25h2.806Zm6.782,0a3.158,3.158,0,0,1-.266-.805,2.6,2.6,0,0,1-2.158.971,3.187,3.187,0,0,1-2.158-.768,2.444,2.444,0,0,1-.888-1.93,2.512,2.512,0,0,1,1.079-2.208,5.5,5.5,0,0,1,3.138-.747h.863v-.475q0-1.243-1.071-1.243a.875.875,0,0,0-1,.984h-2.8a2.508,2.508,0,0,1,1.108-2.114,4.657,4.657,0,0,1,2.826-.813,4.083,4.083,0,0,1,2.714.838,2.915,2.915,0,0,1,1.021,2.3v3.976a4.072,4.072,0,0,0,.382,1.893V43Zm-1.751-1.826a1.56,1.56,0,0,0,.867-.224,1.4,1.4,0,0,0,.494-.506V39.007h-.813q-1.461,0-1.461,1.312a.8.8,0,0,0,.257.618A.931.931,0,0,0,149.212,41.174ZM23.774,65.908a4.414,4.414,0,0,1-.681,2.229,4.108,4.108,0,0,1-1.747,1.5,5.947,5.947,0,0,1-2.569.531,4.746,4.746,0,0,1-3.752-1.552,6.409,6.409,0,0,1-1.37-4.383v-.6a7.316,7.316,0,0,1,.618-3.109,4.686,4.686,0,0,1,1.781-2.059,4.968,4.968,0,0,1,2.689-.726A5.209,5.209,0,0,1,22.28,58.9,4.575,4.575,0,0,1,23.8,62.089H20.894a2.165,2.165,0,0,0-.556-1.585,2.287,2.287,0,0,0-1.594-.481,1.74,1.74,0,0,0-1.594.813,5.228,5.228,0,0,0-.531,2.6v.855a5.785,5.785,0,0,0,.486,2.764,1.777,1.777,0,0,0,1.673.83,2.237,2.237,0,0,0,1.536-.473,2.008,2.008,0,0,0,.564-1.5Zm.9-.481a5.3,5.3,0,0,1,.523-2.395,3.74,3.74,0,0,1,1.5-1.615,4.525,4.525,0,0,1,2.3-.564A4.13,4.13,0,0,1,32.175,62.1a4.794,4.794,0,0,1,1.162,3.4v.1a4.651,4.651,0,0,1-1.166,3.333,4.141,4.141,0,0,1-3.158,1.233,4.188,4.188,0,0,1-3.08-1.15A4.5,4.5,0,0,1,24.679,65.9Zm2.8.174a3.342,3.342,0,0,0,.39,1.826,1.3,1.3,0,0,0,1.154.581q1.494,0,1.527-2.3v-.282q0-2.416-1.544-2.416-1.4,0-1.519,2.083Zm9.745-4.582.091,1.054a3.088,3.088,0,0,1,2.565-1.22,2.273,2.273,0,0,1,2.3,1.353,2.989,2.989,0,0,1,2.64-1.353q2.731,0,2.806,3.3V70H44.809V64.331a1.712,1.712,0,0,0-.232-1,.989.989,0,0,0-.847-.315,1.325,1.325,0,0,0-1.237.739l.008.116V70H39.7V64.347a1.8,1.8,0,0,0-.224-1.021.987.987,0,0,0-.855-.315,1.342,1.342,0,0,0-1.229.739V70h-2.8V61.019Zm17.349,8.01a2.884,2.884,0,0,1-2.4,1.137,2.829,2.829,0,0,1-2.237-.859,3.613,3.613,0,0,1-.76-2.469V61.019h2.8v5.835a1,1,0,0,0,1.121,1.154,1.462,1.462,0,0,0,1.37-.689v-6.3h2.814V70H54.645Zm6.807-8.01.091,1.054a3.046,3.046,0,0,1,2.565-1.22,2.562,2.562,0,0,1,2.1.838,3.991,3.991,0,0,1,.718,2.523V70H64.033V64.331a1.516,1.516,0,0,0-.274-1,1.267,1.267,0,0,0-1-.32,1.334,1.334,0,0,0-1.22.647V70h-2.8V61.019ZM71.338,70H68.532V61.019h2.806ZM68.366,58.694a1.26,1.26,0,0,1,.432-.985,1.826,1.826,0,0,1,2.241,0,1.341,1.341,0,0,1,0,1.971,1.826,1.826,0,0,1-2.241,0A1.26,1.26,0,0,1,68.366,58.694Zm4.341,6.749a5.486,5.486,0,0,1,.921-3.362A3.033,3.033,0,0,1,76.2,60.853a2.579,2.579,0,0,1,2.025.946V57.25h2.806V70H78.518l-.141-.963a2.649,2.649,0,0,1-2.191,1.129,3.027,3.027,0,0,1-2.54-1.229A5.66,5.66,0,0,1,72.708,65.443Zm2.8.174q0,2.391,1.395,2.391a1.377,1.377,0,0,0,1.328-.78v-3.42a1.34,1.34,0,0,0-1.312-.8q-1.295,0-1.4,2.092ZM87.682,70a3.159,3.159,0,0,1-.266-.805,2.6,2.6,0,0,1-2.158.971A3.187,3.187,0,0,1,83.1,69.4a2.444,2.444,0,0,1-.888-1.93,2.512,2.512,0,0,1,1.079-2.208,5.5,5.5,0,0,1,3.138-.747h.863v-.475q0-1.243-1.071-1.243a.875.875,0,0,0-1,.984h-2.8a2.508,2.508,0,0,1,1.108-2.114,4.657,4.657,0,0,1,2.826-.813,4.083,4.083,0,0,1,2.714.838,2.915,2.915,0,0,1,1.021,2.3v3.976a4.072,4.072,0,0,0,.382,1.893V70Zm-1.751-1.826a1.56,1.56,0,0,0,.867-.224,1.4,1.4,0,0,0,.494-.506V66.007h-.813q-1.461,0-1.461,1.312a.8.8,0,0,0,.257.618A.931.931,0,0,0,85.931,68.174Zm5.362-2.731a5.486,5.486,0,0,1,.921-3.362,3.033,3.033,0,0,1,2.573-1.229,2.579,2.579,0,0,1,2.025.946V57.25h2.806V70H97.1l-.141-.963a2.649,2.649,0,0,1-2.191,1.129,3.027,3.027,0,0,1-2.54-1.229A5.66,5.66,0,0,1,91.293,65.443Zm2.8.174q0,2.391,1.395,2.391a1.377,1.377,0,0,0,1.328-.78v-3.42a1.34,1.34,0,0,0-1.312-.8q-1.295,0-1.4,2.092Zm18.345,2.125h-3.993l-.7,2.258h-3.113l4.433-12.086H111.8L116.27,70h-3.129Zm-3.3-2.25h2.6l-1.3-4.192Zm10.052-4.474.091,1.054a3.046,3.046,0,0,1,2.565-1.22,2.562,2.562,0,0,1,2.1.838,3.991,3.991,0,0,1,.718,2.523V70h-2.806V64.331a1.516,1.516,0,0,0-.274-1,1.267,1.267,0,0,0-1-.32,1.334,1.334,0,0,0-1.22.647V70h-2.8V61.019Zm6.666,4.424a5.486,5.486,0,0,1,.921-3.362,3.033,3.033,0,0,1,2.573-1.229,2.579,2.579,0,0,1,2.025.946V57.25h2.806V70h-2.515l-.141-.963a2.649,2.649,0,0,1-2.191,1.129,3.027,3.027,0,0,1-2.54-1.229A5.66,5.66,0,0,1,125.857,65.443Zm2.8.174q0,2.391,1.395,2.391a1.377,1.377,0,0,0,1.328-.78v-3.42a1.34,1.34,0,0,0-1.312-.8q-1.295,0-1.4,2.092ZM138.724,70h-2.806V61.019h2.806Zm-2.972-11.306a1.26,1.26,0,0,1,.432-.985,1.826,1.826,0,0,1,2.241,0,1.341,1.341,0,0,1,0,1.971,1.826,1.826,0,0,1-2.241,0A1.26,1.26,0,0,1,135.752,58.694Zm7.263,2.324.091,1.054a3.046,3.046,0,0,1,2.565-1.22,2.562,2.562,0,0,1,2.1.838,3.991,3.991,0,0,1,.718,2.523V70H145.68V64.331a1.516,1.516,0,0,0-.274-1,1.267,1.267,0,0,0-1-.32,1.334,1.334,0,0,0-1.22.647V70h-2.8V61.019ZM155.093,70a3.158,3.158,0,0,1-.266-.805,2.6,2.6,0,0,1-2.158.971,3.187,3.187,0,0,1-2.158-.768,2.444,2.444,0,0,1-.888-1.93A2.512,2.512,0,0,1,150.7,65.26a5.5,5.5,0,0,1,3.138-.747h.863v-.475q0-1.243-1.071-1.243a.875.875,0,0,0-1,.984h-2.8a2.508,2.508,0,0,1,1.108-2.114,4.657,4.657,0,0,1,2.826-.813,4.083,4.083,0,0,1,2.714.838,2.915,2.915,0,0,1,1.021,2.3v3.976a4.072,4.072,0,0,0,.382,1.893V70Zm-1.751-1.826a1.56,1.56,0,0,0,.867-.224,1.4,1.4,0,0,0,.494-.506V66.007h-.813q-1.461,0-1.461,1.312a.8.8,0,0,0,.257.618A.931.931,0,0,0,153.341,68.174Zm11.181-2.308h-4.989V63.708h4.989ZM62.813,97h-2.9l-4.283-7.521V97H52.719V84.914h2.914l4.275,7.521V84.914h2.905Zm8.857-2.258H67.677L66.98,97H63.867L68.3,84.914h2.739L75.5,97H72.375Zm-3.3-2.25h2.6l-1.3-4.192ZM86.479,97h-2.9L79.3,89.479V97H76.385V84.914H79.3l4.275,7.521V84.914h2.905Zm1.843,0V84.914h3.893a5.727,5.727,0,0,1,2.88.726,5.105,5.105,0,0,1,2,2.05,6.19,6.19,0,0,1,.726,2.968v.556a6.226,6.226,0,0,1-.7,2.976,5.127,5.127,0,0,1-1.976,2.059A5.6,5.6,0,0,1,92.3,97Zm2.914-9.836v7.6h1.013a2.267,2.267,0,0,0,1.926-.892,4.373,4.373,0,0,0,.672-2.652v-.523a4.337,4.337,0,0,0-.672-2.64,2.306,2.306,0,0,0-1.959-.888ZM102.416,97H99.511V84.914h2.905Zm12.119,0h-2.9l-4.283-7.521V97h-2.914V84.914h2.914l4.275,7.521V84.914h2.905Zm8.857-2.258H119.4L118.7,97h-3.113l4.433-12.086h2.739L127.227,97H124.1Zm-3.3-2.25h2.6l-1.3-4.192Z" transform="translate(720 14485)" fill="#12263f"/>
      <g id="Grupo_111579" data-name="Grupo 111579" transform="translate(751.182 14365.363)">
        <g id="Grupo_18423-3" data-name="Grupo 18423" transform="translate(0 0)">
          <g id="Grupo_18421-3" data-name="Grupo 18421">
            <g id="Grupo_18420-3" data-name="Grupo 18420">
              <g id="Grupo_18419-3" data-name="Grupo 18419">
                <path id="Trazado_40936-3" data-name="Trazado 40936" d="M309.259,2203.037a57.318,57.318,0,1,1-57.317-57.316A57.317,57.317,0,0,1,309.259,2203.037Z" transform="translate(-194.623 -2145.721)" fill="#fff"/>
              </g>
            </g>
          </g>
          <path id="Trazado_40937-3" data-name="Trazado 40937" d="M308.648,2202.372a57.316,57.316,0,1,0-57.317,57.319A57.091,57.091,0,0,0,308.648,2202.372Z" transform="translate(-194.013 -2145.056)" fill="url(#radial-gradient)"/>
          <path id="Trazado_40938-3" data-name="Trazado 40938" d="M289.672,2196.986a43.75,43.75,0,1,0-43.75,43.75A43.587,43.587,0,0,0,289.672,2196.986Z" transform="translate(-188.43 -2139.479)" fill="none" stroke="#00223d" stroke-miterlimit="10" stroke-width="4"/>
          <g id="Grupo_18422-3" data-name="Grupo 18422" transform="translate(10.154 32.18)">
            <path id="Trazado_40939-3" data-name="Trazado 40939" d="M299.231,2164.488a57.325,57.325,0,0,1-98.686,57.081,57.143,57.143,0,0,0,98.686-57.081Z" transform="translate(-200.545 -2164.488)" fill="#eceef0"/>
          </g>
        </g>
        <g id="t6z3xn" transform="translate(-452.45 -57.713)">
          <g id="Grupo_111571" data-name="Grupo 111571" transform="translate(489.141 91.821)">
            <path id="Trazado_167052" data-name="Trazado 167052" d="M526.8,120.384A10.576,10.576,0,0,1,535.213,123a10.282,10.282,0,0,1,3.293,5.649,10.579,10.579,0,0,1-18.511,8.94l-4.016,2.675c-.439.292-.889.569-1.314.88a1.127,1.127,0,0,1-1.449.009c-1.616-1.1-3.253-2.165-4.871-3.26a.549.549,0,0,0-.731-.011c-1.576,1.074-3.169,2.124-4.756,3.182-.741.494-.951.5-1.678.012-1.574-1.049-3.156-2.088-4.717-3.156a.632.632,0,0,0-.847.013c-1.589,1.083-3.2,2.133-4.793,3.209a1.089,1.089,0,0,1-1.211.161,1.023,1.023,0,0,1-.47-1.035q.007-23.638,0-47.276a1.018,1.018,0,0,1,.473-1.033,1.059,1.059,0,0,1,1.172.14c1.62,1.093,3.255,2.162,4.871,3.26a.575.575,0,0,0,.771.009c1.575-1.076,3.168-2.125,4.755-3.183.713-.475.94-.476,1.64-.01,1.575,1.049,3.155,2.089,4.717,3.155a.632.632,0,0,0,.848.013c1.561-1.069,3.142-2.107,4.717-3.156.727-.484.937-.482,1.678.012,1.587,1.058,3.179,2.108,4.756,3.182a.549.549,0,0,0,.731-.012c1.618-1.095,3.252-2.166,4.872-3.259a1.077,1.077,0,0,1,1.17-.161c.439.223.492.623.492,1.068q-.008,13.344,0,26.689Zm-35.745,18.272c.191-.118.332-.2.468-.29q1.879-1.249,3.756-2.5c.667-.444.872-.443,1.555.012,1.587,1.057,3.182,2.1,4.755,3.182a.641.641,0,0,0,.857-.012c1.589-1.083,3.194-2.142,4.794-3.208a1.04,1.04,0,0,1,1.48.01c1.613,1.075,3.231,2.142,4.833,3.233a.586.586,0,0,0,.778-.009c1.4-.951,2.809-1.88,4.215-2.819.125-.084.242-.181.348-.26a.492.492,0,0,0-.014-.084q-.119-.252-.24-.5a9.921,9.921,0,0,1-.946-5.748,10.345,10.345,0,0,1,6.813-8.682.541.541,0,0,0,.421-.593q-.015-12.669-.009-25.338c0-.13-.019-.26-.034-.446-.181.111-.313.186-.438.27q-1.917,1.276-3.833,2.553a1.021,1.021,0,0,1-1.44-.006c-1.627-1.083-3.258-2.158-4.873-3.257a.552.552,0,0,0-.737.007c-1.617,1.1-3.247,2.174-4.873,3.257a1.021,1.021,0,0,1-1.44-.005c-1.626-1.083-3.257-2.158-4.873-3.257a.552.552,0,0,0-.737.006c-1.617,1.1-3.247,2.174-4.873,3.257a1.021,1.021,0,0,1-1.44,0q-1.917-1.276-3.833-2.553c-.131-.087-.272-.161-.438-.258Zm28.47-7.787a8.657,8.657,0,1,0,8.642-8.652A8.689,8.689,0,0,0,519.524,130.869Z" transform="translate(-489.141 -91.821)" fill="#12263f"/>
            <path id="Trazado_167053" data-name="Trazado 167053" d="M566.011,221.853q-5.867,0-11.733,0c-.673,0-1.057-.319-1.081-.883a.9.9,0,0,1,.922-.993c.45-.013.9,0,1.35,0h22.349c.707,0,1.091.319,1.105.907a.888.888,0,0,1-.9.968c-.651.016-1.3.005-1.955.005Z" transform="translate(-547.229 -208.031)" fill="#12263f"/>
            <path id="Trazado_167054" data-name="Trazado 167054" d="M566.107,283.969q5.867,0,11.734,0c.673,0,1.058.319,1.082.882a.9.9,0,0,1-.92.995c-.326.011-.652,0-.978,0H554.3c-.707,0-1.091-.319-1.106-.905a.888.888,0,0,1,.9-.97c.589-.016,1.179-.005,1.769-.005Z" transform="translate(-547.228 -266.066)" fill="#12263f"/>
            <path id="Trazado_167055" data-name="Trazado 167055" d="M566.052,349.882q-5.82,0-11.64,0a2.317,2.317,0,0,1-.6-.042.919.919,0,0,1-.622-1.022.9.9,0,0,1,.82-.81c.092-.009.186-.006.279-.006H577.8c.727,0,1.114.335,1.111.948a.894.894,0,0,1-.894.929c-.17.009-.341,0-.512,0Z" transform="translate(-547.218 -324.135)" fill="#12263f"/>
            <path id="Trazado_167056" data-name="Trazado 167056" d="M563.573,413.737q-4.676,0-9.353,0a.943.943,0,1,1-.019-1.878c1.923,0,3.846,0,5.77,0,4.327,0,8.655.015,12.982-.015a.959.959,0,1,1-.027,1.9C569.809,413.732,566.691,413.737,563.573,413.737Z" transform="translate(-547.219 -382.028)" fill="#12263f"/>
            <path id="Trazado_167057" data-name="Trazado 167057" d="M562.385,477.878q-4.165,0-8.329,0a.942.942,0,1,1,0-1.877q2.722-.006,5.444,0,5.561,0,11.121,0a.944.944,0,0,1,.936,1.4.975.975,0,0,1-.939.478C567.876,477.874,565.13,477.878,562.385,477.878Z" transform="translate(-547.088 -440.208)" fill="#12263f"/>
            <path id="Trazado_167058" data-name="Trazado 167058" d="M878.1,444.081c.435,0,.805-.008,1.175,0a.97.97,0,1,1-.03,1.928c-1.1.005-2.2,0-3.342,0v1.57h1.272c.419,0,.839-.01,1.257,0a1.9,1.9,0,0,1,1.9,1.937c.006.45,0,.9,0,1.35a1.917,1.917,0,0,1-1.908,2.076c-.091.008-.181.021-.328.038,0,.334.006.655,0,.975a.968.968,0,0,1-.955.99.943.943,0,0,1-.928-.964c-.012-.322,0-.645,0-1.038-.432,0-.814.008-1.2,0a.932.932,0,0,1-1.037-.985c.016-.567.41-.909,1.063-.913,1.086-.006,2.173-.007,3.259-.011a.442.442,0,0,0,.115-.046v-1.524c-.845,0-1.676,0-2.507,0a1.778,1.778,0,0,1-1.626-.9,2.41,2.41,0,0,1-.287-.96,14.246,14.246,0,0,1-.013-1.489,1.929,1.929,0,0,1,1.821-2.029c.121-.015.243-.022.416-.038,0-.352-.011-.691,0-1.028a.909.909,0,0,1,.92-.913.926.926,0,0,1,.957.927C878.114,443.36,878.1,443.685,878.1,444.081Z" transform="translate(-838.121 -409.478)" fill="#12263f"/>
          </g>
        </g>
      </g>
    </g>
    <g id="vw0tez.tif" transform="translate(764.674 3886.406)">
      <g id="Grupo_88565" data-name="Grupo 88565" transform="translate(0)">
        <path id="Trazado_140945" data-name="Trazado 140945" d="M0,26.679a2.509,2.509,0,0,0,.427.074q8.468.006,16.936,0h.512V0L38.652,48.48,17.908,96.886V70.323a1.808,1.808,0,0,0-.416-.114q-8.618-.007-17.236,0A.969.969,0,0,0,0,70.282Z" fill="#12263f"/>
      </g>
    </g>
    <g id="vw0tez.tif-2" data-name="vw0tez.tif" transform="translate(1000.674 3886.406)">
      <g id="Grupo_88565-2" data-name="Grupo 88565" transform="translate(0)">
        <path id="Trazado_140945-2" data-name="Trazado 140945" d="M0,26.679a2.509,2.509,0,0,0,.427.074q8.468.006,16.936,0h.512V0L38.652,48.48,17.908,96.886V70.323a1.808,1.808,0,0,0-.416-.114q-8.618-.007-17.236,0A.969.969,0,0,0,0,70.282Z" fill="#12263f"/>
      </g>
    </g>
  </g>
</svg>
